G04 EAGLE Gerber RS-274X export*
G75*
%MOMM*%
%FSLAX34Y34*%
%LPD*%
%INBottom Copper*%
%IPPOS*%
%AMOC8*
5,1,8,0,0,1.08239X$1,22.5*%
G01*
%ADD10C,1.879600*%
%ADD11C,1.320800*%
%ADD12C,0.609600*%
%ADD13C,2.000000*%


D10*
X50800Y25400D03*
X76200Y25400D03*
X101600Y25400D03*
X127000Y25400D03*
X152400Y25400D03*
X177800Y25400D03*
X203200Y25400D03*
X228600Y25400D03*
X254000Y25400D03*
X279400Y25400D03*
D11*
X114300Y94996D02*
X114300Y108204D01*
X139700Y108204D02*
X139700Y94996D01*
X165100Y94996D02*
X165100Y108204D01*
X190500Y108204D02*
X190500Y94996D01*
X215900Y94996D02*
X215900Y108204D01*
X215900Y247396D02*
X215900Y260604D01*
X190500Y260604D02*
X190500Y247396D01*
X165100Y247396D02*
X165100Y260604D01*
X139700Y260604D02*
X139700Y247396D01*
X114300Y247396D02*
X114300Y260604D01*
D12*
X165100Y127000D02*
X165100Y101600D01*
X165100Y127000D02*
X165100Y254000D01*
X165100Y266700D02*
X177800Y279400D01*
X279400Y279400D02*
X304800Y254000D01*
X304800Y50800D01*
X279400Y25400D01*
X279400Y279400D02*
X177800Y279400D01*
X165100Y266700D02*
X165100Y254000D01*
X25400Y254000D02*
X25400Y50800D01*
X50800Y25400D01*
X25400Y254000D02*
X50800Y279400D01*
X152400Y279400D01*
X165100Y266700D01*
X190500Y152400D02*
X165100Y127000D01*
X190500Y152400D02*
X203200Y152400D01*
D13*
X203200Y152400D03*
D12*
X241300Y177800D02*
X190500Y228600D01*
X241300Y177800D02*
X241300Y63500D01*
X228600Y50800D01*
X228600Y25400D01*
X190500Y228600D02*
X190500Y254000D01*
X215900Y254000D02*
X228600Y254000D01*
X279400Y203200D01*
X279400Y63500D01*
X254000Y38100D01*
X254000Y25400D01*
X190500Y76200D02*
X190500Y101600D01*
X190500Y76200D02*
X177800Y63500D01*
X177800Y25400D01*
X139700Y76200D02*
X139700Y101600D01*
X139700Y76200D02*
X152400Y63500D01*
X152400Y25400D01*
X114300Y76200D02*
X114300Y101600D01*
X114300Y76200D02*
X127000Y63500D01*
X127000Y25400D01*
X139700Y228600D02*
X139700Y254000D01*
X139700Y228600D02*
X88900Y177800D01*
X101600Y50800D02*
X101600Y25400D01*
X101600Y50800D02*
X88900Y63500D01*
X88900Y177800D01*
X139700Y198120D02*
X139700Y228600D01*
D13*
X139700Y198120D03*
D12*
X114300Y254000D02*
X101600Y254000D01*
X50800Y203200D01*
X76200Y38100D02*
X76200Y25400D01*
X76200Y38100D02*
X50800Y63500D01*
X50800Y203200D01*
X215900Y101600D02*
X215900Y76200D01*
X203200Y63500D01*
X203200Y25400D01*
M02*
