G04 EAGLE Gerber RS-274X export*
G75*
%MOMM*%
%FSLAX34Y34*%
%LPD*%
%INTop Copper*%
%IPPOS*%
%AMOC8*
5,1,8,0,0,1.08239X$1,22.5*%
G01*
%ADD10C,1.879600*%
%ADD11C,1.320800*%
%ADD12R,0.800000X1.200000*%
%ADD13R,1.200000X1.200000*%
%ADD14C,2.000000*%
%ADD15C,0.609600*%


D10*
X50800Y25400D03*
X76200Y25400D03*
X101600Y25400D03*
X127000Y25400D03*
X152400Y25400D03*
X177800Y25400D03*
X203200Y25400D03*
X228600Y25400D03*
X254000Y25400D03*
X279400Y25400D03*
D11*
X114300Y94996D02*
X114300Y108204D01*
X139700Y108204D02*
X139700Y94996D01*
X165100Y94996D02*
X165100Y108204D01*
X190500Y108204D02*
X190500Y94996D01*
X215900Y94996D02*
X215900Y108204D01*
X215900Y247396D02*
X215900Y260604D01*
X190500Y260604D02*
X190500Y247396D01*
X165100Y247396D02*
X165100Y260604D01*
X139700Y260604D02*
X139700Y247396D01*
X114300Y247396D02*
X114300Y260604D01*
D12*
X148700Y139700D03*
X130700Y139700D03*
D13*
X129200Y165100D03*
X150200Y165100D03*
D14*
X203200Y152400D03*
D15*
X190500Y139700D01*
X148700Y139700D01*
D14*
X139700Y198120D03*
D15*
X150200Y187620D02*
X150200Y165100D01*
X150200Y187620D02*
X139700Y198120D01*
X127000Y143400D02*
X130700Y139700D01*
X127000Y143400D02*
X127000Y165100D01*
M02*
