G04 EAGLE Gerber RS-274X export*
G75*
%MOMM*%
%FSLAX34Y34*%
%LPD*%
%INTop Copper*%
%IPPOS*%
%AMOC8*
5,1,8,0,0,1.08239X$1,22.5*%
G01*
%ADD10C,0.254000*%
%ADD11C,1.320800*%
%ADD12P,1.732040X8X22.500000*%
%ADD13C,1.879600*%
%ADD14P,1.429621X8X202.500000*%
%ADD15R,2.413000X2.413000*%
%ADD16C,2.413000*%
%ADD17C,0.508000*%
%ADD18C,1.800000*%
%ADD19C,1.778000*%
%ADD20C,2.000000*%


D10*
X1268730Y242570D02*
X1240790Y242570D01*
X1256312Y251883D01*
X1240790Y261197D01*
X1268730Y261197D01*
X1257864Y275774D02*
X1257864Y282759D01*
X1257864Y275774D02*
X1257866Y275628D01*
X1257872Y275482D01*
X1257882Y275337D01*
X1257895Y275192D01*
X1257913Y275047D01*
X1257934Y274902D01*
X1257960Y274759D01*
X1257989Y274616D01*
X1258022Y274474D01*
X1258059Y274333D01*
X1258099Y274193D01*
X1258144Y274054D01*
X1258192Y273916D01*
X1258243Y273779D01*
X1258299Y273644D01*
X1258358Y273511D01*
X1258420Y273379D01*
X1258486Y273249D01*
X1258556Y273121D01*
X1258629Y272995D01*
X1258705Y272870D01*
X1258785Y272748D01*
X1258868Y272628D01*
X1258954Y272510D01*
X1259043Y272395D01*
X1259135Y272282D01*
X1259230Y272171D01*
X1259329Y272063D01*
X1259430Y271958D01*
X1259533Y271856D01*
X1259640Y271756D01*
X1259749Y271659D01*
X1259861Y271566D01*
X1259975Y271475D01*
X1260092Y271387D01*
X1260211Y271303D01*
X1260332Y271221D01*
X1260455Y271144D01*
X1260581Y271069D01*
X1260708Y270998D01*
X1260837Y270930D01*
X1260968Y270866D01*
X1261101Y270805D01*
X1261235Y270748D01*
X1261370Y270694D01*
X1261508Y270644D01*
X1261646Y270598D01*
X1261785Y270556D01*
X1261926Y270517D01*
X1262068Y270482D01*
X1262210Y270451D01*
X1262354Y270424D01*
X1262498Y270400D01*
X1262642Y270381D01*
X1262787Y270365D01*
X1262933Y270353D01*
X1263078Y270345D01*
X1263224Y270341D01*
X1263370Y270341D01*
X1263516Y270345D01*
X1263661Y270353D01*
X1263807Y270365D01*
X1263952Y270381D01*
X1264096Y270400D01*
X1264240Y270424D01*
X1264384Y270451D01*
X1264526Y270482D01*
X1264668Y270517D01*
X1264809Y270556D01*
X1264948Y270598D01*
X1265086Y270644D01*
X1265224Y270694D01*
X1265359Y270748D01*
X1265493Y270805D01*
X1265626Y270866D01*
X1265757Y270930D01*
X1265886Y270998D01*
X1266014Y271069D01*
X1266139Y271144D01*
X1266262Y271221D01*
X1266383Y271303D01*
X1266502Y271387D01*
X1266619Y271475D01*
X1266733Y271566D01*
X1266845Y271659D01*
X1266954Y271756D01*
X1267061Y271856D01*
X1267164Y271958D01*
X1267265Y272063D01*
X1267364Y272171D01*
X1267459Y272282D01*
X1267551Y272395D01*
X1267640Y272510D01*
X1267726Y272628D01*
X1267809Y272748D01*
X1267889Y272870D01*
X1267965Y272995D01*
X1268038Y273121D01*
X1268108Y273249D01*
X1268174Y273379D01*
X1268236Y273511D01*
X1268295Y273644D01*
X1268351Y273779D01*
X1268402Y273916D01*
X1268450Y274054D01*
X1268495Y274193D01*
X1268535Y274333D01*
X1268572Y274474D01*
X1268605Y274616D01*
X1268634Y274759D01*
X1268660Y274902D01*
X1268681Y275047D01*
X1268699Y275192D01*
X1268712Y275337D01*
X1268722Y275482D01*
X1268728Y275628D01*
X1268730Y275774D01*
X1268730Y282759D01*
X1254760Y282759D01*
X1254760Y282760D02*
X1254625Y282758D01*
X1254489Y282752D01*
X1254354Y282742D01*
X1254219Y282729D01*
X1254085Y282711D01*
X1253951Y282689D01*
X1253818Y282664D01*
X1253686Y282634D01*
X1253555Y282601D01*
X1253424Y282564D01*
X1253295Y282524D01*
X1253167Y282479D01*
X1253041Y282431D01*
X1252915Y282379D01*
X1252792Y282324D01*
X1252670Y282265D01*
X1252550Y282202D01*
X1252432Y282136D01*
X1252315Y282067D01*
X1252201Y281994D01*
X1252089Y281918D01*
X1251979Y281838D01*
X1251872Y281756D01*
X1251767Y281670D01*
X1251664Y281582D01*
X1251564Y281490D01*
X1251467Y281396D01*
X1251373Y281299D01*
X1251281Y281199D01*
X1251193Y281096D01*
X1251107Y280991D01*
X1251025Y280884D01*
X1250945Y280774D01*
X1250869Y280662D01*
X1250796Y280548D01*
X1250727Y280432D01*
X1250661Y280313D01*
X1250598Y280193D01*
X1250539Y280071D01*
X1250484Y279948D01*
X1250432Y279822D01*
X1250384Y279696D01*
X1250339Y279568D01*
X1250299Y279439D01*
X1250262Y279308D01*
X1250229Y279177D01*
X1250199Y279045D01*
X1250174Y278912D01*
X1250152Y278778D01*
X1250134Y278644D01*
X1250121Y278509D01*
X1250111Y278374D01*
X1250105Y278238D01*
X1250103Y278103D01*
X1250103Y271894D01*
X1250103Y292502D02*
X1268730Y292502D01*
X1242342Y291726D02*
X1240790Y291726D01*
X1240790Y293278D01*
X1242342Y293278D01*
X1242342Y291726D01*
X1250103Y302222D02*
X1268730Y302222D01*
X1250103Y302222D02*
X1250103Y309983D01*
X1250105Y310118D01*
X1250111Y310254D01*
X1250121Y310389D01*
X1250134Y310524D01*
X1250152Y310658D01*
X1250174Y310792D01*
X1250199Y310925D01*
X1250229Y311057D01*
X1250262Y311188D01*
X1250299Y311319D01*
X1250339Y311448D01*
X1250384Y311576D01*
X1250432Y311702D01*
X1250484Y311828D01*
X1250539Y311951D01*
X1250598Y312073D01*
X1250661Y312193D01*
X1250727Y312312D01*
X1250796Y312428D01*
X1250869Y312542D01*
X1250945Y312654D01*
X1251025Y312764D01*
X1251107Y312871D01*
X1251193Y312976D01*
X1251281Y313079D01*
X1251373Y313179D01*
X1251467Y313276D01*
X1251564Y313370D01*
X1251664Y313462D01*
X1251767Y313550D01*
X1251872Y313636D01*
X1251979Y313718D01*
X1252089Y313798D01*
X1252201Y313874D01*
X1252315Y313947D01*
X1252432Y314016D01*
X1252550Y314082D01*
X1252670Y314145D01*
X1252792Y314204D01*
X1252915Y314259D01*
X1253041Y314311D01*
X1253167Y314359D01*
X1253295Y314404D01*
X1253424Y314444D01*
X1253555Y314481D01*
X1253686Y314514D01*
X1253818Y314544D01*
X1253951Y314569D01*
X1254085Y314591D01*
X1254219Y314609D01*
X1254354Y314622D01*
X1254489Y314632D01*
X1254625Y314638D01*
X1254760Y314640D01*
X1254760Y314639D02*
X1268730Y314639D01*
X1268730Y328382D02*
X1268730Y336143D01*
X1268730Y328382D02*
X1268728Y328247D01*
X1268722Y328111D01*
X1268712Y327976D01*
X1268699Y327841D01*
X1268681Y327707D01*
X1268659Y327573D01*
X1268634Y327440D01*
X1268604Y327308D01*
X1268571Y327177D01*
X1268534Y327046D01*
X1268494Y326917D01*
X1268449Y326789D01*
X1268401Y326663D01*
X1268349Y326537D01*
X1268294Y326414D01*
X1268235Y326292D01*
X1268172Y326172D01*
X1268106Y326054D01*
X1268037Y325937D01*
X1267964Y325823D01*
X1267888Y325711D01*
X1267808Y325601D01*
X1267726Y325494D01*
X1267640Y325389D01*
X1267552Y325286D01*
X1267460Y325186D01*
X1267366Y325089D01*
X1267269Y324995D01*
X1267169Y324903D01*
X1267066Y324815D01*
X1266961Y324729D01*
X1266854Y324647D01*
X1266744Y324567D01*
X1266632Y324491D01*
X1266518Y324418D01*
X1266402Y324349D01*
X1266283Y324283D01*
X1266163Y324220D01*
X1266041Y324161D01*
X1265918Y324106D01*
X1265792Y324054D01*
X1265666Y324006D01*
X1265538Y323961D01*
X1265409Y323921D01*
X1265278Y323884D01*
X1265147Y323851D01*
X1265015Y323821D01*
X1264882Y323796D01*
X1264748Y323774D01*
X1264614Y323756D01*
X1264479Y323743D01*
X1264344Y323733D01*
X1264208Y323727D01*
X1264073Y323725D01*
X1264073Y323726D02*
X1256312Y323726D01*
X1256312Y323725D02*
X1256156Y323727D01*
X1256000Y323733D01*
X1255844Y323743D01*
X1255689Y323756D01*
X1255534Y323774D01*
X1255379Y323795D01*
X1255225Y323821D01*
X1255072Y323850D01*
X1254920Y323883D01*
X1254768Y323920D01*
X1254617Y323961D01*
X1254468Y324005D01*
X1254319Y324053D01*
X1254172Y324105D01*
X1254026Y324161D01*
X1253882Y324220D01*
X1253739Y324283D01*
X1253598Y324350D01*
X1253458Y324420D01*
X1253321Y324493D01*
X1253185Y324570D01*
X1253051Y324650D01*
X1252919Y324734D01*
X1252790Y324821D01*
X1252662Y324911D01*
X1252537Y325004D01*
X1252415Y325101D01*
X1252294Y325200D01*
X1252177Y325302D01*
X1252062Y325408D01*
X1251949Y325516D01*
X1251840Y325627D01*
X1251733Y325741D01*
X1251629Y325857D01*
X1251528Y325976D01*
X1251430Y326098D01*
X1251335Y326222D01*
X1251243Y326348D01*
X1251155Y326476D01*
X1251070Y326607D01*
X1250988Y326740D01*
X1250909Y326875D01*
X1250834Y327011D01*
X1250762Y327150D01*
X1250694Y327290D01*
X1250629Y327432D01*
X1250568Y327576D01*
X1250511Y327721D01*
X1250457Y327868D01*
X1250407Y328015D01*
X1250361Y328164D01*
X1250318Y328314D01*
X1250279Y328466D01*
X1250244Y328618D01*
X1250213Y328771D01*
X1250186Y328924D01*
X1250162Y329078D01*
X1250143Y329233D01*
X1250127Y329389D01*
X1250115Y329544D01*
X1250107Y329700D01*
X1250103Y329856D01*
X1250103Y330012D01*
X1250107Y330168D01*
X1250115Y330324D01*
X1250127Y330479D01*
X1250143Y330635D01*
X1250162Y330790D01*
X1250186Y330944D01*
X1250213Y331097D01*
X1250244Y331250D01*
X1250279Y331402D01*
X1250318Y331554D01*
X1250361Y331704D01*
X1250407Y331853D01*
X1250457Y332000D01*
X1250511Y332147D01*
X1250568Y332292D01*
X1250629Y332436D01*
X1250694Y332578D01*
X1250762Y332718D01*
X1250834Y332857D01*
X1250909Y332993D01*
X1250988Y333128D01*
X1251070Y333261D01*
X1251155Y333392D01*
X1251243Y333520D01*
X1251335Y333646D01*
X1251430Y333770D01*
X1251528Y333892D01*
X1251629Y334011D01*
X1251733Y334127D01*
X1251840Y334241D01*
X1251949Y334352D01*
X1252062Y334460D01*
X1252177Y334566D01*
X1252294Y334668D01*
X1252415Y334767D01*
X1252537Y334864D01*
X1252662Y334957D01*
X1252790Y335047D01*
X1252919Y335134D01*
X1253051Y335218D01*
X1253185Y335298D01*
X1253321Y335375D01*
X1253458Y335448D01*
X1253598Y335518D01*
X1253739Y335585D01*
X1253882Y335648D01*
X1254026Y335707D01*
X1254172Y335763D01*
X1254319Y335815D01*
X1254468Y335863D01*
X1254617Y335907D01*
X1254768Y335948D01*
X1254920Y335985D01*
X1255072Y336018D01*
X1255225Y336047D01*
X1255379Y336073D01*
X1255534Y336094D01*
X1255689Y336112D01*
X1255844Y336125D01*
X1256000Y336135D01*
X1256156Y336141D01*
X1256312Y336143D01*
X1259417Y336143D01*
X1259417Y323726D01*
X1268730Y345229D02*
X1250103Y345229D01*
X1250103Y352991D01*
X1250105Y353126D01*
X1250111Y353262D01*
X1250121Y353397D01*
X1250134Y353532D01*
X1250152Y353666D01*
X1250174Y353800D01*
X1250199Y353933D01*
X1250229Y354065D01*
X1250262Y354196D01*
X1250299Y354327D01*
X1250339Y354456D01*
X1250384Y354584D01*
X1250432Y354710D01*
X1250484Y354836D01*
X1250539Y354959D01*
X1250598Y355081D01*
X1250661Y355201D01*
X1250727Y355320D01*
X1250796Y355436D01*
X1250869Y355550D01*
X1250945Y355662D01*
X1251025Y355772D01*
X1251107Y355879D01*
X1251193Y355984D01*
X1251281Y356087D01*
X1251373Y356187D01*
X1251467Y356284D01*
X1251564Y356378D01*
X1251664Y356470D01*
X1251767Y356558D01*
X1251872Y356644D01*
X1251979Y356726D01*
X1252089Y356806D01*
X1252201Y356882D01*
X1252315Y356955D01*
X1252432Y357024D01*
X1252550Y357090D01*
X1252670Y357153D01*
X1252792Y357212D01*
X1252915Y357267D01*
X1253041Y357319D01*
X1253167Y357367D01*
X1253295Y357412D01*
X1253424Y357452D01*
X1253555Y357489D01*
X1253686Y357522D01*
X1253818Y357552D01*
X1253951Y357577D01*
X1254085Y357599D01*
X1254219Y357617D01*
X1254354Y357630D01*
X1254489Y357640D01*
X1254625Y357646D01*
X1254760Y357648D01*
X1254760Y357647D02*
X1268730Y357647D01*
X1250103Y365061D02*
X1250103Y374375D01*
X1240790Y368166D02*
X1264073Y368166D01*
X1264073Y368165D02*
X1264208Y368167D01*
X1264344Y368173D01*
X1264479Y368183D01*
X1264614Y368196D01*
X1264748Y368214D01*
X1264882Y368236D01*
X1265015Y368261D01*
X1265147Y368291D01*
X1265278Y368324D01*
X1265409Y368361D01*
X1265538Y368401D01*
X1265666Y368446D01*
X1265792Y368494D01*
X1265918Y368546D01*
X1266041Y368601D01*
X1266163Y368660D01*
X1266283Y368723D01*
X1266402Y368789D01*
X1266518Y368858D01*
X1266632Y368931D01*
X1266744Y369007D01*
X1266854Y369087D01*
X1266961Y369169D01*
X1267066Y369255D01*
X1267169Y369343D01*
X1267269Y369435D01*
X1267366Y369529D01*
X1267460Y369626D01*
X1267552Y369726D01*
X1267640Y369829D01*
X1267726Y369934D01*
X1267808Y370041D01*
X1267888Y370151D01*
X1267964Y370263D01*
X1268037Y370377D01*
X1268106Y370494D01*
X1268172Y370612D01*
X1268235Y370732D01*
X1268294Y370854D01*
X1268349Y370977D01*
X1268401Y371103D01*
X1268449Y371229D01*
X1268494Y371357D01*
X1268534Y371486D01*
X1268571Y371617D01*
X1268604Y371748D01*
X1268634Y371880D01*
X1268659Y372013D01*
X1268681Y372147D01*
X1268699Y372281D01*
X1268712Y372416D01*
X1268722Y372551D01*
X1268728Y372687D01*
X1268730Y372822D01*
X1268730Y374375D01*
X1268730Y382499D02*
X1250103Y382499D01*
X1242342Y381723D02*
X1240790Y381723D01*
X1240790Y383276D01*
X1242342Y383276D01*
X1242342Y381723D01*
X1240790Y405003D02*
X1268730Y405003D01*
X1268730Y420525D02*
X1240790Y405003D01*
X1240790Y420525D02*
X1268730Y420525D01*
X1268730Y430286D02*
X1250103Y430286D01*
X1242342Y429510D02*
X1240790Y429510D01*
X1240790Y431062D01*
X1242342Y431062D01*
X1242342Y429510D01*
X1268730Y443873D02*
X1268730Y450082D01*
X1268730Y443873D02*
X1268728Y443738D01*
X1268722Y443602D01*
X1268712Y443467D01*
X1268699Y443332D01*
X1268681Y443198D01*
X1268659Y443064D01*
X1268634Y442931D01*
X1268604Y442799D01*
X1268571Y442668D01*
X1268534Y442537D01*
X1268494Y442408D01*
X1268449Y442280D01*
X1268401Y442154D01*
X1268349Y442028D01*
X1268294Y441905D01*
X1268235Y441783D01*
X1268172Y441663D01*
X1268106Y441545D01*
X1268037Y441428D01*
X1267964Y441314D01*
X1267888Y441202D01*
X1267808Y441092D01*
X1267726Y440985D01*
X1267640Y440880D01*
X1267552Y440777D01*
X1267460Y440677D01*
X1267366Y440580D01*
X1267269Y440486D01*
X1267169Y440394D01*
X1267066Y440306D01*
X1266961Y440220D01*
X1266854Y440138D01*
X1266744Y440058D01*
X1266632Y439982D01*
X1266518Y439909D01*
X1266402Y439840D01*
X1266283Y439774D01*
X1266163Y439711D01*
X1266041Y439652D01*
X1265918Y439597D01*
X1265792Y439545D01*
X1265666Y439497D01*
X1265538Y439452D01*
X1265409Y439412D01*
X1265278Y439375D01*
X1265147Y439342D01*
X1265015Y439312D01*
X1264882Y439287D01*
X1264748Y439265D01*
X1264614Y439247D01*
X1264479Y439234D01*
X1264344Y439224D01*
X1264208Y439218D01*
X1264073Y439216D01*
X1264073Y439217D02*
X1254760Y439217D01*
X1254760Y439216D02*
X1254625Y439218D01*
X1254489Y439224D01*
X1254354Y439234D01*
X1254219Y439247D01*
X1254085Y439265D01*
X1253951Y439287D01*
X1253818Y439312D01*
X1253686Y439342D01*
X1253555Y439375D01*
X1253424Y439412D01*
X1253295Y439452D01*
X1253167Y439497D01*
X1253041Y439545D01*
X1252915Y439597D01*
X1252792Y439652D01*
X1252670Y439711D01*
X1252550Y439774D01*
X1252432Y439840D01*
X1252315Y439909D01*
X1252201Y439982D01*
X1252089Y440058D01*
X1251979Y440138D01*
X1251872Y440220D01*
X1251767Y440306D01*
X1251664Y440394D01*
X1251564Y440486D01*
X1251467Y440580D01*
X1251373Y440677D01*
X1251281Y440777D01*
X1251193Y440880D01*
X1251107Y440985D01*
X1251025Y441092D01*
X1250945Y441202D01*
X1250869Y441314D01*
X1250796Y441428D01*
X1250727Y441545D01*
X1250661Y441663D01*
X1250598Y441783D01*
X1250539Y441905D01*
X1250484Y442028D01*
X1250432Y442154D01*
X1250384Y442280D01*
X1250339Y442408D01*
X1250299Y442537D01*
X1250262Y442668D01*
X1250229Y442799D01*
X1250199Y442931D01*
X1250174Y443064D01*
X1250152Y443198D01*
X1250134Y443332D01*
X1250121Y443467D01*
X1250111Y443602D01*
X1250105Y443738D01*
X1250103Y443873D01*
X1250103Y450082D01*
X1256312Y457528D02*
X1262521Y457528D01*
X1256312Y457527D02*
X1256156Y457529D01*
X1256000Y457535D01*
X1255844Y457545D01*
X1255689Y457558D01*
X1255534Y457576D01*
X1255379Y457597D01*
X1255225Y457623D01*
X1255072Y457652D01*
X1254920Y457685D01*
X1254768Y457722D01*
X1254617Y457763D01*
X1254468Y457807D01*
X1254319Y457855D01*
X1254172Y457907D01*
X1254026Y457963D01*
X1253882Y458022D01*
X1253739Y458085D01*
X1253598Y458152D01*
X1253458Y458222D01*
X1253321Y458295D01*
X1253185Y458372D01*
X1253051Y458452D01*
X1252919Y458536D01*
X1252790Y458623D01*
X1252662Y458713D01*
X1252537Y458806D01*
X1252415Y458903D01*
X1252294Y459002D01*
X1252177Y459104D01*
X1252062Y459210D01*
X1251949Y459318D01*
X1251840Y459429D01*
X1251733Y459543D01*
X1251629Y459659D01*
X1251528Y459778D01*
X1251430Y459900D01*
X1251335Y460024D01*
X1251243Y460150D01*
X1251155Y460278D01*
X1251070Y460409D01*
X1250988Y460542D01*
X1250909Y460677D01*
X1250834Y460813D01*
X1250762Y460952D01*
X1250694Y461092D01*
X1250629Y461234D01*
X1250568Y461378D01*
X1250511Y461523D01*
X1250457Y461670D01*
X1250407Y461817D01*
X1250361Y461966D01*
X1250318Y462116D01*
X1250279Y462268D01*
X1250244Y462420D01*
X1250213Y462573D01*
X1250186Y462726D01*
X1250162Y462880D01*
X1250143Y463035D01*
X1250127Y463191D01*
X1250115Y463346D01*
X1250107Y463502D01*
X1250103Y463658D01*
X1250103Y463814D01*
X1250107Y463970D01*
X1250115Y464126D01*
X1250127Y464281D01*
X1250143Y464437D01*
X1250162Y464592D01*
X1250186Y464746D01*
X1250213Y464899D01*
X1250244Y465052D01*
X1250279Y465204D01*
X1250318Y465356D01*
X1250361Y465506D01*
X1250407Y465655D01*
X1250457Y465802D01*
X1250511Y465949D01*
X1250568Y466094D01*
X1250629Y466238D01*
X1250694Y466380D01*
X1250762Y466520D01*
X1250834Y466659D01*
X1250909Y466795D01*
X1250988Y466930D01*
X1251070Y467063D01*
X1251155Y467194D01*
X1251243Y467322D01*
X1251335Y467448D01*
X1251430Y467572D01*
X1251528Y467694D01*
X1251629Y467813D01*
X1251733Y467929D01*
X1251840Y468043D01*
X1251949Y468154D01*
X1252062Y468262D01*
X1252177Y468368D01*
X1252294Y468470D01*
X1252415Y468569D01*
X1252537Y468666D01*
X1252662Y468759D01*
X1252790Y468849D01*
X1252919Y468936D01*
X1253051Y469020D01*
X1253185Y469100D01*
X1253321Y469177D01*
X1253458Y469250D01*
X1253598Y469320D01*
X1253739Y469387D01*
X1253882Y469450D01*
X1254026Y469509D01*
X1254172Y469565D01*
X1254319Y469617D01*
X1254468Y469665D01*
X1254617Y469709D01*
X1254768Y469750D01*
X1254920Y469787D01*
X1255072Y469820D01*
X1255225Y469849D01*
X1255379Y469875D01*
X1255534Y469896D01*
X1255689Y469914D01*
X1255844Y469927D01*
X1256000Y469937D01*
X1256156Y469943D01*
X1256312Y469945D01*
X1262521Y469945D01*
X1262677Y469943D01*
X1262833Y469937D01*
X1262989Y469927D01*
X1263144Y469914D01*
X1263299Y469896D01*
X1263454Y469875D01*
X1263608Y469849D01*
X1263761Y469820D01*
X1263913Y469787D01*
X1264065Y469750D01*
X1264216Y469709D01*
X1264365Y469665D01*
X1264514Y469617D01*
X1264661Y469565D01*
X1264807Y469509D01*
X1264951Y469450D01*
X1265094Y469387D01*
X1265235Y469320D01*
X1265375Y469250D01*
X1265512Y469177D01*
X1265648Y469100D01*
X1265782Y469020D01*
X1265914Y468936D01*
X1266043Y468849D01*
X1266171Y468759D01*
X1266296Y468666D01*
X1266418Y468569D01*
X1266539Y468470D01*
X1266656Y468368D01*
X1266771Y468262D01*
X1266884Y468154D01*
X1266993Y468043D01*
X1267100Y467929D01*
X1267204Y467813D01*
X1267305Y467694D01*
X1267403Y467572D01*
X1267498Y467448D01*
X1267590Y467322D01*
X1267678Y467194D01*
X1267763Y467063D01*
X1267845Y466930D01*
X1267924Y466795D01*
X1267999Y466659D01*
X1268071Y466520D01*
X1268139Y466380D01*
X1268204Y466238D01*
X1268265Y466094D01*
X1268322Y465949D01*
X1268376Y465802D01*
X1268426Y465655D01*
X1268472Y465506D01*
X1268515Y465356D01*
X1268554Y465204D01*
X1268589Y465052D01*
X1268620Y464899D01*
X1268647Y464746D01*
X1268671Y464592D01*
X1268690Y464437D01*
X1268706Y464281D01*
X1268718Y464126D01*
X1268726Y463970D01*
X1268730Y463814D01*
X1268730Y463658D01*
X1268726Y463502D01*
X1268718Y463346D01*
X1268706Y463191D01*
X1268690Y463035D01*
X1268671Y462880D01*
X1268647Y462726D01*
X1268620Y462573D01*
X1268589Y462420D01*
X1268554Y462268D01*
X1268515Y462116D01*
X1268472Y461966D01*
X1268426Y461817D01*
X1268376Y461670D01*
X1268322Y461523D01*
X1268265Y461378D01*
X1268204Y461234D01*
X1268139Y461092D01*
X1268071Y460952D01*
X1267999Y460813D01*
X1267924Y460677D01*
X1267845Y460542D01*
X1267763Y460409D01*
X1267678Y460278D01*
X1267590Y460150D01*
X1267498Y460024D01*
X1267403Y459900D01*
X1267305Y459778D01*
X1267204Y459659D01*
X1267100Y459543D01*
X1266993Y459429D01*
X1266884Y459318D01*
X1266771Y459210D01*
X1266656Y459104D01*
X1266539Y459002D01*
X1266418Y458903D01*
X1266296Y458806D01*
X1266171Y458713D01*
X1266043Y458623D01*
X1265914Y458536D01*
X1265782Y458452D01*
X1265648Y458372D01*
X1265512Y458295D01*
X1265375Y458222D01*
X1265235Y458152D01*
X1265094Y458085D01*
X1264951Y458022D01*
X1264807Y457963D01*
X1264661Y457907D01*
X1264514Y457855D01*
X1264365Y457807D01*
X1264216Y457763D01*
X1264065Y457722D01*
X1263913Y457685D01*
X1263761Y457652D01*
X1263608Y457623D01*
X1263454Y457597D01*
X1263299Y457576D01*
X1263144Y457558D01*
X1262989Y457545D01*
X1262833Y457535D01*
X1262677Y457529D01*
X1262521Y457527D01*
X1264073Y478950D02*
X1240790Y478950D01*
X1264073Y478949D02*
X1264208Y478951D01*
X1264344Y478957D01*
X1264479Y478967D01*
X1264614Y478980D01*
X1264748Y478998D01*
X1264882Y479020D01*
X1265015Y479045D01*
X1265147Y479075D01*
X1265278Y479108D01*
X1265409Y479145D01*
X1265538Y479185D01*
X1265666Y479230D01*
X1265792Y479278D01*
X1265918Y479330D01*
X1266041Y479385D01*
X1266163Y479444D01*
X1266283Y479507D01*
X1266402Y479573D01*
X1266518Y479642D01*
X1266632Y479715D01*
X1266744Y479791D01*
X1266854Y479871D01*
X1266961Y479953D01*
X1267066Y480039D01*
X1267169Y480127D01*
X1267269Y480219D01*
X1267366Y480313D01*
X1267460Y480410D01*
X1267552Y480510D01*
X1267640Y480613D01*
X1267726Y480718D01*
X1267808Y480825D01*
X1267888Y480935D01*
X1267964Y481047D01*
X1268037Y481161D01*
X1268106Y481278D01*
X1268172Y481396D01*
X1268235Y481516D01*
X1268294Y481638D01*
X1268349Y481761D01*
X1268401Y481887D01*
X1268449Y482013D01*
X1268494Y482141D01*
X1268534Y482270D01*
X1268571Y482401D01*
X1268604Y482532D01*
X1268634Y482664D01*
X1268659Y482797D01*
X1268681Y482931D01*
X1268699Y483065D01*
X1268712Y483200D01*
X1268722Y483335D01*
X1268728Y483471D01*
X1268730Y483606D01*
X1257864Y496388D02*
X1257864Y503373D01*
X1257864Y496388D02*
X1257866Y496242D01*
X1257872Y496096D01*
X1257882Y495951D01*
X1257895Y495806D01*
X1257913Y495661D01*
X1257934Y495516D01*
X1257960Y495373D01*
X1257989Y495230D01*
X1258022Y495088D01*
X1258059Y494947D01*
X1258099Y494807D01*
X1258144Y494668D01*
X1258192Y494530D01*
X1258243Y494393D01*
X1258299Y494258D01*
X1258358Y494125D01*
X1258420Y493993D01*
X1258486Y493863D01*
X1258556Y493735D01*
X1258629Y493609D01*
X1258705Y493484D01*
X1258785Y493362D01*
X1258868Y493242D01*
X1258954Y493124D01*
X1259043Y493009D01*
X1259135Y492896D01*
X1259230Y492785D01*
X1259329Y492677D01*
X1259430Y492572D01*
X1259533Y492470D01*
X1259640Y492370D01*
X1259749Y492273D01*
X1259861Y492180D01*
X1259975Y492089D01*
X1260092Y492001D01*
X1260211Y491917D01*
X1260332Y491835D01*
X1260455Y491758D01*
X1260581Y491683D01*
X1260708Y491612D01*
X1260837Y491544D01*
X1260968Y491480D01*
X1261101Y491419D01*
X1261235Y491362D01*
X1261370Y491308D01*
X1261508Y491258D01*
X1261646Y491212D01*
X1261785Y491170D01*
X1261926Y491131D01*
X1262068Y491096D01*
X1262210Y491065D01*
X1262354Y491038D01*
X1262498Y491014D01*
X1262642Y490995D01*
X1262787Y490979D01*
X1262933Y490967D01*
X1263078Y490959D01*
X1263224Y490955D01*
X1263370Y490955D01*
X1263516Y490959D01*
X1263661Y490967D01*
X1263807Y490979D01*
X1263952Y490995D01*
X1264096Y491014D01*
X1264240Y491038D01*
X1264384Y491065D01*
X1264526Y491096D01*
X1264668Y491131D01*
X1264809Y491170D01*
X1264948Y491212D01*
X1265086Y491258D01*
X1265224Y491308D01*
X1265359Y491362D01*
X1265493Y491419D01*
X1265626Y491480D01*
X1265757Y491544D01*
X1265886Y491612D01*
X1266014Y491683D01*
X1266139Y491758D01*
X1266262Y491835D01*
X1266383Y491917D01*
X1266502Y492001D01*
X1266619Y492089D01*
X1266733Y492180D01*
X1266845Y492273D01*
X1266954Y492370D01*
X1267061Y492470D01*
X1267164Y492572D01*
X1267265Y492677D01*
X1267364Y492785D01*
X1267459Y492896D01*
X1267551Y493009D01*
X1267640Y493124D01*
X1267726Y493242D01*
X1267809Y493362D01*
X1267889Y493484D01*
X1267965Y493609D01*
X1268038Y493735D01*
X1268108Y493863D01*
X1268174Y493993D01*
X1268236Y494125D01*
X1268295Y494258D01*
X1268351Y494393D01*
X1268402Y494530D01*
X1268450Y494668D01*
X1268495Y494807D01*
X1268535Y494947D01*
X1268572Y495088D01*
X1268605Y495230D01*
X1268634Y495373D01*
X1268660Y495516D01*
X1268681Y495661D01*
X1268699Y495806D01*
X1268712Y495951D01*
X1268722Y496096D01*
X1268728Y496242D01*
X1268730Y496388D01*
X1268730Y503373D01*
X1254760Y503373D01*
X1254625Y503371D01*
X1254489Y503365D01*
X1254354Y503355D01*
X1254219Y503342D01*
X1254085Y503324D01*
X1253951Y503302D01*
X1253818Y503277D01*
X1253686Y503247D01*
X1253555Y503214D01*
X1253424Y503177D01*
X1253295Y503137D01*
X1253167Y503092D01*
X1253041Y503044D01*
X1252915Y502992D01*
X1252792Y502937D01*
X1252670Y502878D01*
X1252550Y502815D01*
X1252432Y502749D01*
X1252315Y502680D01*
X1252201Y502607D01*
X1252089Y502531D01*
X1251979Y502451D01*
X1251872Y502369D01*
X1251767Y502283D01*
X1251664Y502195D01*
X1251564Y502103D01*
X1251467Y502009D01*
X1251373Y501912D01*
X1251281Y501812D01*
X1251193Y501709D01*
X1251107Y501604D01*
X1251025Y501497D01*
X1250945Y501387D01*
X1250869Y501275D01*
X1250796Y501161D01*
X1250727Y501045D01*
X1250661Y500926D01*
X1250598Y500806D01*
X1250539Y500684D01*
X1250484Y500561D01*
X1250432Y500435D01*
X1250384Y500309D01*
X1250339Y500181D01*
X1250299Y500052D01*
X1250262Y499921D01*
X1250229Y499790D01*
X1250199Y499658D01*
X1250174Y499525D01*
X1250152Y499391D01*
X1250134Y499257D01*
X1250121Y499122D01*
X1250111Y498987D01*
X1250105Y498851D01*
X1250103Y498716D01*
X1250103Y492508D01*
X1257864Y514810D02*
X1260969Y522571D01*
X1257865Y514810D02*
X1257817Y514694D01*
X1257765Y514580D01*
X1257709Y514468D01*
X1257650Y514357D01*
X1257588Y514248D01*
X1257522Y514141D01*
X1257453Y514036D01*
X1257380Y513934D01*
X1257305Y513834D01*
X1257226Y513736D01*
X1257145Y513640D01*
X1257060Y513548D01*
X1256973Y513457D01*
X1256883Y513370D01*
X1256790Y513286D01*
X1256694Y513204D01*
X1256596Y513126D01*
X1256496Y513050D01*
X1256393Y512978D01*
X1256289Y512909D01*
X1256182Y512843D01*
X1256073Y512781D01*
X1255962Y512722D01*
X1255849Y512667D01*
X1255735Y512615D01*
X1255619Y512566D01*
X1255502Y512522D01*
X1255383Y512481D01*
X1255263Y512443D01*
X1255142Y512410D01*
X1255020Y512380D01*
X1254898Y512354D01*
X1254774Y512332D01*
X1254650Y512314D01*
X1254525Y512300D01*
X1254400Y512289D01*
X1254275Y512283D01*
X1254149Y512280D01*
X1254024Y512281D01*
X1253898Y512287D01*
X1253773Y512296D01*
X1253648Y512309D01*
X1253524Y512326D01*
X1253400Y512346D01*
X1253277Y512371D01*
X1253155Y512399D01*
X1253034Y512432D01*
X1252913Y512468D01*
X1252794Y512507D01*
X1252677Y512551D01*
X1252560Y512598D01*
X1252445Y512649D01*
X1252332Y512703D01*
X1252221Y512761D01*
X1252111Y512822D01*
X1252004Y512886D01*
X1251898Y512954D01*
X1251795Y513025D01*
X1251694Y513100D01*
X1251595Y513177D01*
X1251498Y513258D01*
X1251405Y513341D01*
X1251314Y513427D01*
X1251225Y513517D01*
X1251140Y513608D01*
X1251057Y513703D01*
X1250978Y513800D01*
X1250901Y513899D01*
X1250828Y514001D01*
X1250757Y514105D01*
X1250690Y514211D01*
X1250627Y514320D01*
X1250567Y514430D01*
X1250510Y514542D01*
X1250457Y514655D01*
X1250407Y514771D01*
X1250361Y514887D01*
X1250319Y515006D01*
X1250280Y515125D01*
X1250245Y515245D01*
X1250214Y515367D01*
X1250186Y515490D01*
X1250163Y515613D01*
X1250143Y515737D01*
X1250128Y515861D01*
X1250116Y515986D01*
X1250108Y516112D01*
X1250104Y516237D01*
X1250103Y516363D01*
X1250104Y516363D02*
X1250115Y516787D01*
X1250136Y517210D01*
X1250168Y517632D01*
X1250209Y518054D01*
X1250261Y518475D01*
X1250323Y518894D01*
X1250395Y519312D01*
X1250477Y519728D01*
X1250569Y520141D01*
X1250671Y520553D01*
X1250783Y520962D01*
X1250904Y521368D01*
X1251035Y521771D01*
X1251176Y522170D01*
X1251327Y522567D01*
X1251487Y522959D01*
X1251656Y523348D01*
X1260969Y522572D02*
X1261017Y522688D01*
X1261069Y522802D01*
X1261125Y522914D01*
X1261184Y523025D01*
X1261246Y523134D01*
X1261312Y523241D01*
X1261381Y523346D01*
X1261454Y523448D01*
X1261529Y523548D01*
X1261608Y523646D01*
X1261689Y523742D01*
X1261774Y523834D01*
X1261861Y523925D01*
X1261951Y524012D01*
X1262044Y524096D01*
X1262140Y524178D01*
X1262238Y524256D01*
X1262338Y524332D01*
X1262441Y524404D01*
X1262545Y524473D01*
X1262652Y524539D01*
X1262761Y524601D01*
X1262872Y524660D01*
X1262985Y524715D01*
X1263099Y524767D01*
X1263215Y524816D01*
X1263332Y524860D01*
X1263451Y524901D01*
X1263571Y524939D01*
X1263692Y524972D01*
X1263814Y525002D01*
X1263936Y525028D01*
X1264060Y525050D01*
X1264184Y525068D01*
X1264309Y525082D01*
X1264434Y525093D01*
X1264559Y525099D01*
X1264685Y525102D01*
X1264810Y525101D01*
X1264936Y525095D01*
X1265061Y525086D01*
X1265186Y525073D01*
X1265310Y525056D01*
X1265434Y525036D01*
X1265557Y525011D01*
X1265679Y524983D01*
X1265800Y524950D01*
X1265921Y524914D01*
X1266040Y524875D01*
X1266157Y524831D01*
X1266274Y524784D01*
X1266389Y524733D01*
X1266502Y524679D01*
X1266613Y524621D01*
X1266723Y524560D01*
X1266830Y524496D01*
X1266936Y524428D01*
X1267039Y524357D01*
X1267140Y524282D01*
X1267239Y524205D01*
X1267336Y524124D01*
X1267429Y524041D01*
X1267520Y523955D01*
X1267609Y523865D01*
X1267694Y523774D01*
X1267777Y523679D01*
X1267856Y523582D01*
X1267933Y523483D01*
X1268006Y523381D01*
X1268077Y523277D01*
X1268144Y523171D01*
X1268207Y523062D01*
X1268267Y522952D01*
X1268324Y522840D01*
X1268377Y522727D01*
X1268427Y522611D01*
X1268473Y522495D01*
X1268515Y522376D01*
X1268554Y522257D01*
X1268589Y522137D01*
X1268620Y522015D01*
X1268648Y521892D01*
X1268671Y521769D01*
X1268691Y521645D01*
X1268706Y521521D01*
X1268718Y521396D01*
X1268726Y521270D01*
X1268730Y521145D01*
X1268731Y521019D01*
X1268730Y521019D02*
X1268714Y520396D01*
X1268683Y519775D01*
X1268637Y519154D01*
X1268577Y518534D01*
X1268502Y517916D01*
X1268413Y517300D01*
X1268308Y516686D01*
X1268190Y516075D01*
X1268057Y515466D01*
X1267909Y514861D01*
X1267748Y514260D01*
X1267572Y513663D01*
X1267382Y513070D01*
X1267178Y512482D01*
X1268730Y545973D02*
X1268730Y555286D01*
X1268728Y555441D01*
X1268722Y555595D01*
X1268713Y555750D01*
X1268699Y555904D01*
X1268682Y556058D01*
X1268661Y556211D01*
X1268636Y556364D01*
X1268607Y556516D01*
X1268574Y556668D01*
X1268538Y556818D01*
X1268498Y556968D01*
X1268454Y557116D01*
X1268407Y557263D01*
X1268356Y557410D01*
X1268301Y557554D01*
X1268242Y557698D01*
X1268181Y557840D01*
X1268115Y557980D01*
X1268046Y558119D01*
X1267974Y558255D01*
X1267898Y558391D01*
X1267819Y558524D01*
X1267737Y558655D01*
X1267651Y558784D01*
X1267562Y558910D01*
X1267470Y559035D01*
X1267375Y559157D01*
X1267277Y559277D01*
X1267176Y559394D01*
X1267073Y559509D01*
X1266966Y559621D01*
X1266856Y559731D01*
X1266744Y559838D01*
X1266629Y559941D01*
X1266512Y560042D01*
X1266392Y560140D01*
X1266270Y560235D01*
X1266145Y560327D01*
X1266019Y560416D01*
X1265890Y560502D01*
X1265759Y560584D01*
X1265626Y560663D01*
X1265490Y560739D01*
X1265354Y560811D01*
X1265215Y560880D01*
X1265075Y560946D01*
X1264933Y561007D01*
X1264789Y561066D01*
X1264645Y561121D01*
X1264498Y561172D01*
X1264351Y561219D01*
X1264203Y561263D01*
X1264053Y561303D01*
X1263903Y561339D01*
X1263751Y561372D01*
X1263599Y561401D01*
X1263446Y561426D01*
X1263293Y561447D01*
X1263139Y561464D01*
X1262985Y561478D01*
X1262830Y561487D01*
X1262676Y561493D01*
X1262521Y561495D01*
X1259417Y561495D01*
X1259260Y561493D01*
X1259103Y561487D01*
X1258946Y561477D01*
X1258789Y561463D01*
X1258633Y561445D01*
X1258477Y561423D01*
X1258322Y561398D01*
X1258167Y561368D01*
X1258013Y561334D01*
X1257861Y561297D01*
X1257709Y561255D01*
X1257558Y561210D01*
X1257409Y561161D01*
X1257261Y561109D01*
X1257114Y561052D01*
X1256968Y560992D01*
X1256825Y560928D01*
X1256683Y560860D01*
X1256542Y560789D01*
X1256404Y560715D01*
X1256267Y560637D01*
X1256133Y560555D01*
X1256000Y560470D01*
X1255870Y560382D01*
X1255742Y560291D01*
X1255616Y560196D01*
X1255493Y560098D01*
X1255373Y559997D01*
X1255255Y559893D01*
X1255139Y559786D01*
X1255027Y559676D01*
X1254917Y559564D01*
X1254810Y559448D01*
X1254706Y559330D01*
X1254605Y559210D01*
X1254507Y559087D01*
X1254412Y558961D01*
X1254321Y558833D01*
X1254233Y558703D01*
X1254148Y558570D01*
X1254066Y558436D01*
X1253988Y558299D01*
X1253914Y558161D01*
X1253843Y558020D01*
X1253775Y557878D01*
X1253711Y557735D01*
X1253651Y557589D01*
X1253595Y557442D01*
X1253542Y557294D01*
X1253493Y557145D01*
X1253448Y556994D01*
X1253406Y556842D01*
X1253369Y556690D01*
X1253335Y556536D01*
X1253305Y556381D01*
X1253280Y556226D01*
X1253258Y556070D01*
X1253240Y555914D01*
X1253226Y555757D01*
X1253216Y555601D01*
X1253210Y555443D01*
X1253208Y555286D01*
X1253208Y545973D01*
X1240790Y545973D01*
X1240790Y561495D01*
X1244671Y569765D02*
X1249327Y569765D01*
X1244671Y569764D02*
X1244548Y569766D01*
X1244425Y569772D01*
X1244302Y569782D01*
X1244180Y569795D01*
X1244058Y569813D01*
X1243937Y569834D01*
X1243816Y569859D01*
X1243696Y569888D01*
X1243578Y569921D01*
X1243460Y569958D01*
X1243344Y569998D01*
X1243229Y570042D01*
X1243115Y570090D01*
X1243003Y570141D01*
X1242893Y570195D01*
X1242784Y570254D01*
X1242677Y570315D01*
X1242573Y570380D01*
X1242470Y570448D01*
X1242370Y570520D01*
X1242272Y570594D01*
X1242176Y570672D01*
X1242083Y570753D01*
X1241993Y570836D01*
X1241905Y570923D01*
X1241820Y571012D01*
X1241738Y571103D01*
X1241659Y571198D01*
X1241583Y571295D01*
X1241510Y571394D01*
X1241440Y571495D01*
X1241373Y571599D01*
X1241310Y571705D01*
X1241250Y571812D01*
X1241194Y571922D01*
X1241141Y572033D01*
X1241091Y572146D01*
X1241046Y572260D01*
X1241003Y572376D01*
X1240965Y572493D01*
X1240930Y572611D01*
X1240899Y572730D01*
X1240872Y572850D01*
X1240849Y572971D01*
X1240830Y573093D01*
X1240814Y573215D01*
X1240802Y573337D01*
X1240794Y573460D01*
X1240790Y573583D01*
X1240790Y573707D01*
X1240794Y573830D01*
X1240802Y573953D01*
X1240814Y574075D01*
X1240830Y574197D01*
X1240849Y574319D01*
X1240872Y574440D01*
X1240899Y574560D01*
X1240930Y574679D01*
X1240965Y574797D01*
X1241003Y574914D01*
X1241046Y575030D01*
X1241091Y575144D01*
X1241141Y575257D01*
X1241194Y575368D01*
X1241250Y575478D01*
X1241310Y575586D01*
X1241373Y575691D01*
X1241440Y575795D01*
X1241510Y575896D01*
X1241583Y575995D01*
X1241659Y576092D01*
X1241738Y576187D01*
X1241820Y576278D01*
X1241905Y576367D01*
X1241993Y576454D01*
X1242083Y576537D01*
X1242176Y576618D01*
X1242272Y576696D01*
X1242370Y576770D01*
X1242470Y576842D01*
X1242573Y576910D01*
X1242677Y576975D01*
X1242784Y577036D01*
X1242893Y577095D01*
X1243003Y577149D01*
X1243115Y577200D01*
X1243229Y577248D01*
X1243344Y577292D01*
X1243460Y577332D01*
X1243578Y577369D01*
X1243696Y577402D01*
X1243816Y577431D01*
X1243937Y577456D01*
X1244058Y577477D01*
X1244180Y577495D01*
X1244302Y577508D01*
X1244425Y577518D01*
X1244548Y577524D01*
X1244671Y577526D01*
X1249327Y577526D01*
X1249450Y577524D01*
X1249573Y577518D01*
X1249696Y577508D01*
X1249818Y577495D01*
X1249940Y577477D01*
X1250061Y577456D01*
X1250182Y577431D01*
X1250302Y577402D01*
X1250420Y577369D01*
X1250538Y577332D01*
X1250654Y577292D01*
X1250769Y577248D01*
X1250883Y577200D01*
X1250995Y577149D01*
X1251105Y577095D01*
X1251214Y577036D01*
X1251321Y576975D01*
X1251425Y576910D01*
X1251528Y576842D01*
X1251628Y576770D01*
X1251726Y576696D01*
X1251822Y576618D01*
X1251915Y576537D01*
X1252005Y576454D01*
X1252093Y576367D01*
X1252178Y576278D01*
X1252260Y576187D01*
X1252339Y576092D01*
X1252415Y575995D01*
X1252488Y575896D01*
X1252558Y575795D01*
X1252625Y575691D01*
X1252688Y575586D01*
X1252748Y575478D01*
X1252804Y575368D01*
X1252857Y575257D01*
X1252907Y575144D01*
X1252952Y575030D01*
X1252995Y574914D01*
X1253033Y574797D01*
X1253068Y574679D01*
X1253099Y574560D01*
X1253126Y574440D01*
X1253149Y574319D01*
X1253168Y574197D01*
X1253184Y574075D01*
X1253196Y573953D01*
X1253204Y573830D01*
X1253208Y573707D01*
X1253208Y573583D01*
X1253204Y573460D01*
X1253196Y573337D01*
X1253184Y573215D01*
X1253168Y573093D01*
X1253149Y572971D01*
X1253126Y572850D01*
X1253099Y572730D01*
X1253068Y572611D01*
X1253033Y572493D01*
X1252995Y572376D01*
X1252952Y572260D01*
X1252907Y572146D01*
X1252857Y572033D01*
X1252804Y571922D01*
X1252748Y571812D01*
X1252688Y571705D01*
X1252625Y571599D01*
X1252558Y571495D01*
X1252488Y571394D01*
X1252415Y571295D01*
X1252339Y571198D01*
X1252260Y571103D01*
X1252178Y571012D01*
X1252093Y570923D01*
X1252005Y570836D01*
X1251915Y570753D01*
X1251822Y570672D01*
X1251726Y570594D01*
X1251628Y570520D01*
X1251528Y570448D01*
X1251425Y570380D01*
X1251321Y570315D01*
X1251214Y570254D01*
X1251105Y570195D01*
X1250995Y570141D01*
X1250883Y570090D01*
X1250769Y570042D01*
X1250654Y569998D01*
X1250538Y569958D01*
X1250420Y569921D01*
X1250302Y569888D01*
X1250182Y569859D01*
X1250061Y569834D01*
X1249940Y569813D01*
X1249818Y569795D01*
X1249696Y569782D01*
X1249573Y569772D01*
X1249450Y569766D01*
X1249327Y569764D01*
X1259417Y569765D02*
X1259417Y577526D01*
X1268730Y598538D02*
X1268730Y606299D01*
X1268728Y606488D01*
X1268721Y606677D01*
X1268709Y606866D01*
X1268693Y607054D01*
X1268673Y607242D01*
X1268647Y607429D01*
X1268618Y607616D01*
X1268583Y607802D01*
X1268544Y607986D01*
X1268501Y608170D01*
X1268453Y608353D01*
X1268401Y608535D01*
X1268344Y608715D01*
X1268283Y608894D01*
X1268218Y609071D01*
X1268148Y609247D01*
X1268074Y609421D01*
X1267996Y609593D01*
X1267914Y609763D01*
X1267827Y609931D01*
X1267737Y610097D01*
X1267642Y610261D01*
X1267544Y610422D01*
X1267442Y610581D01*
X1267335Y610738D01*
X1267225Y610891D01*
X1267112Y611042D01*
X1266994Y611190D01*
X1266874Y611336D01*
X1266749Y611478D01*
X1266621Y611617D01*
X1266490Y611753D01*
X1266356Y611886D01*
X1266218Y612016D01*
X1266077Y612142D01*
X1265934Y612264D01*
X1265787Y612384D01*
X1265637Y612499D01*
X1265485Y612611D01*
X1265330Y612719D01*
X1265172Y612823D01*
X1265012Y612924D01*
X1264850Y613020D01*
X1264685Y613113D01*
X1264518Y613201D01*
X1264349Y613286D01*
X1264177Y613366D01*
X1264004Y613442D01*
X1263830Y613514D01*
X1263653Y613581D01*
X1263475Y613644D01*
X1263295Y613703D01*
X1263114Y613758D01*
X1262932Y613808D01*
X1262749Y613853D01*
X1262564Y613894D01*
X1262379Y613931D01*
X1262192Y613963D01*
X1262005Y613990D01*
X1261818Y614013D01*
X1261630Y614032D01*
X1261441Y614046D01*
X1261252Y614055D01*
X1261064Y614059D01*
X1260874Y614059D01*
X1260686Y614055D01*
X1260497Y614046D01*
X1260308Y614032D01*
X1260120Y614013D01*
X1259933Y613990D01*
X1259746Y613963D01*
X1259559Y613931D01*
X1259374Y613894D01*
X1259189Y613853D01*
X1259006Y613808D01*
X1258824Y613758D01*
X1258643Y613703D01*
X1258463Y613644D01*
X1258285Y613581D01*
X1258108Y613514D01*
X1257934Y613442D01*
X1257761Y613366D01*
X1257589Y613286D01*
X1257420Y613201D01*
X1257253Y613113D01*
X1257089Y613020D01*
X1256926Y612924D01*
X1256766Y612823D01*
X1256608Y612719D01*
X1256453Y612611D01*
X1256301Y612499D01*
X1256151Y612384D01*
X1256004Y612264D01*
X1255861Y612142D01*
X1255720Y612016D01*
X1255582Y611886D01*
X1255448Y611753D01*
X1255317Y611617D01*
X1255189Y611478D01*
X1255064Y611336D01*
X1254944Y611190D01*
X1254826Y611042D01*
X1254713Y610891D01*
X1254603Y610738D01*
X1254496Y610581D01*
X1254394Y610422D01*
X1254296Y610261D01*
X1254201Y610097D01*
X1254111Y609931D01*
X1254024Y609763D01*
X1253942Y609593D01*
X1253864Y609421D01*
X1253790Y609247D01*
X1253720Y609071D01*
X1253655Y608894D01*
X1253594Y608715D01*
X1253537Y608535D01*
X1253485Y608353D01*
X1253437Y608170D01*
X1253394Y607986D01*
X1253355Y607802D01*
X1253320Y607616D01*
X1253291Y607429D01*
X1253265Y607242D01*
X1253245Y607054D01*
X1253229Y606866D01*
X1253217Y606677D01*
X1253210Y606488D01*
X1253208Y606299D01*
X1240790Y607851D02*
X1240790Y598538D01*
X1240790Y607851D02*
X1240792Y608007D01*
X1240798Y608163D01*
X1240808Y608319D01*
X1240821Y608474D01*
X1240839Y608629D01*
X1240860Y608784D01*
X1240886Y608938D01*
X1240915Y609091D01*
X1240948Y609243D01*
X1240985Y609395D01*
X1241026Y609546D01*
X1241070Y609695D01*
X1241118Y609844D01*
X1241170Y609991D01*
X1241226Y610137D01*
X1241285Y610281D01*
X1241348Y610424D01*
X1241415Y610565D01*
X1241485Y610705D01*
X1241558Y610842D01*
X1241635Y610978D01*
X1241715Y611112D01*
X1241799Y611244D01*
X1241886Y611373D01*
X1241976Y611501D01*
X1242069Y611626D01*
X1242166Y611748D01*
X1242265Y611869D01*
X1242367Y611986D01*
X1242473Y612101D01*
X1242581Y612214D01*
X1242692Y612323D01*
X1242806Y612430D01*
X1242922Y612534D01*
X1243041Y612635D01*
X1243163Y612733D01*
X1243287Y612828D01*
X1243413Y612920D01*
X1243541Y613008D01*
X1243672Y613093D01*
X1243805Y613175D01*
X1243940Y613254D01*
X1244076Y613329D01*
X1244215Y613401D01*
X1244355Y613469D01*
X1244497Y613534D01*
X1244641Y613595D01*
X1244786Y613652D01*
X1244933Y613706D01*
X1245080Y613756D01*
X1245229Y613802D01*
X1245379Y613845D01*
X1245531Y613884D01*
X1245683Y613919D01*
X1245836Y613950D01*
X1245989Y613977D01*
X1246143Y614001D01*
X1246298Y614020D01*
X1246454Y614036D01*
X1246609Y614048D01*
X1246765Y614056D01*
X1246921Y614060D01*
X1247077Y614060D01*
X1247233Y614056D01*
X1247389Y614048D01*
X1247544Y614036D01*
X1247700Y614020D01*
X1247855Y614001D01*
X1248009Y613977D01*
X1248162Y613950D01*
X1248315Y613919D01*
X1248467Y613884D01*
X1248619Y613845D01*
X1248769Y613802D01*
X1248918Y613756D01*
X1249065Y613706D01*
X1249212Y613652D01*
X1249357Y613595D01*
X1249501Y613534D01*
X1249643Y613469D01*
X1249783Y613401D01*
X1249922Y613329D01*
X1250058Y613254D01*
X1250193Y613175D01*
X1250326Y613093D01*
X1250457Y613008D01*
X1250585Y612920D01*
X1250711Y612828D01*
X1250835Y612733D01*
X1250957Y612635D01*
X1251076Y612534D01*
X1251192Y612430D01*
X1251306Y612323D01*
X1251417Y612214D01*
X1251525Y612101D01*
X1251631Y611986D01*
X1251733Y611869D01*
X1251832Y611748D01*
X1251929Y611626D01*
X1252022Y611501D01*
X1252112Y611373D01*
X1252199Y611244D01*
X1252283Y611112D01*
X1252363Y610978D01*
X1252440Y610842D01*
X1252513Y610705D01*
X1252583Y610565D01*
X1252650Y610424D01*
X1252713Y610281D01*
X1252772Y610137D01*
X1252828Y609991D01*
X1252880Y609844D01*
X1252928Y609695D01*
X1252972Y609546D01*
X1253013Y609395D01*
X1253050Y609243D01*
X1253083Y609091D01*
X1253112Y608938D01*
X1253138Y608784D01*
X1253159Y608629D01*
X1253177Y608474D01*
X1253190Y608319D01*
X1253200Y608163D01*
X1253206Y608007D01*
X1253208Y607851D01*
X1253208Y601643D01*
X1246999Y624618D02*
X1246999Y629275D01*
X1246999Y624618D02*
X1247001Y624507D01*
X1247007Y624397D01*
X1247017Y624286D01*
X1247031Y624176D01*
X1247048Y624067D01*
X1247070Y623958D01*
X1247095Y623850D01*
X1247125Y623744D01*
X1247158Y623638D01*
X1247195Y623533D01*
X1247235Y623430D01*
X1247280Y623329D01*
X1247327Y623229D01*
X1247379Y623130D01*
X1247434Y623034D01*
X1247492Y622940D01*
X1247553Y622848D01*
X1247618Y622758D01*
X1247686Y622670D01*
X1247757Y622585D01*
X1247831Y622503D01*
X1247908Y622423D01*
X1247988Y622346D01*
X1248070Y622272D01*
X1248155Y622201D01*
X1248243Y622133D01*
X1248333Y622068D01*
X1248425Y622007D01*
X1248519Y621949D01*
X1248615Y621894D01*
X1248714Y621842D01*
X1248814Y621795D01*
X1248915Y621750D01*
X1249018Y621710D01*
X1249123Y621673D01*
X1249229Y621640D01*
X1249335Y621610D01*
X1249443Y621585D01*
X1249552Y621563D01*
X1249661Y621546D01*
X1249771Y621532D01*
X1249882Y621522D01*
X1249992Y621516D01*
X1250103Y621514D01*
X1250214Y621516D01*
X1250324Y621522D01*
X1250435Y621532D01*
X1250545Y621546D01*
X1250654Y621563D01*
X1250763Y621585D01*
X1250871Y621610D01*
X1250977Y621640D01*
X1251083Y621673D01*
X1251188Y621710D01*
X1251291Y621750D01*
X1251392Y621795D01*
X1251492Y621842D01*
X1251591Y621894D01*
X1251687Y621949D01*
X1251781Y622007D01*
X1251873Y622068D01*
X1251963Y622133D01*
X1252051Y622201D01*
X1252136Y622272D01*
X1252218Y622346D01*
X1252298Y622423D01*
X1252375Y622503D01*
X1252449Y622585D01*
X1252520Y622670D01*
X1252588Y622758D01*
X1252653Y622848D01*
X1252714Y622940D01*
X1252772Y623034D01*
X1252827Y623130D01*
X1252879Y623229D01*
X1252926Y623329D01*
X1252971Y623430D01*
X1253011Y623533D01*
X1253048Y623638D01*
X1253081Y623744D01*
X1253111Y623850D01*
X1253136Y623958D01*
X1253158Y624067D01*
X1253175Y624176D01*
X1253189Y624286D01*
X1253199Y624397D01*
X1253205Y624507D01*
X1253207Y624618D01*
X1253208Y624618D02*
X1253208Y629275D01*
X1243894Y629275D01*
X1243783Y629273D01*
X1243672Y629267D01*
X1243562Y629257D01*
X1243452Y629243D01*
X1243343Y629226D01*
X1243234Y629204D01*
X1243126Y629179D01*
X1243019Y629149D01*
X1242913Y629116D01*
X1242809Y629079D01*
X1242706Y629039D01*
X1242604Y628994D01*
X1242504Y628947D01*
X1242406Y628895D01*
X1242310Y628840D01*
X1242215Y628782D01*
X1242123Y628721D01*
X1242033Y628656D01*
X1241946Y628588D01*
X1241861Y628517D01*
X1241778Y628443D01*
X1241698Y628366D01*
X1241621Y628286D01*
X1241547Y628203D01*
X1241476Y628118D01*
X1241408Y628031D01*
X1241344Y627941D01*
X1241282Y627849D01*
X1241224Y627754D01*
X1241169Y627658D01*
X1241117Y627560D01*
X1241070Y627460D01*
X1241025Y627358D01*
X1240985Y627255D01*
X1240948Y627151D01*
X1240915Y627045D01*
X1240885Y626938D01*
X1240860Y626830D01*
X1240838Y626721D01*
X1240821Y626612D01*
X1240807Y626502D01*
X1240797Y626392D01*
X1240791Y626281D01*
X1240789Y626170D01*
X1240790Y626170D02*
X1240790Y622290D01*
X1259417Y621514D02*
X1259417Y629275D01*
X308610Y348625D02*
X280670Y348625D01*
X296192Y357939D01*
X280670Y367252D01*
X308610Y367252D01*
X297744Y381830D02*
X297744Y388815D01*
X297744Y381830D02*
X297746Y381684D01*
X297752Y381538D01*
X297762Y381393D01*
X297775Y381248D01*
X297793Y381103D01*
X297814Y380958D01*
X297840Y380815D01*
X297869Y380672D01*
X297902Y380530D01*
X297939Y380389D01*
X297979Y380249D01*
X298024Y380110D01*
X298072Y379972D01*
X298123Y379835D01*
X298179Y379700D01*
X298238Y379567D01*
X298300Y379435D01*
X298366Y379305D01*
X298436Y379177D01*
X298509Y379051D01*
X298585Y378926D01*
X298665Y378804D01*
X298748Y378684D01*
X298834Y378566D01*
X298923Y378451D01*
X299015Y378338D01*
X299110Y378227D01*
X299209Y378119D01*
X299310Y378014D01*
X299413Y377912D01*
X299520Y377812D01*
X299629Y377715D01*
X299741Y377622D01*
X299855Y377531D01*
X299972Y377443D01*
X300091Y377359D01*
X300212Y377277D01*
X300335Y377200D01*
X300461Y377125D01*
X300588Y377054D01*
X300717Y376986D01*
X300848Y376922D01*
X300981Y376861D01*
X301115Y376804D01*
X301250Y376750D01*
X301388Y376700D01*
X301526Y376654D01*
X301665Y376612D01*
X301806Y376573D01*
X301948Y376538D01*
X302090Y376507D01*
X302234Y376480D01*
X302378Y376456D01*
X302522Y376437D01*
X302667Y376421D01*
X302813Y376409D01*
X302958Y376401D01*
X303104Y376397D01*
X303250Y376397D01*
X303396Y376401D01*
X303541Y376409D01*
X303687Y376421D01*
X303832Y376437D01*
X303976Y376456D01*
X304120Y376480D01*
X304264Y376507D01*
X304406Y376538D01*
X304548Y376573D01*
X304689Y376612D01*
X304828Y376654D01*
X304966Y376700D01*
X305104Y376750D01*
X305239Y376804D01*
X305373Y376861D01*
X305506Y376922D01*
X305637Y376986D01*
X305766Y377054D01*
X305894Y377125D01*
X306019Y377200D01*
X306142Y377277D01*
X306263Y377359D01*
X306382Y377443D01*
X306499Y377531D01*
X306613Y377622D01*
X306725Y377715D01*
X306834Y377812D01*
X306941Y377912D01*
X307044Y378014D01*
X307145Y378119D01*
X307244Y378227D01*
X307339Y378338D01*
X307431Y378451D01*
X307520Y378566D01*
X307606Y378684D01*
X307689Y378804D01*
X307769Y378926D01*
X307845Y379051D01*
X307918Y379177D01*
X307988Y379305D01*
X308054Y379435D01*
X308116Y379567D01*
X308175Y379700D01*
X308231Y379835D01*
X308282Y379972D01*
X308330Y380110D01*
X308375Y380249D01*
X308415Y380389D01*
X308452Y380530D01*
X308485Y380672D01*
X308514Y380815D01*
X308540Y380958D01*
X308561Y381103D01*
X308579Y381248D01*
X308592Y381393D01*
X308602Y381538D01*
X308608Y381684D01*
X308610Y381830D01*
X308610Y388815D01*
X294640Y388815D01*
X294505Y388813D01*
X294369Y388807D01*
X294234Y388797D01*
X294099Y388784D01*
X293965Y388766D01*
X293831Y388744D01*
X293698Y388719D01*
X293566Y388689D01*
X293435Y388656D01*
X293304Y388619D01*
X293175Y388579D01*
X293047Y388534D01*
X292921Y388486D01*
X292795Y388434D01*
X292672Y388379D01*
X292550Y388320D01*
X292430Y388257D01*
X292312Y388191D01*
X292195Y388122D01*
X292081Y388049D01*
X291969Y387973D01*
X291859Y387893D01*
X291752Y387811D01*
X291647Y387725D01*
X291544Y387637D01*
X291444Y387545D01*
X291347Y387451D01*
X291253Y387354D01*
X291161Y387254D01*
X291073Y387151D01*
X290987Y387046D01*
X290905Y386939D01*
X290825Y386829D01*
X290749Y386717D01*
X290676Y386603D01*
X290607Y386487D01*
X290541Y386368D01*
X290478Y386248D01*
X290419Y386126D01*
X290364Y386003D01*
X290312Y385877D01*
X290264Y385751D01*
X290219Y385623D01*
X290179Y385494D01*
X290142Y385363D01*
X290109Y385232D01*
X290079Y385100D01*
X290054Y384967D01*
X290032Y384833D01*
X290014Y384699D01*
X290001Y384564D01*
X289991Y384429D01*
X289985Y384293D01*
X289983Y384158D01*
X289983Y377949D01*
X289983Y398557D02*
X308610Y398557D01*
X282222Y397781D02*
X280670Y397781D01*
X280670Y399333D01*
X282222Y399333D01*
X282222Y397781D01*
X289983Y408277D02*
X308610Y408277D01*
X289983Y408277D02*
X289983Y416038D01*
X289985Y416173D01*
X289991Y416309D01*
X290001Y416444D01*
X290014Y416579D01*
X290032Y416713D01*
X290054Y416847D01*
X290079Y416980D01*
X290109Y417112D01*
X290142Y417243D01*
X290179Y417374D01*
X290219Y417503D01*
X290264Y417631D01*
X290312Y417757D01*
X290364Y417883D01*
X290419Y418006D01*
X290478Y418128D01*
X290541Y418248D01*
X290607Y418367D01*
X290676Y418483D01*
X290749Y418597D01*
X290825Y418709D01*
X290905Y418819D01*
X290987Y418926D01*
X291073Y419031D01*
X291161Y419134D01*
X291253Y419234D01*
X291347Y419331D01*
X291444Y419425D01*
X291544Y419517D01*
X291647Y419605D01*
X291752Y419691D01*
X291859Y419773D01*
X291969Y419853D01*
X292081Y419929D01*
X292195Y420002D01*
X292312Y420071D01*
X292430Y420137D01*
X292550Y420200D01*
X292672Y420259D01*
X292795Y420314D01*
X292921Y420366D01*
X293047Y420414D01*
X293175Y420459D01*
X293304Y420499D01*
X293435Y420536D01*
X293566Y420569D01*
X293698Y420599D01*
X293831Y420624D01*
X293965Y420646D01*
X294099Y420664D01*
X294234Y420677D01*
X294369Y420687D01*
X294505Y420693D01*
X294640Y420695D01*
X308610Y420695D01*
X308610Y434438D02*
X308610Y442199D01*
X308610Y434438D02*
X308608Y434303D01*
X308602Y434167D01*
X308592Y434032D01*
X308579Y433897D01*
X308561Y433763D01*
X308539Y433629D01*
X308514Y433496D01*
X308484Y433364D01*
X308451Y433233D01*
X308414Y433102D01*
X308374Y432973D01*
X308329Y432845D01*
X308281Y432719D01*
X308229Y432593D01*
X308174Y432470D01*
X308115Y432348D01*
X308052Y432228D01*
X307986Y432110D01*
X307917Y431993D01*
X307844Y431879D01*
X307768Y431767D01*
X307688Y431657D01*
X307606Y431550D01*
X307520Y431445D01*
X307432Y431342D01*
X307340Y431242D01*
X307246Y431145D01*
X307149Y431051D01*
X307049Y430959D01*
X306946Y430871D01*
X306841Y430785D01*
X306734Y430703D01*
X306624Y430623D01*
X306512Y430547D01*
X306398Y430474D01*
X306282Y430405D01*
X306163Y430339D01*
X306043Y430276D01*
X305921Y430217D01*
X305798Y430162D01*
X305672Y430110D01*
X305546Y430062D01*
X305418Y430017D01*
X305289Y429977D01*
X305158Y429940D01*
X305027Y429907D01*
X304895Y429877D01*
X304762Y429852D01*
X304628Y429830D01*
X304494Y429812D01*
X304359Y429799D01*
X304224Y429789D01*
X304088Y429783D01*
X303953Y429781D01*
X296192Y429781D01*
X296036Y429783D01*
X295880Y429789D01*
X295724Y429799D01*
X295569Y429812D01*
X295414Y429830D01*
X295259Y429851D01*
X295105Y429877D01*
X294952Y429906D01*
X294800Y429939D01*
X294648Y429976D01*
X294497Y430017D01*
X294348Y430061D01*
X294199Y430109D01*
X294052Y430161D01*
X293906Y430217D01*
X293762Y430276D01*
X293619Y430339D01*
X293478Y430406D01*
X293338Y430476D01*
X293201Y430549D01*
X293065Y430626D01*
X292931Y430706D01*
X292799Y430790D01*
X292670Y430877D01*
X292542Y430967D01*
X292417Y431060D01*
X292295Y431157D01*
X292174Y431256D01*
X292057Y431358D01*
X291942Y431464D01*
X291829Y431572D01*
X291720Y431683D01*
X291613Y431797D01*
X291509Y431913D01*
X291408Y432032D01*
X291310Y432154D01*
X291215Y432278D01*
X291123Y432404D01*
X291035Y432532D01*
X290950Y432663D01*
X290868Y432796D01*
X290789Y432931D01*
X290714Y433067D01*
X290642Y433206D01*
X290574Y433346D01*
X290509Y433488D01*
X290448Y433632D01*
X290391Y433777D01*
X290337Y433924D01*
X290287Y434071D01*
X290241Y434220D01*
X290198Y434370D01*
X290159Y434522D01*
X290124Y434674D01*
X290093Y434827D01*
X290066Y434980D01*
X290042Y435134D01*
X290023Y435289D01*
X290007Y435445D01*
X289995Y435600D01*
X289987Y435756D01*
X289983Y435912D01*
X289983Y436068D01*
X289987Y436224D01*
X289995Y436380D01*
X290007Y436535D01*
X290023Y436691D01*
X290042Y436846D01*
X290066Y437000D01*
X290093Y437153D01*
X290124Y437306D01*
X290159Y437458D01*
X290198Y437610D01*
X290241Y437760D01*
X290287Y437909D01*
X290337Y438056D01*
X290391Y438203D01*
X290448Y438348D01*
X290509Y438492D01*
X290574Y438634D01*
X290642Y438774D01*
X290714Y438913D01*
X290789Y439049D01*
X290868Y439184D01*
X290950Y439317D01*
X291035Y439448D01*
X291123Y439576D01*
X291215Y439702D01*
X291310Y439826D01*
X291408Y439948D01*
X291509Y440067D01*
X291613Y440183D01*
X291720Y440297D01*
X291829Y440408D01*
X291942Y440516D01*
X292057Y440622D01*
X292174Y440724D01*
X292295Y440823D01*
X292417Y440920D01*
X292542Y441013D01*
X292670Y441103D01*
X292799Y441190D01*
X292931Y441274D01*
X293065Y441354D01*
X293201Y441431D01*
X293338Y441504D01*
X293478Y441574D01*
X293619Y441641D01*
X293762Y441704D01*
X293906Y441763D01*
X294052Y441819D01*
X294199Y441871D01*
X294348Y441919D01*
X294497Y441963D01*
X294648Y442004D01*
X294800Y442041D01*
X294952Y442074D01*
X295105Y442103D01*
X295259Y442129D01*
X295414Y442150D01*
X295569Y442168D01*
X295724Y442181D01*
X295880Y442191D01*
X296036Y442197D01*
X296192Y442199D01*
X299297Y442199D01*
X299297Y429781D01*
X308610Y451285D02*
X289983Y451285D01*
X289983Y459046D01*
X289985Y459181D01*
X289991Y459317D01*
X290001Y459452D01*
X290014Y459587D01*
X290032Y459721D01*
X290054Y459855D01*
X290079Y459988D01*
X290109Y460120D01*
X290142Y460251D01*
X290179Y460382D01*
X290219Y460511D01*
X290264Y460639D01*
X290312Y460765D01*
X290364Y460891D01*
X290419Y461014D01*
X290478Y461136D01*
X290541Y461256D01*
X290607Y461375D01*
X290676Y461491D01*
X290749Y461605D01*
X290825Y461717D01*
X290905Y461827D01*
X290987Y461934D01*
X291073Y462039D01*
X291161Y462142D01*
X291253Y462242D01*
X291347Y462339D01*
X291444Y462433D01*
X291544Y462525D01*
X291647Y462613D01*
X291752Y462699D01*
X291859Y462781D01*
X291969Y462861D01*
X292081Y462937D01*
X292195Y463010D01*
X292312Y463079D01*
X292430Y463145D01*
X292550Y463208D01*
X292672Y463267D01*
X292795Y463322D01*
X292921Y463374D01*
X293047Y463422D01*
X293175Y463467D01*
X293304Y463507D01*
X293435Y463544D01*
X293566Y463577D01*
X293698Y463607D01*
X293831Y463632D01*
X293965Y463654D01*
X294099Y463672D01*
X294234Y463685D01*
X294369Y463695D01*
X294505Y463701D01*
X294640Y463703D01*
X308610Y463703D01*
X289983Y471117D02*
X289983Y480430D01*
X280670Y474221D02*
X303953Y474221D01*
X304088Y474223D01*
X304224Y474229D01*
X304359Y474239D01*
X304494Y474252D01*
X304628Y474270D01*
X304762Y474292D01*
X304895Y474317D01*
X305027Y474347D01*
X305158Y474380D01*
X305289Y474417D01*
X305418Y474457D01*
X305546Y474502D01*
X305672Y474550D01*
X305798Y474602D01*
X305921Y474657D01*
X306043Y474716D01*
X306163Y474779D01*
X306282Y474845D01*
X306398Y474914D01*
X306512Y474987D01*
X306624Y475063D01*
X306734Y475143D01*
X306841Y475225D01*
X306946Y475311D01*
X307049Y475399D01*
X307149Y475491D01*
X307246Y475585D01*
X307340Y475682D01*
X307432Y475782D01*
X307520Y475885D01*
X307606Y475990D01*
X307688Y476097D01*
X307768Y476207D01*
X307844Y476319D01*
X307917Y476433D01*
X307986Y476550D01*
X308052Y476668D01*
X308115Y476788D01*
X308174Y476910D01*
X308229Y477033D01*
X308281Y477159D01*
X308329Y477285D01*
X308374Y477413D01*
X308414Y477542D01*
X308451Y477673D01*
X308484Y477804D01*
X308514Y477936D01*
X308539Y478069D01*
X308561Y478203D01*
X308579Y478337D01*
X308592Y478472D01*
X308602Y478607D01*
X308608Y478743D01*
X308610Y478878D01*
X308610Y480430D01*
X308610Y488555D02*
X289983Y488555D01*
X282222Y487779D02*
X280670Y487779D01*
X280670Y489331D01*
X282222Y489331D01*
X282222Y487779D01*
X280670Y511058D02*
X308610Y511058D01*
X308610Y526581D02*
X280670Y511058D01*
X280670Y526581D02*
X308610Y526581D01*
X308610Y536341D02*
X289983Y536341D01*
X282222Y535565D02*
X280670Y535565D01*
X280670Y537117D01*
X282222Y537117D01*
X282222Y535565D01*
X308610Y549929D02*
X308610Y556137D01*
X308610Y549929D02*
X308608Y549794D01*
X308602Y549658D01*
X308592Y549523D01*
X308579Y549388D01*
X308561Y549254D01*
X308539Y549120D01*
X308514Y548987D01*
X308484Y548855D01*
X308451Y548724D01*
X308414Y548593D01*
X308374Y548464D01*
X308329Y548336D01*
X308281Y548210D01*
X308229Y548084D01*
X308174Y547961D01*
X308115Y547839D01*
X308052Y547719D01*
X307986Y547601D01*
X307917Y547484D01*
X307844Y547370D01*
X307768Y547258D01*
X307688Y547148D01*
X307606Y547041D01*
X307520Y546936D01*
X307432Y546833D01*
X307340Y546733D01*
X307246Y546636D01*
X307149Y546542D01*
X307049Y546450D01*
X306946Y546362D01*
X306841Y546276D01*
X306734Y546194D01*
X306624Y546114D01*
X306512Y546038D01*
X306398Y545965D01*
X306282Y545896D01*
X306163Y545830D01*
X306043Y545767D01*
X305921Y545708D01*
X305798Y545653D01*
X305672Y545601D01*
X305546Y545553D01*
X305418Y545508D01*
X305289Y545468D01*
X305158Y545431D01*
X305027Y545398D01*
X304895Y545368D01*
X304762Y545343D01*
X304628Y545321D01*
X304494Y545303D01*
X304359Y545290D01*
X304224Y545280D01*
X304088Y545274D01*
X303953Y545272D01*
X294640Y545272D01*
X294505Y545274D01*
X294369Y545280D01*
X294234Y545290D01*
X294099Y545303D01*
X293965Y545321D01*
X293831Y545343D01*
X293698Y545368D01*
X293566Y545398D01*
X293435Y545431D01*
X293304Y545468D01*
X293175Y545508D01*
X293047Y545553D01*
X292921Y545601D01*
X292795Y545653D01*
X292672Y545708D01*
X292550Y545767D01*
X292430Y545830D01*
X292312Y545896D01*
X292195Y545965D01*
X292081Y546038D01*
X291969Y546114D01*
X291859Y546194D01*
X291752Y546276D01*
X291647Y546362D01*
X291544Y546450D01*
X291444Y546542D01*
X291347Y546636D01*
X291253Y546733D01*
X291161Y546833D01*
X291073Y546936D01*
X290987Y547041D01*
X290905Y547148D01*
X290825Y547258D01*
X290749Y547370D01*
X290676Y547484D01*
X290607Y547601D01*
X290541Y547719D01*
X290478Y547839D01*
X290419Y547961D01*
X290364Y548084D01*
X290312Y548210D01*
X290264Y548336D01*
X290219Y548464D01*
X290179Y548593D01*
X290142Y548724D01*
X290109Y548855D01*
X290079Y548987D01*
X290054Y549120D01*
X290032Y549254D01*
X290014Y549388D01*
X290001Y549523D01*
X289991Y549658D01*
X289985Y549794D01*
X289983Y549929D01*
X289983Y556137D01*
X296192Y563583D02*
X302401Y563583D01*
X296192Y563583D02*
X296036Y563585D01*
X295880Y563591D01*
X295724Y563601D01*
X295569Y563614D01*
X295414Y563632D01*
X295259Y563653D01*
X295105Y563679D01*
X294952Y563708D01*
X294800Y563741D01*
X294648Y563778D01*
X294497Y563819D01*
X294348Y563863D01*
X294199Y563911D01*
X294052Y563963D01*
X293906Y564019D01*
X293762Y564078D01*
X293619Y564141D01*
X293478Y564208D01*
X293338Y564278D01*
X293201Y564351D01*
X293065Y564428D01*
X292931Y564508D01*
X292799Y564592D01*
X292670Y564679D01*
X292542Y564769D01*
X292417Y564862D01*
X292295Y564959D01*
X292174Y565058D01*
X292057Y565160D01*
X291942Y565266D01*
X291829Y565374D01*
X291720Y565485D01*
X291613Y565599D01*
X291509Y565715D01*
X291408Y565834D01*
X291310Y565956D01*
X291215Y566080D01*
X291123Y566206D01*
X291035Y566334D01*
X290950Y566465D01*
X290868Y566598D01*
X290789Y566733D01*
X290714Y566869D01*
X290642Y567008D01*
X290574Y567148D01*
X290509Y567290D01*
X290448Y567434D01*
X290391Y567579D01*
X290337Y567726D01*
X290287Y567873D01*
X290241Y568022D01*
X290198Y568172D01*
X290159Y568324D01*
X290124Y568476D01*
X290093Y568629D01*
X290066Y568782D01*
X290042Y568936D01*
X290023Y569091D01*
X290007Y569247D01*
X289995Y569402D01*
X289987Y569558D01*
X289983Y569714D01*
X289983Y569870D01*
X289987Y570026D01*
X289995Y570182D01*
X290007Y570337D01*
X290023Y570493D01*
X290042Y570648D01*
X290066Y570802D01*
X290093Y570955D01*
X290124Y571108D01*
X290159Y571260D01*
X290198Y571412D01*
X290241Y571562D01*
X290287Y571711D01*
X290337Y571858D01*
X290391Y572005D01*
X290448Y572150D01*
X290509Y572294D01*
X290574Y572436D01*
X290642Y572576D01*
X290714Y572715D01*
X290789Y572851D01*
X290868Y572986D01*
X290950Y573119D01*
X291035Y573250D01*
X291123Y573378D01*
X291215Y573504D01*
X291310Y573628D01*
X291408Y573750D01*
X291509Y573869D01*
X291613Y573985D01*
X291720Y574099D01*
X291829Y574210D01*
X291942Y574318D01*
X292057Y574424D01*
X292174Y574526D01*
X292295Y574625D01*
X292417Y574722D01*
X292542Y574815D01*
X292670Y574905D01*
X292799Y574992D01*
X292931Y575076D01*
X293065Y575156D01*
X293201Y575233D01*
X293338Y575306D01*
X293478Y575376D01*
X293619Y575443D01*
X293762Y575506D01*
X293906Y575565D01*
X294052Y575621D01*
X294199Y575673D01*
X294348Y575721D01*
X294497Y575765D01*
X294648Y575806D01*
X294800Y575843D01*
X294952Y575876D01*
X295105Y575905D01*
X295259Y575931D01*
X295414Y575952D01*
X295569Y575970D01*
X295724Y575983D01*
X295880Y575993D01*
X296036Y575999D01*
X296192Y576001D01*
X302401Y576001D01*
X302557Y575999D01*
X302713Y575993D01*
X302869Y575983D01*
X303024Y575970D01*
X303179Y575952D01*
X303334Y575931D01*
X303488Y575905D01*
X303641Y575876D01*
X303793Y575843D01*
X303945Y575806D01*
X304096Y575765D01*
X304245Y575721D01*
X304394Y575673D01*
X304541Y575621D01*
X304687Y575565D01*
X304831Y575506D01*
X304974Y575443D01*
X305115Y575376D01*
X305255Y575306D01*
X305392Y575233D01*
X305528Y575156D01*
X305662Y575076D01*
X305794Y574992D01*
X305923Y574905D01*
X306051Y574815D01*
X306176Y574722D01*
X306298Y574625D01*
X306419Y574526D01*
X306536Y574424D01*
X306651Y574318D01*
X306764Y574210D01*
X306873Y574099D01*
X306980Y573985D01*
X307084Y573869D01*
X307185Y573750D01*
X307283Y573628D01*
X307378Y573504D01*
X307470Y573378D01*
X307558Y573250D01*
X307643Y573119D01*
X307725Y572986D01*
X307804Y572851D01*
X307879Y572715D01*
X307951Y572576D01*
X308019Y572436D01*
X308084Y572294D01*
X308145Y572150D01*
X308202Y572005D01*
X308256Y571858D01*
X308306Y571711D01*
X308352Y571562D01*
X308395Y571412D01*
X308434Y571260D01*
X308469Y571108D01*
X308500Y570955D01*
X308527Y570802D01*
X308551Y570648D01*
X308570Y570493D01*
X308586Y570337D01*
X308598Y570182D01*
X308606Y570026D01*
X308610Y569870D01*
X308610Y569714D01*
X308606Y569558D01*
X308598Y569402D01*
X308586Y569247D01*
X308570Y569091D01*
X308551Y568936D01*
X308527Y568782D01*
X308500Y568629D01*
X308469Y568476D01*
X308434Y568324D01*
X308395Y568172D01*
X308352Y568022D01*
X308306Y567873D01*
X308256Y567726D01*
X308202Y567579D01*
X308145Y567434D01*
X308084Y567290D01*
X308019Y567148D01*
X307951Y567008D01*
X307879Y566869D01*
X307804Y566733D01*
X307725Y566598D01*
X307643Y566465D01*
X307558Y566334D01*
X307470Y566206D01*
X307378Y566080D01*
X307283Y565956D01*
X307185Y565834D01*
X307084Y565715D01*
X306980Y565599D01*
X306873Y565485D01*
X306764Y565374D01*
X306651Y565266D01*
X306536Y565160D01*
X306419Y565058D01*
X306298Y564959D01*
X306176Y564862D01*
X306051Y564769D01*
X305923Y564679D01*
X305794Y564592D01*
X305662Y564508D01*
X305528Y564428D01*
X305392Y564351D01*
X305255Y564278D01*
X305115Y564208D01*
X304974Y564141D01*
X304831Y564078D01*
X304687Y564019D01*
X304541Y563963D01*
X304394Y563911D01*
X304245Y563863D01*
X304096Y563819D01*
X303945Y563778D01*
X303793Y563741D01*
X303641Y563708D01*
X303488Y563679D01*
X303334Y563653D01*
X303179Y563632D01*
X303024Y563614D01*
X302869Y563601D01*
X302713Y563591D01*
X302557Y563585D01*
X302401Y563583D01*
X303953Y585005D02*
X280670Y585005D01*
X303953Y585004D02*
X304088Y585006D01*
X304224Y585012D01*
X304359Y585022D01*
X304494Y585035D01*
X304628Y585053D01*
X304762Y585075D01*
X304895Y585100D01*
X305027Y585130D01*
X305158Y585163D01*
X305289Y585200D01*
X305418Y585240D01*
X305546Y585285D01*
X305672Y585333D01*
X305798Y585385D01*
X305921Y585440D01*
X306043Y585499D01*
X306163Y585562D01*
X306282Y585628D01*
X306398Y585697D01*
X306512Y585770D01*
X306624Y585846D01*
X306734Y585926D01*
X306841Y586008D01*
X306946Y586094D01*
X307049Y586182D01*
X307149Y586274D01*
X307246Y586368D01*
X307340Y586465D01*
X307432Y586565D01*
X307520Y586668D01*
X307606Y586773D01*
X307688Y586880D01*
X307768Y586990D01*
X307844Y587102D01*
X307917Y587216D01*
X307986Y587333D01*
X308052Y587451D01*
X308115Y587571D01*
X308174Y587693D01*
X308229Y587816D01*
X308281Y587942D01*
X308329Y588068D01*
X308374Y588196D01*
X308414Y588325D01*
X308451Y588456D01*
X308484Y588587D01*
X308514Y588719D01*
X308539Y588852D01*
X308561Y588986D01*
X308579Y589120D01*
X308592Y589255D01*
X308602Y589390D01*
X308608Y589526D01*
X308610Y589661D01*
X297744Y602443D02*
X297744Y609428D01*
X297744Y602443D02*
X297746Y602297D01*
X297752Y602151D01*
X297762Y602006D01*
X297775Y601861D01*
X297793Y601716D01*
X297814Y601571D01*
X297840Y601428D01*
X297869Y601285D01*
X297902Y601143D01*
X297939Y601002D01*
X297979Y600862D01*
X298024Y600723D01*
X298072Y600585D01*
X298123Y600448D01*
X298179Y600313D01*
X298238Y600180D01*
X298300Y600048D01*
X298366Y599918D01*
X298436Y599790D01*
X298509Y599664D01*
X298585Y599539D01*
X298665Y599417D01*
X298748Y599297D01*
X298834Y599179D01*
X298923Y599064D01*
X299015Y598951D01*
X299110Y598840D01*
X299209Y598732D01*
X299310Y598627D01*
X299413Y598525D01*
X299520Y598425D01*
X299629Y598328D01*
X299741Y598235D01*
X299855Y598144D01*
X299972Y598056D01*
X300091Y597972D01*
X300212Y597890D01*
X300335Y597813D01*
X300461Y597738D01*
X300588Y597667D01*
X300717Y597599D01*
X300848Y597535D01*
X300981Y597474D01*
X301115Y597417D01*
X301250Y597363D01*
X301388Y597313D01*
X301526Y597267D01*
X301665Y597225D01*
X301806Y597186D01*
X301948Y597151D01*
X302090Y597120D01*
X302234Y597093D01*
X302378Y597069D01*
X302522Y597050D01*
X302667Y597034D01*
X302813Y597022D01*
X302958Y597014D01*
X303104Y597010D01*
X303250Y597010D01*
X303396Y597014D01*
X303541Y597022D01*
X303687Y597034D01*
X303832Y597050D01*
X303976Y597069D01*
X304120Y597093D01*
X304264Y597120D01*
X304406Y597151D01*
X304548Y597186D01*
X304689Y597225D01*
X304828Y597267D01*
X304966Y597313D01*
X305104Y597363D01*
X305239Y597417D01*
X305373Y597474D01*
X305506Y597535D01*
X305637Y597599D01*
X305766Y597667D01*
X305894Y597738D01*
X306019Y597813D01*
X306142Y597890D01*
X306263Y597972D01*
X306382Y598056D01*
X306499Y598144D01*
X306613Y598235D01*
X306725Y598328D01*
X306834Y598425D01*
X306941Y598525D01*
X307044Y598627D01*
X307145Y598732D01*
X307244Y598840D01*
X307339Y598951D01*
X307431Y599064D01*
X307520Y599179D01*
X307606Y599297D01*
X307689Y599417D01*
X307769Y599539D01*
X307845Y599664D01*
X307918Y599790D01*
X307988Y599918D01*
X308054Y600048D01*
X308116Y600180D01*
X308175Y600313D01*
X308231Y600448D01*
X308282Y600585D01*
X308330Y600723D01*
X308375Y600862D01*
X308415Y601002D01*
X308452Y601143D01*
X308485Y601285D01*
X308514Y601428D01*
X308540Y601571D01*
X308561Y601716D01*
X308579Y601861D01*
X308592Y602006D01*
X308602Y602151D01*
X308608Y602297D01*
X308610Y602443D01*
X308610Y609428D01*
X294640Y609428D01*
X294640Y609429D02*
X294505Y609427D01*
X294369Y609421D01*
X294234Y609411D01*
X294099Y609398D01*
X293965Y609380D01*
X293831Y609358D01*
X293698Y609333D01*
X293566Y609303D01*
X293435Y609270D01*
X293304Y609233D01*
X293175Y609193D01*
X293047Y609148D01*
X292921Y609100D01*
X292795Y609048D01*
X292672Y608993D01*
X292550Y608934D01*
X292430Y608871D01*
X292312Y608805D01*
X292195Y608736D01*
X292081Y608663D01*
X291969Y608587D01*
X291859Y608507D01*
X291752Y608425D01*
X291647Y608339D01*
X291544Y608251D01*
X291444Y608159D01*
X291347Y608065D01*
X291253Y607968D01*
X291161Y607868D01*
X291073Y607765D01*
X290987Y607660D01*
X290905Y607553D01*
X290825Y607443D01*
X290749Y607331D01*
X290676Y607217D01*
X290607Y607101D01*
X290541Y606982D01*
X290478Y606862D01*
X290419Y606740D01*
X290364Y606617D01*
X290312Y606491D01*
X290264Y606365D01*
X290219Y606237D01*
X290179Y606108D01*
X290142Y605977D01*
X290109Y605846D01*
X290079Y605714D01*
X290054Y605581D01*
X290032Y605447D01*
X290014Y605313D01*
X290001Y605178D01*
X289991Y605043D01*
X289985Y604907D01*
X289983Y604772D01*
X289983Y598563D01*
X297744Y620866D02*
X300849Y628627D01*
X297745Y620865D02*
X297697Y620749D01*
X297645Y620635D01*
X297589Y620523D01*
X297530Y620412D01*
X297468Y620303D01*
X297402Y620196D01*
X297333Y620091D01*
X297260Y619989D01*
X297185Y619889D01*
X297106Y619791D01*
X297025Y619695D01*
X296940Y619603D01*
X296853Y619512D01*
X296763Y619425D01*
X296670Y619341D01*
X296574Y619259D01*
X296476Y619181D01*
X296376Y619105D01*
X296273Y619033D01*
X296169Y618964D01*
X296062Y618898D01*
X295953Y618836D01*
X295842Y618777D01*
X295729Y618722D01*
X295615Y618670D01*
X295499Y618621D01*
X295382Y618577D01*
X295263Y618536D01*
X295143Y618498D01*
X295022Y618465D01*
X294900Y618435D01*
X294778Y618409D01*
X294654Y618387D01*
X294530Y618369D01*
X294405Y618355D01*
X294280Y618344D01*
X294155Y618338D01*
X294029Y618335D01*
X293904Y618336D01*
X293778Y618342D01*
X293653Y618351D01*
X293528Y618364D01*
X293404Y618381D01*
X293280Y618401D01*
X293157Y618426D01*
X293035Y618454D01*
X292914Y618487D01*
X292793Y618523D01*
X292674Y618562D01*
X292557Y618606D01*
X292440Y618653D01*
X292325Y618704D01*
X292212Y618758D01*
X292101Y618816D01*
X291991Y618877D01*
X291884Y618941D01*
X291778Y619009D01*
X291675Y619080D01*
X291574Y619155D01*
X291475Y619232D01*
X291378Y619313D01*
X291285Y619396D01*
X291194Y619482D01*
X291105Y619572D01*
X291020Y619663D01*
X290937Y619758D01*
X290858Y619855D01*
X290781Y619954D01*
X290708Y620056D01*
X290637Y620160D01*
X290570Y620266D01*
X290507Y620375D01*
X290447Y620485D01*
X290390Y620597D01*
X290337Y620710D01*
X290287Y620826D01*
X290241Y620942D01*
X290199Y621061D01*
X290160Y621180D01*
X290125Y621300D01*
X290094Y621422D01*
X290066Y621545D01*
X290043Y621668D01*
X290023Y621792D01*
X290008Y621916D01*
X289996Y622041D01*
X289988Y622167D01*
X289984Y622292D01*
X289983Y622418D01*
X289984Y622418D02*
X289995Y622842D01*
X290016Y623265D01*
X290048Y623687D01*
X290089Y624109D01*
X290141Y624530D01*
X290203Y624949D01*
X290275Y625367D01*
X290357Y625783D01*
X290449Y626196D01*
X290551Y626608D01*
X290663Y627017D01*
X290784Y627423D01*
X290915Y627826D01*
X291056Y628225D01*
X291207Y628622D01*
X291367Y629014D01*
X291536Y629403D01*
X300849Y628627D02*
X300897Y628743D01*
X300949Y628857D01*
X301005Y628969D01*
X301064Y629080D01*
X301126Y629189D01*
X301192Y629296D01*
X301261Y629401D01*
X301334Y629503D01*
X301409Y629603D01*
X301488Y629701D01*
X301569Y629797D01*
X301654Y629889D01*
X301741Y629980D01*
X301831Y630067D01*
X301924Y630151D01*
X302020Y630233D01*
X302118Y630311D01*
X302218Y630387D01*
X302321Y630459D01*
X302425Y630528D01*
X302532Y630594D01*
X302641Y630656D01*
X302752Y630715D01*
X302865Y630770D01*
X302979Y630822D01*
X303095Y630871D01*
X303212Y630915D01*
X303331Y630956D01*
X303451Y630994D01*
X303572Y631027D01*
X303694Y631057D01*
X303816Y631083D01*
X303940Y631105D01*
X304064Y631123D01*
X304189Y631137D01*
X304314Y631148D01*
X304439Y631154D01*
X304565Y631157D01*
X304690Y631156D01*
X304816Y631150D01*
X304941Y631141D01*
X305066Y631128D01*
X305190Y631111D01*
X305314Y631091D01*
X305437Y631066D01*
X305559Y631038D01*
X305680Y631005D01*
X305801Y630969D01*
X305920Y630930D01*
X306037Y630886D01*
X306154Y630839D01*
X306269Y630788D01*
X306382Y630734D01*
X306493Y630676D01*
X306603Y630615D01*
X306710Y630551D01*
X306816Y630483D01*
X306919Y630412D01*
X307020Y630337D01*
X307119Y630260D01*
X307216Y630179D01*
X307309Y630096D01*
X307400Y630010D01*
X307489Y629920D01*
X307574Y629829D01*
X307657Y629734D01*
X307736Y629637D01*
X307813Y629538D01*
X307886Y629436D01*
X307957Y629332D01*
X308024Y629226D01*
X308087Y629117D01*
X308147Y629007D01*
X308204Y628895D01*
X308257Y628782D01*
X308307Y628666D01*
X308353Y628550D01*
X308395Y628431D01*
X308434Y628312D01*
X308469Y628192D01*
X308500Y628070D01*
X308528Y627947D01*
X308551Y627824D01*
X308571Y627700D01*
X308586Y627576D01*
X308598Y627451D01*
X308606Y627325D01*
X308610Y627200D01*
X308611Y627074D01*
X308610Y627075D02*
X308594Y626452D01*
X308563Y625831D01*
X308517Y625210D01*
X308457Y624590D01*
X308382Y623972D01*
X308293Y623356D01*
X308188Y622742D01*
X308070Y622131D01*
X307937Y621522D01*
X307789Y620917D01*
X307628Y620316D01*
X307452Y619719D01*
X307262Y619126D01*
X307058Y618538D01*
X308610Y652028D02*
X308610Y661342D01*
X308608Y661497D01*
X308602Y661651D01*
X308593Y661806D01*
X308579Y661960D01*
X308562Y662114D01*
X308541Y662267D01*
X308516Y662420D01*
X308487Y662572D01*
X308454Y662724D01*
X308418Y662874D01*
X308378Y663024D01*
X308334Y663172D01*
X308287Y663319D01*
X308236Y663466D01*
X308181Y663610D01*
X308122Y663754D01*
X308061Y663896D01*
X307995Y664036D01*
X307926Y664175D01*
X307854Y664311D01*
X307778Y664447D01*
X307699Y664580D01*
X307617Y664711D01*
X307531Y664840D01*
X307442Y664966D01*
X307350Y665091D01*
X307255Y665213D01*
X307157Y665333D01*
X307056Y665450D01*
X306953Y665565D01*
X306846Y665677D01*
X306736Y665787D01*
X306624Y665894D01*
X306509Y665997D01*
X306392Y666098D01*
X306272Y666196D01*
X306150Y666291D01*
X306025Y666383D01*
X305899Y666472D01*
X305770Y666558D01*
X305639Y666640D01*
X305506Y666719D01*
X305370Y666795D01*
X305234Y666867D01*
X305095Y666936D01*
X304955Y667002D01*
X304813Y667063D01*
X304669Y667122D01*
X304525Y667177D01*
X304378Y667228D01*
X304231Y667275D01*
X304083Y667319D01*
X303933Y667359D01*
X303783Y667395D01*
X303631Y667428D01*
X303479Y667457D01*
X303326Y667482D01*
X303173Y667503D01*
X303019Y667520D01*
X302865Y667534D01*
X302710Y667543D01*
X302556Y667549D01*
X302401Y667551D01*
X299297Y667551D01*
X299140Y667549D01*
X298983Y667543D01*
X298826Y667533D01*
X298669Y667519D01*
X298513Y667501D01*
X298357Y667479D01*
X298202Y667454D01*
X298047Y667424D01*
X297893Y667390D01*
X297741Y667353D01*
X297589Y667311D01*
X297438Y667266D01*
X297289Y667217D01*
X297141Y667165D01*
X296994Y667108D01*
X296848Y667048D01*
X296705Y666984D01*
X296563Y666916D01*
X296422Y666845D01*
X296284Y666771D01*
X296147Y666693D01*
X296013Y666611D01*
X295880Y666526D01*
X295750Y666438D01*
X295622Y666347D01*
X295496Y666252D01*
X295373Y666154D01*
X295253Y666053D01*
X295135Y665949D01*
X295019Y665842D01*
X294907Y665732D01*
X294797Y665620D01*
X294690Y665504D01*
X294586Y665386D01*
X294485Y665266D01*
X294387Y665143D01*
X294292Y665017D01*
X294201Y664889D01*
X294113Y664759D01*
X294028Y664626D01*
X293946Y664492D01*
X293868Y664355D01*
X293794Y664217D01*
X293723Y664076D01*
X293655Y663934D01*
X293591Y663791D01*
X293531Y663645D01*
X293475Y663498D01*
X293422Y663350D01*
X293373Y663201D01*
X293328Y663050D01*
X293286Y662898D01*
X293249Y662746D01*
X293215Y662592D01*
X293185Y662437D01*
X293160Y662282D01*
X293138Y662126D01*
X293120Y661970D01*
X293106Y661813D01*
X293096Y661657D01*
X293090Y661499D01*
X293088Y661342D01*
X293088Y652028D01*
X280670Y652028D01*
X280670Y667551D01*
X284551Y675820D02*
X289207Y675820D01*
X284551Y675819D02*
X284428Y675821D01*
X284305Y675827D01*
X284182Y675837D01*
X284060Y675850D01*
X283938Y675868D01*
X283817Y675889D01*
X283696Y675914D01*
X283576Y675943D01*
X283458Y675976D01*
X283340Y676013D01*
X283224Y676053D01*
X283109Y676097D01*
X282995Y676145D01*
X282883Y676196D01*
X282773Y676250D01*
X282664Y676309D01*
X282557Y676370D01*
X282453Y676435D01*
X282350Y676503D01*
X282250Y676575D01*
X282152Y676649D01*
X282056Y676727D01*
X281963Y676808D01*
X281873Y676891D01*
X281785Y676978D01*
X281700Y677067D01*
X281618Y677158D01*
X281539Y677253D01*
X281463Y677350D01*
X281390Y677449D01*
X281320Y677550D01*
X281253Y677654D01*
X281190Y677760D01*
X281130Y677867D01*
X281074Y677977D01*
X281021Y678088D01*
X280971Y678201D01*
X280926Y678315D01*
X280883Y678431D01*
X280845Y678548D01*
X280810Y678666D01*
X280779Y678785D01*
X280752Y678905D01*
X280729Y679026D01*
X280710Y679148D01*
X280694Y679270D01*
X280682Y679392D01*
X280674Y679515D01*
X280670Y679638D01*
X280670Y679762D01*
X280674Y679885D01*
X280682Y680008D01*
X280694Y680130D01*
X280710Y680252D01*
X280729Y680374D01*
X280752Y680495D01*
X280779Y680615D01*
X280810Y680734D01*
X280845Y680852D01*
X280883Y680969D01*
X280926Y681085D01*
X280971Y681199D01*
X281021Y681312D01*
X281074Y681423D01*
X281130Y681533D01*
X281190Y681641D01*
X281253Y681746D01*
X281320Y681850D01*
X281390Y681951D01*
X281463Y682050D01*
X281539Y682147D01*
X281618Y682242D01*
X281700Y682333D01*
X281785Y682422D01*
X281873Y682509D01*
X281963Y682592D01*
X282056Y682673D01*
X282152Y682751D01*
X282250Y682825D01*
X282350Y682897D01*
X282453Y682965D01*
X282557Y683030D01*
X282664Y683091D01*
X282773Y683150D01*
X282883Y683204D01*
X282995Y683255D01*
X283109Y683303D01*
X283224Y683347D01*
X283340Y683387D01*
X283458Y683424D01*
X283576Y683457D01*
X283696Y683486D01*
X283817Y683511D01*
X283938Y683532D01*
X284060Y683550D01*
X284182Y683563D01*
X284305Y683573D01*
X284428Y683579D01*
X284551Y683581D01*
X289207Y683581D01*
X289330Y683579D01*
X289453Y683573D01*
X289576Y683563D01*
X289698Y683550D01*
X289820Y683532D01*
X289941Y683511D01*
X290062Y683486D01*
X290182Y683457D01*
X290300Y683424D01*
X290418Y683387D01*
X290534Y683347D01*
X290649Y683303D01*
X290763Y683255D01*
X290875Y683204D01*
X290985Y683150D01*
X291094Y683091D01*
X291201Y683030D01*
X291305Y682965D01*
X291408Y682897D01*
X291508Y682825D01*
X291606Y682751D01*
X291702Y682673D01*
X291795Y682592D01*
X291885Y682509D01*
X291973Y682422D01*
X292058Y682333D01*
X292140Y682242D01*
X292219Y682147D01*
X292295Y682050D01*
X292368Y681951D01*
X292438Y681850D01*
X292505Y681746D01*
X292568Y681641D01*
X292628Y681533D01*
X292684Y681423D01*
X292737Y681312D01*
X292787Y681199D01*
X292832Y681085D01*
X292875Y680969D01*
X292913Y680852D01*
X292948Y680734D01*
X292979Y680615D01*
X293006Y680495D01*
X293029Y680374D01*
X293048Y680252D01*
X293064Y680130D01*
X293076Y680008D01*
X293084Y679885D01*
X293088Y679762D01*
X293088Y679638D01*
X293084Y679515D01*
X293076Y679392D01*
X293064Y679270D01*
X293048Y679148D01*
X293029Y679026D01*
X293006Y678905D01*
X292979Y678785D01*
X292948Y678666D01*
X292913Y678548D01*
X292875Y678431D01*
X292832Y678315D01*
X292787Y678201D01*
X292737Y678088D01*
X292684Y677977D01*
X292628Y677867D01*
X292568Y677760D01*
X292505Y677654D01*
X292438Y677550D01*
X292368Y677449D01*
X292295Y677350D01*
X292219Y677253D01*
X292140Y677158D01*
X292058Y677067D01*
X291973Y676978D01*
X291885Y676891D01*
X291795Y676808D01*
X291702Y676727D01*
X291606Y676649D01*
X291508Y676575D01*
X291408Y676503D01*
X291305Y676435D01*
X291201Y676370D01*
X291094Y676309D01*
X290985Y676250D01*
X290875Y676196D01*
X290763Y676145D01*
X290649Y676097D01*
X290534Y676053D01*
X290418Y676013D01*
X290300Y675976D01*
X290182Y675943D01*
X290062Y675914D01*
X289941Y675889D01*
X289820Y675868D01*
X289698Y675850D01*
X289576Y675837D01*
X289453Y675827D01*
X289330Y675821D01*
X289207Y675819D01*
X299297Y675820D02*
X299297Y683581D01*
X308610Y704593D02*
X308610Y712355D01*
X308608Y712544D01*
X308601Y712733D01*
X308589Y712922D01*
X308573Y713110D01*
X308553Y713298D01*
X308527Y713485D01*
X308498Y713672D01*
X308463Y713858D01*
X308424Y714042D01*
X308381Y714226D01*
X308333Y714409D01*
X308281Y714591D01*
X308224Y714771D01*
X308163Y714950D01*
X308098Y715127D01*
X308028Y715303D01*
X307954Y715477D01*
X307876Y715649D01*
X307794Y715819D01*
X307707Y715987D01*
X307617Y716153D01*
X307522Y716317D01*
X307424Y716478D01*
X307322Y716637D01*
X307215Y716794D01*
X307105Y716947D01*
X306992Y717098D01*
X306874Y717246D01*
X306754Y717392D01*
X306629Y717534D01*
X306501Y717673D01*
X306370Y717809D01*
X306236Y717942D01*
X306098Y718072D01*
X305957Y718198D01*
X305814Y718320D01*
X305667Y718440D01*
X305517Y718555D01*
X305365Y718667D01*
X305210Y718775D01*
X305052Y718879D01*
X304892Y718980D01*
X304730Y719076D01*
X304565Y719169D01*
X304398Y719257D01*
X304229Y719342D01*
X304057Y719422D01*
X303884Y719498D01*
X303710Y719570D01*
X303533Y719637D01*
X303355Y719700D01*
X303175Y719759D01*
X302994Y719814D01*
X302812Y719864D01*
X302629Y719909D01*
X302444Y719950D01*
X302259Y719987D01*
X302072Y720019D01*
X301885Y720046D01*
X301698Y720069D01*
X301510Y720088D01*
X301321Y720102D01*
X301132Y720111D01*
X300944Y720115D01*
X300754Y720115D01*
X300566Y720111D01*
X300377Y720102D01*
X300188Y720088D01*
X300000Y720069D01*
X299813Y720046D01*
X299626Y720019D01*
X299439Y719987D01*
X299254Y719950D01*
X299069Y719909D01*
X298886Y719864D01*
X298704Y719814D01*
X298523Y719759D01*
X298343Y719700D01*
X298165Y719637D01*
X297988Y719570D01*
X297814Y719498D01*
X297641Y719422D01*
X297469Y719342D01*
X297300Y719257D01*
X297133Y719169D01*
X296969Y719076D01*
X296806Y718980D01*
X296646Y718879D01*
X296488Y718775D01*
X296333Y718667D01*
X296181Y718555D01*
X296031Y718440D01*
X295884Y718320D01*
X295741Y718198D01*
X295600Y718072D01*
X295462Y717942D01*
X295328Y717809D01*
X295197Y717673D01*
X295069Y717534D01*
X294944Y717392D01*
X294824Y717246D01*
X294706Y717098D01*
X294593Y716947D01*
X294483Y716794D01*
X294376Y716637D01*
X294274Y716478D01*
X294176Y716317D01*
X294081Y716153D01*
X293991Y715987D01*
X293904Y715819D01*
X293822Y715649D01*
X293744Y715477D01*
X293670Y715303D01*
X293600Y715127D01*
X293535Y714950D01*
X293474Y714771D01*
X293417Y714591D01*
X293365Y714409D01*
X293317Y714226D01*
X293274Y714042D01*
X293235Y713858D01*
X293200Y713672D01*
X293171Y713485D01*
X293145Y713298D01*
X293125Y713110D01*
X293109Y712922D01*
X293097Y712733D01*
X293090Y712544D01*
X293088Y712355D01*
X280670Y713907D02*
X280670Y704593D01*
X280670Y713907D02*
X280672Y714063D01*
X280678Y714219D01*
X280688Y714375D01*
X280701Y714530D01*
X280719Y714685D01*
X280740Y714840D01*
X280766Y714994D01*
X280795Y715147D01*
X280828Y715299D01*
X280865Y715451D01*
X280906Y715602D01*
X280950Y715751D01*
X280998Y715900D01*
X281050Y716047D01*
X281106Y716193D01*
X281165Y716337D01*
X281228Y716480D01*
X281295Y716621D01*
X281365Y716761D01*
X281438Y716898D01*
X281515Y717034D01*
X281595Y717168D01*
X281679Y717300D01*
X281766Y717429D01*
X281856Y717557D01*
X281949Y717682D01*
X282046Y717804D01*
X282145Y717925D01*
X282247Y718042D01*
X282353Y718157D01*
X282461Y718270D01*
X282572Y718379D01*
X282686Y718486D01*
X282802Y718590D01*
X282921Y718691D01*
X283043Y718789D01*
X283167Y718884D01*
X283293Y718976D01*
X283421Y719064D01*
X283552Y719149D01*
X283685Y719231D01*
X283820Y719310D01*
X283956Y719385D01*
X284095Y719457D01*
X284235Y719525D01*
X284377Y719590D01*
X284521Y719651D01*
X284666Y719708D01*
X284813Y719762D01*
X284960Y719812D01*
X285109Y719858D01*
X285259Y719901D01*
X285411Y719940D01*
X285563Y719975D01*
X285716Y720006D01*
X285869Y720033D01*
X286023Y720057D01*
X286178Y720076D01*
X286334Y720092D01*
X286489Y720104D01*
X286645Y720112D01*
X286801Y720116D01*
X286957Y720116D01*
X287113Y720112D01*
X287269Y720104D01*
X287424Y720092D01*
X287580Y720076D01*
X287735Y720057D01*
X287889Y720033D01*
X288042Y720006D01*
X288195Y719975D01*
X288347Y719940D01*
X288499Y719901D01*
X288649Y719858D01*
X288798Y719812D01*
X288945Y719762D01*
X289092Y719708D01*
X289237Y719651D01*
X289381Y719590D01*
X289523Y719525D01*
X289663Y719457D01*
X289802Y719385D01*
X289938Y719310D01*
X290073Y719231D01*
X290206Y719149D01*
X290337Y719064D01*
X290465Y718976D01*
X290591Y718884D01*
X290715Y718789D01*
X290837Y718691D01*
X290956Y718590D01*
X291072Y718486D01*
X291186Y718379D01*
X291297Y718270D01*
X291405Y718157D01*
X291511Y718042D01*
X291613Y717925D01*
X291712Y717804D01*
X291809Y717682D01*
X291902Y717557D01*
X291992Y717429D01*
X292079Y717300D01*
X292163Y717168D01*
X292243Y717034D01*
X292320Y716898D01*
X292393Y716761D01*
X292463Y716621D01*
X292530Y716480D01*
X292593Y716337D01*
X292652Y716193D01*
X292708Y716047D01*
X292760Y715900D01*
X292808Y715751D01*
X292852Y715602D01*
X292893Y715451D01*
X292930Y715299D01*
X292963Y715147D01*
X292992Y714994D01*
X293018Y714840D01*
X293039Y714685D01*
X293057Y714530D01*
X293070Y714375D01*
X293080Y714219D01*
X293086Y714063D01*
X293088Y713907D01*
X293088Y707698D01*
X286879Y730673D02*
X286879Y735330D01*
X286879Y730673D02*
X286881Y730562D01*
X286887Y730452D01*
X286897Y730341D01*
X286911Y730231D01*
X286928Y730122D01*
X286950Y730013D01*
X286975Y729905D01*
X287005Y729799D01*
X287038Y729693D01*
X287075Y729588D01*
X287115Y729485D01*
X287160Y729384D01*
X287207Y729284D01*
X287259Y729185D01*
X287314Y729089D01*
X287372Y728995D01*
X287433Y728903D01*
X287498Y728813D01*
X287566Y728725D01*
X287637Y728640D01*
X287711Y728558D01*
X287788Y728478D01*
X287868Y728401D01*
X287950Y728327D01*
X288035Y728256D01*
X288123Y728188D01*
X288213Y728123D01*
X288305Y728062D01*
X288399Y728004D01*
X288495Y727949D01*
X288594Y727897D01*
X288694Y727850D01*
X288795Y727805D01*
X288898Y727765D01*
X289003Y727728D01*
X289109Y727695D01*
X289215Y727665D01*
X289323Y727640D01*
X289432Y727618D01*
X289541Y727601D01*
X289651Y727587D01*
X289762Y727577D01*
X289872Y727571D01*
X289983Y727569D01*
X290094Y727571D01*
X290204Y727577D01*
X290315Y727587D01*
X290425Y727601D01*
X290534Y727618D01*
X290643Y727640D01*
X290751Y727665D01*
X290857Y727695D01*
X290963Y727728D01*
X291068Y727765D01*
X291171Y727805D01*
X291272Y727850D01*
X291372Y727897D01*
X291471Y727949D01*
X291567Y728004D01*
X291661Y728062D01*
X291753Y728123D01*
X291843Y728188D01*
X291931Y728256D01*
X292016Y728327D01*
X292098Y728401D01*
X292178Y728478D01*
X292255Y728558D01*
X292329Y728640D01*
X292400Y728725D01*
X292468Y728813D01*
X292533Y728903D01*
X292594Y728995D01*
X292652Y729089D01*
X292707Y729185D01*
X292759Y729284D01*
X292806Y729384D01*
X292851Y729485D01*
X292891Y729588D01*
X292928Y729693D01*
X292961Y729799D01*
X292991Y729905D01*
X293016Y730013D01*
X293038Y730122D01*
X293055Y730231D01*
X293069Y730341D01*
X293079Y730452D01*
X293085Y730562D01*
X293087Y730673D01*
X293088Y730673D02*
X293088Y735330D01*
X283774Y735330D01*
X283774Y735331D02*
X283663Y735329D01*
X283552Y735323D01*
X283442Y735313D01*
X283332Y735299D01*
X283223Y735282D01*
X283114Y735260D01*
X283006Y735235D01*
X282899Y735205D01*
X282793Y735172D01*
X282689Y735135D01*
X282586Y735095D01*
X282484Y735050D01*
X282384Y735003D01*
X282286Y734951D01*
X282190Y734896D01*
X282095Y734838D01*
X282003Y734777D01*
X281913Y734712D01*
X281826Y734644D01*
X281741Y734573D01*
X281658Y734499D01*
X281578Y734422D01*
X281501Y734342D01*
X281427Y734259D01*
X281356Y734174D01*
X281288Y734087D01*
X281224Y733997D01*
X281162Y733905D01*
X281104Y733810D01*
X281049Y733714D01*
X280997Y733616D01*
X280950Y733516D01*
X280905Y733414D01*
X280865Y733311D01*
X280828Y733207D01*
X280795Y733101D01*
X280765Y732994D01*
X280740Y732886D01*
X280718Y732777D01*
X280701Y732668D01*
X280687Y732558D01*
X280677Y732448D01*
X280671Y732337D01*
X280669Y732226D01*
X280670Y732226D02*
X280670Y728345D01*
X299297Y727569D02*
X299297Y735330D01*
D11*
X431800Y603504D02*
X431800Y590296D01*
X457200Y590296D02*
X457200Y603504D01*
X584200Y603504D02*
X584200Y590296D01*
X609600Y590296D02*
X609600Y603504D01*
X482600Y603504D02*
X482600Y590296D01*
X508000Y590296D02*
X508000Y603504D01*
X558800Y603504D02*
X558800Y590296D01*
X533400Y590296D02*
X533400Y603504D01*
X609600Y666496D02*
X609600Y679704D01*
X584200Y679704D02*
X584200Y666496D01*
X558800Y666496D02*
X558800Y679704D01*
X533400Y679704D02*
X533400Y666496D01*
X508000Y666496D02*
X508000Y679704D01*
X482600Y679704D02*
X482600Y666496D01*
X457200Y666496D02*
X457200Y679704D01*
X431800Y679704D02*
X431800Y666496D01*
X990600Y603504D02*
X990600Y590296D01*
X1016000Y590296D02*
X1016000Y603504D01*
X1143000Y603504D02*
X1143000Y590296D01*
X1168400Y590296D02*
X1168400Y603504D01*
X1041400Y603504D02*
X1041400Y590296D01*
X1066800Y590296D02*
X1066800Y603504D01*
X1117600Y603504D02*
X1117600Y590296D01*
X1092200Y590296D02*
X1092200Y603504D01*
X1168400Y666496D02*
X1168400Y679704D01*
X1143000Y679704D02*
X1143000Y666496D01*
X1117600Y666496D02*
X1117600Y679704D01*
X1092200Y679704D02*
X1092200Y666496D01*
X1066800Y666496D02*
X1066800Y679704D01*
X1041400Y679704D02*
X1041400Y666496D01*
X1016000Y666496D02*
X1016000Y679704D01*
X990600Y679704D02*
X990600Y666496D01*
X844804Y368300D02*
X831596Y368300D01*
X831596Y393700D02*
X844804Y393700D01*
X844804Y520700D02*
X831596Y520700D01*
X831596Y546100D02*
X844804Y546100D01*
X844804Y419100D02*
X831596Y419100D01*
X831596Y444500D02*
X844804Y444500D01*
X844804Y495300D02*
X831596Y495300D01*
X831596Y469900D02*
X844804Y469900D01*
X768604Y546100D02*
X755396Y546100D01*
X755396Y520700D02*
X768604Y520700D01*
X768604Y495300D02*
X755396Y495300D01*
X755396Y469900D02*
X768604Y469900D01*
X768604Y444500D02*
X755396Y444500D01*
X755396Y419100D02*
X768604Y419100D01*
X768604Y393700D02*
X755396Y393700D01*
X755396Y368300D02*
X768604Y368300D01*
X400304Y368300D02*
X387096Y368300D01*
X387096Y342900D02*
X400304Y342900D01*
X463296Y342900D02*
X476504Y342900D01*
X476504Y368300D02*
X463296Y368300D01*
X400304Y317500D02*
X387096Y317500D01*
X387096Y292100D02*
X400304Y292100D01*
X463296Y317500D02*
X476504Y317500D01*
X476504Y292100D02*
X463296Y292100D01*
D12*
X393700Y444500D03*
X419100Y444500D03*
D13*
X596900Y241300D03*
X622300Y241300D03*
X647700Y241300D03*
X1041400Y114300D03*
X1066800Y114300D03*
X406400Y889000D03*
X431800Y889000D03*
X457200Y889000D03*
X482600Y889000D03*
X508000Y889000D03*
X533400Y889000D03*
X558800Y889000D03*
X584200Y889000D03*
X609600Y889000D03*
X635000Y889000D03*
X965200Y889000D03*
X990600Y889000D03*
X1016000Y889000D03*
X1041400Y889000D03*
X1066800Y889000D03*
X1092200Y889000D03*
X1117600Y889000D03*
X1143000Y889000D03*
X1168400Y889000D03*
X1193800Y889000D03*
X1092200Y749300D03*
X1092200Y825500D03*
X1143000Y749300D03*
X1143000Y825500D03*
X1168400Y749300D03*
X1168400Y825500D03*
X431800Y736600D03*
X431800Y812800D03*
X457200Y736600D03*
X457200Y812800D03*
X482600Y736600D03*
X482600Y812800D03*
X508000Y736600D03*
X508000Y812800D03*
X533400Y736600D03*
X533400Y812800D03*
D14*
X457200Y203200D03*
X406400Y203200D03*
X431800Y177800D03*
D13*
X584200Y736600D03*
X584200Y812800D03*
X609600Y736600D03*
X609600Y812800D03*
X596900Y342900D03*
X520700Y342900D03*
X977900Y292100D03*
X977900Y368300D03*
X1130300Y342900D03*
X1206500Y342900D03*
X990600Y749300D03*
X990600Y825500D03*
X1016000Y749300D03*
X1016000Y825500D03*
X1041400Y749300D03*
X1041400Y825500D03*
X1066800Y749300D03*
X1066800Y825500D03*
X1135888Y263906D03*
X1200912Y263906D03*
X1135888Y218694D03*
X1200912Y218694D03*
X838200Y952500D03*
X812800Y952500D03*
X787400Y952500D03*
X762000Y952500D03*
D15*
X698500Y101600D03*
D16*
X748500Y101600D03*
X798500Y101600D03*
D15*
X850900Y101600D03*
D16*
X900900Y101600D03*
X950900Y101600D03*
D17*
X863600Y546100D02*
X736600Y546100D01*
D18*
X736600Y546100D03*
X863600Y546100D03*
X635000Y596900D03*
D17*
X711200Y596900D01*
X736600Y571500D01*
X736600Y546100D01*
X863600Y546100D02*
X901700Y546100D01*
X952500Y495300D02*
X952500Y393700D01*
X977900Y368300D01*
X952500Y495300D02*
X901700Y546100D01*
D19*
X508000Y558800D03*
X508000Y406400D03*
D17*
X508000Y558800D01*
D20*
X1168400Y304800D03*
D17*
X1168400Y533400D02*
X1130300Y571500D01*
X1054100Y571500D01*
X1168400Y533400D02*
X1168400Y304800D01*
D18*
X1054100Y571500D03*
D19*
X546100Y215900D03*
D17*
X546100Y330200D02*
X533400Y342900D01*
X520700Y342900D01*
X546100Y330200D02*
X546100Y215900D01*
D19*
X508000Y165100D03*
D17*
X508000Y292100D01*
D19*
X508000Y292100D03*
D17*
X622300Y215900D02*
X635000Y203200D01*
X850900Y254000D02*
X850900Y304800D01*
X850900Y254000D02*
X800100Y203200D01*
X635000Y203200D01*
D20*
X622300Y215900D03*
D18*
X850900Y304800D03*
D19*
X1066800Y304800D03*
D17*
X1066800Y520700D01*
D19*
X1066800Y520700D03*
D17*
X1066800Y304800D02*
X1066800Y279400D01*
X952500Y165100D01*
X800100Y165100D01*
D20*
X800100Y165100D03*
D18*
X723900Y342900D03*
D17*
X863600Y342900D01*
X952500Y254000D02*
X952500Y165100D01*
X952500Y254000D02*
X863600Y342900D01*
D19*
X787400Y304800D03*
D17*
X788670Y303530D01*
X788670Y278130D01*
X800100Y266700D01*
X800100Y241300D01*
D19*
X800100Y241300D03*
X482600Y707390D03*
D17*
X478790Y711200D01*
X444500Y711200D01*
X431800Y723900D01*
X431800Y736600D01*
X603250Y717550D02*
X609600Y711200D01*
D19*
X609600Y711200D03*
D17*
X501650Y717550D02*
X482600Y736600D01*
X501650Y717550D02*
X603250Y717550D01*
D19*
X533400Y698246D03*
D17*
X584200Y698246D01*
D19*
X584200Y698246D03*
X508000Y635000D03*
D17*
X622300Y635000D01*
X635000Y647700D01*
X635000Y749300D01*
X622300Y762000D01*
X596900Y762000D02*
X584200Y749300D01*
X584200Y736600D01*
X596900Y762000D02*
X622300Y762000D01*
X999490Y715010D02*
X1041400Y715010D01*
X999490Y715010D02*
X990600Y723900D01*
X990600Y749300D01*
D18*
X1041400Y715010D03*
D19*
X1066800Y635000D03*
D17*
X1181100Y635000D02*
X1193800Y647700D01*
X1193800Y762000D01*
X1181100Y774700D01*
X1155700Y774700D01*
X1181100Y635000D02*
X1066800Y635000D01*
X1143000Y762000D02*
X1155700Y774700D01*
X1143000Y762000D02*
X1143000Y749300D01*
D19*
X1092200Y706120D03*
D17*
X1143000Y706120D01*
D19*
X1143000Y706120D03*
D17*
X1149350Y730250D02*
X1056640Y730250D01*
X1149350Y730250D02*
X1168400Y711200D01*
D19*
X1168400Y711200D03*
D17*
X1056640Y730250D02*
X1041400Y745490D01*
X1041400Y749300D01*
X787400Y520700D02*
X736600Y520700D01*
X812800Y495300D02*
X863600Y495300D01*
X812800Y495300D02*
X787400Y520700D01*
D18*
X736600Y520700D03*
X863600Y495300D03*
X1016000Y469900D03*
X1016000Y558800D03*
D17*
X1016000Y469900D01*
D18*
X990600Y444500D03*
X990600Y571500D03*
D17*
X990600Y444500D01*
D18*
X431800Y558800D03*
X431800Y482600D03*
D17*
X431800Y558800D01*
D18*
X457200Y571500D03*
X457200Y444500D03*
D17*
X457200Y571500D01*
X673100Y381000D02*
X673100Y292100D01*
X660400Y279400D01*
X584200Y279400D01*
X571500Y266700D01*
X571500Y203200D01*
X596900Y177800D01*
X736600Y177800D02*
X749300Y165100D01*
X736600Y177800D02*
X596900Y177800D01*
D20*
X749300Y165100D03*
D17*
X673100Y381000D02*
X558800Y495300D01*
X673100Y381000D02*
X698500Y406400D01*
X698500Y419100D01*
D18*
X698500Y419100D03*
X558800Y558800D03*
D17*
X558800Y495300D01*
D18*
X698500Y495300D03*
X584200Y571500D03*
D17*
X635000Y571500D01*
X698500Y508000D02*
X698500Y495300D01*
X698500Y508000D02*
X635000Y571500D01*
D19*
X647700Y139700D03*
D17*
X647700Y50800D01*
D19*
X647700Y50800D03*
M02*
