G04 EAGLE Gerber RS-274X export*
G75*
%MOMM*%
%FSLAX34Y34*%
%LPD*%
%INTop Copper*%
%IPPOS*%
%AMOC8*
5,1,8,0,0,1.08239X$1,22.5*%
G01*
%ADD10C,0.254000*%
%ADD11C,1.320800*%
%ADD12P,1.732040X8X22.500000*%
%ADD13C,1.879600*%
%ADD14P,1.429621X8X202.500000*%
%ADD15R,2.413000X2.413000*%
%ADD16C,2.413000*%
%ADD17C,0.508000*%
%ADD18C,1.800000*%
%ADD19C,1.778000*%
%ADD20C,2.000000*%


D10*
X1014730Y242570D02*
X986790Y242570D01*
X1002312Y251883D01*
X986790Y261197D01*
X1014730Y261197D01*
X1003864Y275774D02*
X1003864Y282759D01*
X1003864Y275774D02*
X1003866Y275628D01*
X1003872Y275482D01*
X1003882Y275337D01*
X1003895Y275192D01*
X1003913Y275047D01*
X1003934Y274902D01*
X1003960Y274759D01*
X1003989Y274616D01*
X1004022Y274474D01*
X1004059Y274333D01*
X1004099Y274193D01*
X1004144Y274054D01*
X1004192Y273916D01*
X1004243Y273779D01*
X1004299Y273644D01*
X1004358Y273511D01*
X1004420Y273379D01*
X1004486Y273249D01*
X1004556Y273121D01*
X1004629Y272995D01*
X1004705Y272870D01*
X1004785Y272748D01*
X1004868Y272628D01*
X1004954Y272510D01*
X1005043Y272395D01*
X1005135Y272282D01*
X1005230Y272171D01*
X1005329Y272063D01*
X1005430Y271958D01*
X1005533Y271856D01*
X1005640Y271756D01*
X1005749Y271659D01*
X1005861Y271566D01*
X1005975Y271475D01*
X1006092Y271387D01*
X1006211Y271303D01*
X1006332Y271221D01*
X1006455Y271144D01*
X1006581Y271069D01*
X1006708Y270998D01*
X1006837Y270930D01*
X1006968Y270866D01*
X1007101Y270805D01*
X1007235Y270748D01*
X1007370Y270694D01*
X1007508Y270644D01*
X1007646Y270598D01*
X1007785Y270556D01*
X1007926Y270517D01*
X1008068Y270482D01*
X1008210Y270451D01*
X1008354Y270424D01*
X1008498Y270400D01*
X1008642Y270381D01*
X1008787Y270365D01*
X1008933Y270353D01*
X1009078Y270345D01*
X1009224Y270341D01*
X1009370Y270341D01*
X1009516Y270345D01*
X1009661Y270353D01*
X1009807Y270365D01*
X1009952Y270381D01*
X1010096Y270400D01*
X1010240Y270424D01*
X1010384Y270451D01*
X1010526Y270482D01*
X1010668Y270517D01*
X1010809Y270556D01*
X1010948Y270598D01*
X1011086Y270644D01*
X1011224Y270694D01*
X1011359Y270748D01*
X1011493Y270805D01*
X1011626Y270866D01*
X1011757Y270930D01*
X1011886Y270998D01*
X1012014Y271069D01*
X1012139Y271144D01*
X1012262Y271221D01*
X1012383Y271303D01*
X1012502Y271387D01*
X1012619Y271475D01*
X1012733Y271566D01*
X1012845Y271659D01*
X1012954Y271756D01*
X1013061Y271856D01*
X1013164Y271958D01*
X1013265Y272063D01*
X1013364Y272171D01*
X1013459Y272282D01*
X1013551Y272395D01*
X1013640Y272510D01*
X1013726Y272628D01*
X1013809Y272748D01*
X1013889Y272870D01*
X1013965Y272995D01*
X1014038Y273121D01*
X1014108Y273249D01*
X1014174Y273379D01*
X1014236Y273511D01*
X1014295Y273644D01*
X1014351Y273779D01*
X1014402Y273916D01*
X1014450Y274054D01*
X1014495Y274193D01*
X1014535Y274333D01*
X1014572Y274474D01*
X1014605Y274616D01*
X1014634Y274759D01*
X1014660Y274902D01*
X1014681Y275047D01*
X1014699Y275192D01*
X1014712Y275337D01*
X1014722Y275482D01*
X1014728Y275628D01*
X1014730Y275774D01*
X1014730Y282759D01*
X1000760Y282759D01*
X1000760Y282760D02*
X1000625Y282758D01*
X1000489Y282752D01*
X1000354Y282742D01*
X1000219Y282729D01*
X1000085Y282711D01*
X999951Y282689D01*
X999818Y282664D01*
X999686Y282634D01*
X999555Y282601D01*
X999424Y282564D01*
X999295Y282524D01*
X999167Y282479D01*
X999041Y282431D01*
X998915Y282379D01*
X998792Y282324D01*
X998670Y282265D01*
X998550Y282202D01*
X998432Y282136D01*
X998315Y282067D01*
X998201Y281994D01*
X998089Y281918D01*
X997979Y281838D01*
X997872Y281756D01*
X997767Y281670D01*
X997664Y281582D01*
X997564Y281490D01*
X997467Y281396D01*
X997373Y281299D01*
X997281Y281199D01*
X997193Y281096D01*
X997107Y280991D01*
X997025Y280884D01*
X996945Y280774D01*
X996869Y280662D01*
X996796Y280548D01*
X996727Y280432D01*
X996661Y280313D01*
X996598Y280193D01*
X996539Y280071D01*
X996484Y279948D01*
X996432Y279822D01*
X996384Y279696D01*
X996339Y279568D01*
X996299Y279439D01*
X996262Y279308D01*
X996229Y279177D01*
X996199Y279045D01*
X996174Y278912D01*
X996152Y278778D01*
X996134Y278644D01*
X996121Y278509D01*
X996111Y278374D01*
X996105Y278238D01*
X996103Y278103D01*
X996103Y271894D01*
X996103Y292502D02*
X1014730Y292502D01*
X988342Y291726D02*
X986790Y291726D01*
X986790Y293278D01*
X988342Y293278D01*
X988342Y291726D01*
X996103Y302222D02*
X1014730Y302222D01*
X996103Y302222D02*
X996103Y309983D01*
X996105Y310118D01*
X996111Y310254D01*
X996121Y310389D01*
X996134Y310524D01*
X996152Y310658D01*
X996174Y310792D01*
X996199Y310925D01*
X996229Y311057D01*
X996262Y311188D01*
X996299Y311319D01*
X996339Y311448D01*
X996384Y311576D01*
X996432Y311702D01*
X996484Y311828D01*
X996539Y311951D01*
X996598Y312073D01*
X996661Y312193D01*
X996727Y312312D01*
X996796Y312428D01*
X996869Y312542D01*
X996945Y312654D01*
X997025Y312764D01*
X997107Y312871D01*
X997193Y312976D01*
X997281Y313079D01*
X997373Y313179D01*
X997467Y313276D01*
X997564Y313370D01*
X997664Y313462D01*
X997767Y313550D01*
X997872Y313636D01*
X997979Y313718D01*
X998089Y313798D01*
X998201Y313874D01*
X998315Y313947D01*
X998432Y314016D01*
X998550Y314082D01*
X998670Y314145D01*
X998792Y314204D01*
X998915Y314259D01*
X999041Y314311D01*
X999167Y314359D01*
X999295Y314404D01*
X999424Y314444D01*
X999555Y314481D01*
X999686Y314514D01*
X999818Y314544D01*
X999951Y314569D01*
X1000085Y314591D01*
X1000219Y314609D01*
X1000354Y314622D01*
X1000489Y314632D01*
X1000625Y314638D01*
X1000760Y314640D01*
X1000760Y314639D02*
X1014730Y314639D01*
X1014730Y328382D02*
X1014730Y336143D01*
X1014730Y328382D02*
X1014728Y328247D01*
X1014722Y328111D01*
X1014712Y327976D01*
X1014699Y327841D01*
X1014681Y327707D01*
X1014659Y327573D01*
X1014634Y327440D01*
X1014604Y327308D01*
X1014571Y327177D01*
X1014534Y327046D01*
X1014494Y326917D01*
X1014449Y326789D01*
X1014401Y326663D01*
X1014349Y326537D01*
X1014294Y326414D01*
X1014235Y326292D01*
X1014172Y326172D01*
X1014106Y326054D01*
X1014037Y325937D01*
X1013964Y325823D01*
X1013888Y325711D01*
X1013808Y325601D01*
X1013726Y325494D01*
X1013640Y325389D01*
X1013552Y325286D01*
X1013460Y325186D01*
X1013366Y325089D01*
X1013269Y324995D01*
X1013169Y324903D01*
X1013066Y324815D01*
X1012961Y324729D01*
X1012854Y324647D01*
X1012744Y324567D01*
X1012632Y324491D01*
X1012518Y324418D01*
X1012402Y324349D01*
X1012283Y324283D01*
X1012163Y324220D01*
X1012041Y324161D01*
X1011918Y324106D01*
X1011792Y324054D01*
X1011666Y324006D01*
X1011538Y323961D01*
X1011409Y323921D01*
X1011278Y323884D01*
X1011147Y323851D01*
X1011015Y323821D01*
X1010882Y323796D01*
X1010748Y323774D01*
X1010614Y323756D01*
X1010479Y323743D01*
X1010344Y323733D01*
X1010208Y323727D01*
X1010073Y323725D01*
X1010073Y323726D02*
X1002312Y323726D01*
X1002312Y323725D02*
X1002156Y323727D01*
X1002000Y323733D01*
X1001844Y323743D01*
X1001689Y323756D01*
X1001534Y323774D01*
X1001379Y323795D01*
X1001225Y323821D01*
X1001072Y323850D01*
X1000920Y323883D01*
X1000768Y323920D01*
X1000617Y323961D01*
X1000468Y324005D01*
X1000319Y324053D01*
X1000172Y324105D01*
X1000026Y324161D01*
X999882Y324220D01*
X999739Y324283D01*
X999598Y324350D01*
X999458Y324420D01*
X999321Y324493D01*
X999185Y324570D01*
X999051Y324650D01*
X998919Y324734D01*
X998790Y324821D01*
X998662Y324911D01*
X998537Y325004D01*
X998415Y325101D01*
X998294Y325200D01*
X998177Y325302D01*
X998062Y325408D01*
X997949Y325516D01*
X997840Y325627D01*
X997733Y325741D01*
X997629Y325857D01*
X997528Y325976D01*
X997430Y326098D01*
X997335Y326222D01*
X997243Y326348D01*
X997155Y326476D01*
X997070Y326607D01*
X996988Y326740D01*
X996909Y326875D01*
X996834Y327011D01*
X996762Y327150D01*
X996694Y327290D01*
X996629Y327432D01*
X996568Y327576D01*
X996511Y327721D01*
X996457Y327868D01*
X996407Y328015D01*
X996361Y328164D01*
X996318Y328314D01*
X996279Y328466D01*
X996244Y328618D01*
X996213Y328771D01*
X996186Y328924D01*
X996162Y329078D01*
X996143Y329233D01*
X996127Y329389D01*
X996115Y329544D01*
X996107Y329700D01*
X996103Y329856D01*
X996103Y330012D01*
X996107Y330168D01*
X996115Y330324D01*
X996127Y330479D01*
X996143Y330635D01*
X996162Y330790D01*
X996186Y330944D01*
X996213Y331097D01*
X996244Y331250D01*
X996279Y331402D01*
X996318Y331554D01*
X996361Y331704D01*
X996407Y331853D01*
X996457Y332000D01*
X996511Y332147D01*
X996568Y332292D01*
X996629Y332436D01*
X996694Y332578D01*
X996762Y332718D01*
X996834Y332857D01*
X996909Y332993D01*
X996988Y333128D01*
X997070Y333261D01*
X997155Y333392D01*
X997243Y333520D01*
X997335Y333646D01*
X997430Y333770D01*
X997528Y333892D01*
X997629Y334011D01*
X997733Y334127D01*
X997840Y334241D01*
X997949Y334352D01*
X998062Y334460D01*
X998177Y334566D01*
X998294Y334668D01*
X998415Y334767D01*
X998537Y334864D01*
X998662Y334957D01*
X998790Y335047D01*
X998919Y335134D01*
X999051Y335218D01*
X999185Y335298D01*
X999321Y335375D01*
X999458Y335448D01*
X999598Y335518D01*
X999739Y335585D01*
X999882Y335648D01*
X1000026Y335707D01*
X1000172Y335763D01*
X1000319Y335815D01*
X1000468Y335863D01*
X1000617Y335907D01*
X1000768Y335948D01*
X1000920Y335985D01*
X1001072Y336018D01*
X1001225Y336047D01*
X1001379Y336073D01*
X1001534Y336094D01*
X1001689Y336112D01*
X1001844Y336125D01*
X1002000Y336135D01*
X1002156Y336141D01*
X1002312Y336143D01*
X1005417Y336143D01*
X1005417Y323726D01*
X1014730Y345229D02*
X996103Y345229D01*
X996103Y352991D01*
X996105Y353126D01*
X996111Y353262D01*
X996121Y353397D01*
X996134Y353532D01*
X996152Y353666D01*
X996174Y353800D01*
X996199Y353933D01*
X996229Y354065D01*
X996262Y354196D01*
X996299Y354327D01*
X996339Y354456D01*
X996384Y354584D01*
X996432Y354710D01*
X996484Y354836D01*
X996539Y354959D01*
X996598Y355081D01*
X996661Y355201D01*
X996727Y355320D01*
X996796Y355436D01*
X996869Y355550D01*
X996945Y355662D01*
X997025Y355772D01*
X997107Y355879D01*
X997193Y355984D01*
X997281Y356087D01*
X997373Y356187D01*
X997467Y356284D01*
X997564Y356378D01*
X997664Y356470D01*
X997767Y356558D01*
X997872Y356644D01*
X997979Y356726D01*
X998089Y356806D01*
X998201Y356882D01*
X998315Y356955D01*
X998432Y357024D01*
X998550Y357090D01*
X998670Y357153D01*
X998792Y357212D01*
X998915Y357267D01*
X999041Y357319D01*
X999167Y357367D01*
X999295Y357412D01*
X999424Y357452D01*
X999555Y357489D01*
X999686Y357522D01*
X999818Y357552D01*
X999951Y357577D01*
X1000085Y357599D01*
X1000219Y357617D01*
X1000354Y357630D01*
X1000489Y357640D01*
X1000625Y357646D01*
X1000760Y357648D01*
X1000760Y357647D02*
X1014730Y357647D01*
X996103Y365061D02*
X996103Y374375D01*
X986790Y368166D02*
X1010073Y368166D01*
X1010073Y368165D02*
X1010208Y368167D01*
X1010344Y368173D01*
X1010479Y368183D01*
X1010614Y368196D01*
X1010748Y368214D01*
X1010882Y368236D01*
X1011015Y368261D01*
X1011147Y368291D01*
X1011278Y368324D01*
X1011409Y368361D01*
X1011538Y368401D01*
X1011666Y368446D01*
X1011792Y368494D01*
X1011918Y368546D01*
X1012041Y368601D01*
X1012163Y368660D01*
X1012283Y368723D01*
X1012402Y368789D01*
X1012518Y368858D01*
X1012632Y368931D01*
X1012744Y369007D01*
X1012854Y369087D01*
X1012961Y369169D01*
X1013066Y369255D01*
X1013169Y369343D01*
X1013269Y369435D01*
X1013366Y369529D01*
X1013460Y369626D01*
X1013552Y369726D01*
X1013640Y369829D01*
X1013726Y369934D01*
X1013808Y370041D01*
X1013888Y370151D01*
X1013964Y370263D01*
X1014037Y370377D01*
X1014106Y370494D01*
X1014172Y370612D01*
X1014235Y370732D01*
X1014294Y370854D01*
X1014349Y370977D01*
X1014401Y371103D01*
X1014449Y371229D01*
X1014494Y371357D01*
X1014534Y371486D01*
X1014571Y371617D01*
X1014604Y371748D01*
X1014634Y371880D01*
X1014659Y372013D01*
X1014681Y372147D01*
X1014699Y372281D01*
X1014712Y372416D01*
X1014722Y372551D01*
X1014728Y372687D01*
X1014730Y372822D01*
X1014730Y374375D01*
X1014730Y382499D02*
X996103Y382499D01*
X988342Y381723D02*
X986790Y381723D01*
X986790Y383276D01*
X988342Y383276D01*
X988342Y381723D01*
X986790Y405003D02*
X1014730Y405003D01*
X1014730Y420525D02*
X986790Y405003D01*
X986790Y420525D02*
X1014730Y420525D01*
X1014730Y430286D02*
X996103Y430286D01*
X988342Y429510D02*
X986790Y429510D01*
X986790Y431062D01*
X988342Y431062D01*
X988342Y429510D01*
X1014730Y443873D02*
X1014730Y450082D01*
X1014730Y443873D02*
X1014728Y443738D01*
X1014722Y443602D01*
X1014712Y443467D01*
X1014699Y443332D01*
X1014681Y443198D01*
X1014659Y443064D01*
X1014634Y442931D01*
X1014604Y442799D01*
X1014571Y442668D01*
X1014534Y442537D01*
X1014494Y442408D01*
X1014449Y442280D01*
X1014401Y442154D01*
X1014349Y442028D01*
X1014294Y441905D01*
X1014235Y441783D01*
X1014172Y441663D01*
X1014106Y441545D01*
X1014037Y441428D01*
X1013964Y441314D01*
X1013888Y441202D01*
X1013808Y441092D01*
X1013726Y440985D01*
X1013640Y440880D01*
X1013552Y440777D01*
X1013460Y440677D01*
X1013366Y440580D01*
X1013269Y440486D01*
X1013169Y440394D01*
X1013066Y440306D01*
X1012961Y440220D01*
X1012854Y440138D01*
X1012744Y440058D01*
X1012632Y439982D01*
X1012518Y439909D01*
X1012402Y439840D01*
X1012283Y439774D01*
X1012163Y439711D01*
X1012041Y439652D01*
X1011918Y439597D01*
X1011792Y439545D01*
X1011666Y439497D01*
X1011538Y439452D01*
X1011409Y439412D01*
X1011278Y439375D01*
X1011147Y439342D01*
X1011015Y439312D01*
X1010882Y439287D01*
X1010748Y439265D01*
X1010614Y439247D01*
X1010479Y439234D01*
X1010344Y439224D01*
X1010208Y439218D01*
X1010073Y439216D01*
X1010073Y439217D02*
X1000760Y439217D01*
X1000760Y439216D02*
X1000625Y439218D01*
X1000489Y439224D01*
X1000354Y439234D01*
X1000219Y439247D01*
X1000085Y439265D01*
X999951Y439287D01*
X999818Y439312D01*
X999686Y439342D01*
X999555Y439375D01*
X999424Y439412D01*
X999295Y439452D01*
X999167Y439497D01*
X999041Y439545D01*
X998915Y439597D01*
X998792Y439652D01*
X998670Y439711D01*
X998550Y439774D01*
X998432Y439840D01*
X998315Y439909D01*
X998201Y439982D01*
X998089Y440058D01*
X997979Y440138D01*
X997872Y440220D01*
X997767Y440306D01*
X997664Y440394D01*
X997564Y440486D01*
X997467Y440580D01*
X997373Y440677D01*
X997281Y440777D01*
X997193Y440880D01*
X997107Y440985D01*
X997025Y441092D01*
X996945Y441202D01*
X996869Y441314D01*
X996796Y441428D01*
X996727Y441545D01*
X996661Y441663D01*
X996598Y441783D01*
X996539Y441905D01*
X996484Y442028D01*
X996432Y442154D01*
X996384Y442280D01*
X996339Y442408D01*
X996299Y442537D01*
X996262Y442668D01*
X996229Y442799D01*
X996199Y442931D01*
X996174Y443064D01*
X996152Y443198D01*
X996134Y443332D01*
X996121Y443467D01*
X996111Y443602D01*
X996105Y443738D01*
X996103Y443873D01*
X996103Y450082D01*
X1002312Y457528D02*
X1008521Y457528D01*
X1002312Y457527D02*
X1002156Y457529D01*
X1002000Y457535D01*
X1001844Y457545D01*
X1001689Y457558D01*
X1001534Y457576D01*
X1001379Y457597D01*
X1001225Y457623D01*
X1001072Y457652D01*
X1000920Y457685D01*
X1000768Y457722D01*
X1000617Y457763D01*
X1000468Y457807D01*
X1000319Y457855D01*
X1000172Y457907D01*
X1000026Y457963D01*
X999882Y458022D01*
X999739Y458085D01*
X999598Y458152D01*
X999458Y458222D01*
X999321Y458295D01*
X999185Y458372D01*
X999051Y458452D01*
X998919Y458536D01*
X998790Y458623D01*
X998662Y458713D01*
X998537Y458806D01*
X998415Y458903D01*
X998294Y459002D01*
X998177Y459104D01*
X998062Y459210D01*
X997949Y459318D01*
X997840Y459429D01*
X997733Y459543D01*
X997629Y459659D01*
X997528Y459778D01*
X997430Y459900D01*
X997335Y460024D01*
X997243Y460150D01*
X997155Y460278D01*
X997070Y460409D01*
X996988Y460542D01*
X996909Y460677D01*
X996834Y460813D01*
X996762Y460952D01*
X996694Y461092D01*
X996629Y461234D01*
X996568Y461378D01*
X996511Y461523D01*
X996457Y461670D01*
X996407Y461817D01*
X996361Y461966D01*
X996318Y462116D01*
X996279Y462268D01*
X996244Y462420D01*
X996213Y462573D01*
X996186Y462726D01*
X996162Y462880D01*
X996143Y463035D01*
X996127Y463191D01*
X996115Y463346D01*
X996107Y463502D01*
X996103Y463658D01*
X996103Y463814D01*
X996107Y463970D01*
X996115Y464126D01*
X996127Y464281D01*
X996143Y464437D01*
X996162Y464592D01*
X996186Y464746D01*
X996213Y464899D01*
X996244Y465052D01*
X996279Y465204D01*
X996318Y465356D01*
X996361Y465506D01*
X996407Y465655D01*
X996457Y465802D01*
X996511Y465949D01*
X996568Y466094D01*
X996629Y466238D01*
X996694Y466380D01*
X996762Y466520D01*
X996834Y466659D01*
X996909Y466795D01*
X996988Y466930D01*
X997070Y467063D01*
X997155Y467194D01*
X997243Y467322D01*
X997335Y467448D01*
X997430Y467572D01*
X997528Y467694D01*
X997629Y467813D01*
X997733Y467929D01*
X997840Y468043D01*
X997949Y468154D01*
X998062Y468262D01*
X998177Y468368D01*
X998294Y468470D01*
X998415Y468569D01*
X998537Y468666D01*
X998662Y468759D01*
X998790Y468849D01*
X998919Y468936D01*
X999051Y469020D01*
X999185Y469100D01*
X999321Y469177D01*
X999458Y469250D01*
X999598Y469320D01*
X999739Y469387D01*
X999882Y469450D01*
X1000026Y469509D01*
X1000172Y469565D01*
X1000319Y469617D01*
X1000468Y469665D01*
X1000617Y469709D01*
X1000768Y469750D01*
X1000920Y469787D01*
X1001072Y469820D01*
X1001225Y469849D01*
X1001379Y469875D01*
X1001534Y469896D01*
X1001689Y469914D01*
X1001844Y469927D01*
X1002000Y469937D01*
X1002156Y469943D01*
X1002312Y469945D01*
X1008521Y469945D01*
X1008677Y469943D01*
X1008833Y469937D01*
X1008989Y469927D01*
X1009144Y469914D01*
X1009299Y469896D01*
X1009454Y469875D01*
X1009608Y469849D01*
X1009761Y469820D01*
X1009913Y469787D01*
X1010065Y469750D01*
X1010216Y469709D01*
X1010365Y469665D01*
X1010514Y469617D01*
X1010661Y469565D01*
X1010807Y469509D01*
X1010951Y469450D01*
X1011094Y469387D01*
X1011235Y469320D01*
X1011375Y469250D01*
X1011512Y469177D01*
X1011648Y469100D01*
X1011782Y469020D01*
X1011914Y468936D01*
X1012043Y468849D01*
X1012171Y468759D01*
X1012296Y468666D01*
X1012418Y468569D01*
X1012539Y468470D01*
X1012656Y468368D01*
X1012771Y468262D01*
X1012884Y468154D01*
X1012993Y468043D01*
X1013100Y467929D01*
X1013204Y467813D01*
X1013305Y467694D01*
X1013403Y467572D01*
X1013498Y467448D01*
X1013590Y467322D01*
X1013678Y467194D01*
X1013763Y467063D01*
X1013845Y466930D01*
X1013924Y466795D01*
X1013999Y466659D01*
X1014071Y466520D01*
X1014139Y466380D01*
X1014204Y466238D01*
X1014265Y466094D01*
X1014322Y465949D01*
X1014376Y465802D01*
X1014426Y465655D01*
X1014472Y465506D01*
X1014515Y465356D01*
X1014554Y465204D01*
X1014589Y465052D01*
X1014620Y464899D01*
X1014647Y464746D01*
X1014671Y464592D01*
X1014690Y464437D01*
X1014706Y464281D01*
X1014718Y464126D01*
X1014726Y463970D01*
X1014730Y463814D01*
X1014730Y463658D01*
X1014726Y463502D01*
X1014718Y463346D01*
X1014706Y463191D01*
X1014690Y463035D01*
X1014671Y462880D01*
X1014647Y462726D01*
X1014620Y462573D01*
X1014589Y462420D01*
X1014554Y462268D01*
X1014515Y462116D01*
X1014472Y461966D01*
X1014426Y461817D01*
X1014376Y461670D01*
X1014322Y461523D01*
X1014265Y461378D01*
X1014204Y461234D01*
X1014139Y461092D01*
X1014071Y460952D01*
X1013999Y460813D01*
X1013924Y460677D01*
X1013845Y460542D01*
X1013763Y460409D01*
X1013678Y460278D01*
X1013590Y460150D01*
X1013498Y460024D01*
X1013403Y459900D01*
X1013305Y459778D01*
X1013204Y459659D01*
X1013100Y459543D01*
X1012993Y459429D01*
X1012884Y459318D01*
X1012771Y459210D01*
X1012656Y459104D01*
X1012539Y459002D01*
X1012418Y458903D01*
X1012296Y458806D01*
X1012171Y458713D01*
X1012043Y458623D01*
X1011914Y458536D01*
X1011782Y458452D01*
X1011648Y458372D01*
X1011512Y458295D01*
X1011375Y458222D01*
X1011235Y458152D01*
X1011094Y458085D01*
X1010951Y458022D01*
X1010807Y457963D01*
X1010661Y457907D01*
X1010514Y457855D01*
X1010365Y457807D01*
X1010216Y457763D01*
X1010065Y457722D01*
X1009913Y457685D01*
X1009761Y457652D01*
X1009608Y457623D01*
X1009454Y457597D01*
X1009299Y457576D01*
X1009144Y457558D01*
X1008989Y457545D01*
X1008833Y457535D01*
X1008677Y457529D01*
X1008521Y457527D01*
X1010073Y478950D02*
X986790Y478950D01*
X1010073Y478949D02*
X1010208Y478951D01*
X1010344Y478957D01*
X1010479Y478967D01*
X1010614Y478980D01*
X1010748Y478998D01*
X1010882Y479020D01*
X1011015Y479045D01*
X1011147Y479075D01*
X1011278Y479108D01*
X1011409Y479145D01*
X1011538Y479185D01*
X1011666Y479230D01*
X1011792Y479278D01*
X1011918Y479330D01*
X1012041Y479385D01*
X1012163Y479444D01*
X1012283Y479507D01*
X1012402Y479573D01*
X1012518Y479642D01*
X1012632Y479715D01*
X1012744Y479791D01*
X1012854Y479871D01*
X1012961Y479953D01*
X1013066Y480039D01*
X1013169Y480127D01*
X1013269Y480219D01*
X1013366Y480313D01*
X1013460Y480410D01*
X1013552Y480510D01*
X1013640Y480613D01*
X1013726Y480718D01*
X1013808Y480825D01*
X1013888Y480935D01*
X1013964Y481047D01*
X1014037Y481161D01*
X1014106Y481278D01*
X1014172Y481396D01*
X1014235Y481516D01*
X1014294Y481638D01*
X1014349Y481761D01*
X1014401Y481887D01*
X1014449Y482013D01*
X1014494Y482141D01*
X1014534Y482270D01*
X1014571Y482401D01*
X1014604Y482532D01*
X1014634Y482664D01*
X1014659Y482797D01*
X1014681Y482931D01*
X1014699Y483065D01*
X1014712Y483200D01*
X1014722Y483335D01*
X1014728Y483471D01*
X1014730Y483606D01*
X1003864Y496388D02*
X1003864Y503373D01*
X1003864Y496388D02*
X1003866Y496242D01*
X1003872Y496096D01*
X1003882Y495951D01*
X1003895Y495806D01*
X1003913Y495661D01*
X1003934Y495516D01*
X1003960Y495373D01*
X1003989Y495230D01*
X1004022Y495088D01*
X1004059Y494947D01*
X1004099Y494807D01*
X1004144Y494668D01*
X1004192Y494530D01*
X1004243Y494393D01*
X1004299Y494258D01*
X1004358Y494125D01*
X1004420Y493993D01*
X1004486Y493863D01*
X1004556Y493735D01*
X1004629Y493609D01*
X1004705Y493484D01*
X1004785Y493362D01*
X1004868Y493242D01*
X1004954Y493124D01*
X1005043Y493009D01*
X1005135Y492896D01*
X1005230Y492785D01*
X1005329Y492677D01*
X1005430Y492572D01*
X1005533Y492470D01*
X1005640Y492370D01*
X1005749Y492273D01*
X1005861Y492180D01*
X1005975Y492089D01*
X1006092Y492001D01*
X1006211Y491917D01*
X1006332Y491835D01*
X1006455Y491758D01*
X1006581Y491683D01*
X1006708Y491612D01*
X1006837Y491544D01*
X1006968Y491480D01*
X1007101Y491419D01*
X1007235Y491362D01*
X1007370Y491308D01*
X1007508Y491258D01*
X1007646Y491212D01*
X1007785Y491170D01*
X1007926Y491131D01*
X1008068Y491096D01*
X1008210Y491065D01*
X1008354Y491038D01*
X1008498Y491014D01*
X1008642Y490995D01*
X1008787Y490979D01*
X1008933Y490967D01*
X1009078Y490959D01*
X1009224Y490955D01*
X1009370Y490955D01*
X1009516Y490959D01*
X1009661Y490967D01*
X1009807Y490979D01*
X1009952Y490995D01*
X1010096Y491014D01*
X1010240Y491038D01*
X1010384Y491065D01*
X1010526Y491096D01*
X1010668Y491131D01*
X1010809Y491170D01*
X1010948Y491212D01*
X1011086Y491258D01*
X1011224Y491308D01*
X1011359Y491362D01*
X1011493Y491419D01*
X1011626Y491480D01*
X1011757Y491544D01*
X1011886Y491612D01*
X1012014Y491683D01*
X1012139Y491758D01*
X1012262Y491835D01*
X1012383Y491917D01*
X1012502Y492001D01*
X1012619Y492089D01*
X1012733Y492180D01*
X1012845Y492273D01*
X1012954Y492370D01*
X1013061Y492470D01*
X1013164Y492572D01*
X1013265Y492677D01*
X1013364Y492785D01*
X1013459Y492896D01*
X1013551Y493009D01*
X1013640Y493124D01*
X1013726Y493242D01*
X1013809Y493362D01*
X1013889Y493484D01*
X1013965Y493609D01*
X1014038Y493735D01*
X1014108Y493863D01*
X1014174Y493993D01*
X1014236Y494125D01*
X1014295Y494258D01*
X1014351Y494393D01*
X1014402Y494530D01*
X1014450Y494668D01*
X1014495Y494807D01*
X1014535Y494947D01*
X1014572Y495088D01*
X1014605Y495230D01*
X1014634Y495373D01*
X1014660Y495516D01*
X1014681Y495661D01*
X1014699Y495806D01*
X1014712Y495951D01*
X1014722Y496096D01*
X1014728Y496242D01*
X1014730Y496388D01*
X1014730Y503373D01*
X1000760Y503373D01*
X1000625Y503371D01*
X1000489Y503365D01*
X1000354Y503355D01*
X1000219Y503342D01*
X1000085Y503324D01*
X999951Y503302D01*
X999818Y503277D01*
X999686Y503247D01*
X999555Y503214D01*
X999424Y503177D01*
X999295Y503137D01*
X999167Y503092D01*
X999041Y503044D01*
X998915Y502992D01*
X998792Y502937D01*
X998670Y502878D01*
X998550Y502815D01*
X998432Y502749D01*
X998315Y502680D01*
X998201Y502607D01*
X998089Y502531D01*
X997979Y502451D01*
X997872Y502369D01*
X997767Y502283D01*
X997664Y502195D01*
X997564Y502103D01*
X997467Y502009D01*
X997373Y501912D01*
X997281Y501812D01*
X997193Y501709D01*
X997107Y501604D01*
X997025Y501497D01*
X996945Y501387D01*
X996869Y501275D01*
X996796Y501161D01*
X996727Y501045D01*
X996661Y500926D01*
X996598Y500806D01*
X996539Y500684D01*
X996484Y500561D01*
X996432Y500435D01*
X996384Y500309D01*
X996339Y500181D01*
X996299Y500052D01*
X996262Y499921D01*
X996229Y499790D01*
X996199Y499658D01*
X996174Y499525D01*
X996152Y499391D01*
X996134Y499257D01*
X996121Y499122D01*
X996111Y498987D01*
X996105Y498851D01*
X996103Y498716D01*
X996103Y492508D01*
X1003864Y514810D02*
X1006969Y522571D01*
X1003865Y514810D02*
X1003817Y514694D01*
X1003765Y514580D01*
X1003709Y514468D01*
X1003650Y514357D01*
X1003588Y514248D01*
X1003522Y514141D01*
X1003453Y514036D01*
X1003380Y513934D01*
X1003305Y513834D01*
X1003226Y513736D01*
X1003145Y513640D01*
X1003060Y513548D01*
X1002973Y513457D01*
X1002883Y513370D01*
X1002790Y513286D01*
X1002694Y513204D01*
X1002596Y513126D01*
X1002496Y513050D01*
X1002393Y512978D01*
X1002289Y512909D01*
X1002182Y512843D01*
X1002073Y512781D01*
X1001962Y512722D01*
X1001849Y512667D01*
X1001735Y512615D01*
X1001619Y512566D01*
X1001502Y512522D01*
X1001383Y512481D01*
X1001263Y512443D01*
X1001142Y512410D01*
X1001020Y512380D01*
X1000898Y512354D01*
X1000774Y512332D01*
X1000650Y512314D01*
X1000525Y512300D01*
X1000400Y512289D01*
X1000275Y512283D01*
X1000149Y512280D01*
X1000024Y512281D01*
X999898Y512287D01*
X999773Y512296D01*
X999648Y512309D01*
X999524Y512326D01*
X999400Y512346D01*
X999277Y512371D01*
X999155Y512399D01*
X999034Y512432D01*
X998913Y512468D01*
X998794Y512507D01*
X998677Y512551D01*
X998560Y512598D01*
X998445Y512649D01*
X998332Y512703D01*
X998221Y512761D01*
X998111Y512822D01*
X998004Y512886D01*
X997898Y512954D01*
X997795Y513025D01*
X997694Y513100D01*
X997595Y513177D01*
X997498Y513258D01*
X997405Y513341D01*
X997314Y513427D01*
X997225Y513517D01*
X997140Y513608D01*
X997057Y513703D01*
X996978Y513800D01*
X996901Y513899D01*
X996828Y514001D01*
X996757Y514105D01*
X996690Y514211D01*
X996627Y514320D01*
X996567Y514430D01*
X996510Y514542D01*
X996457Y514655D01*
X996407Y514771D01*
X996361Y514887D01*
X996319Y515006D01*
X996280Y515125D01*
X996245Y515245D01*
X996214Y515367D01*
X996186Y515490D01*
X996163Y515613D01*
X996143Y515737D01*
X996128Y515861D01*
X996116Y515986D01*
X996108Y516112D01*
X996104Y516237D01*
X996103Y516363D01*
X996104Y516363D02*
X996115Y516787D01*
X996136Y517210D01*
X996168Y517632D01*
X996209Y518054D01*
X996261Y518475D01*
X996323Y518894D01*
X996395Y519312D01*
X996477Y519728D01*
X996569Y520141D01*
X996671Y520553D01*
X996783Y520962D01*
X996904Y521368D01*
X997035Y521771D01*
X997176Y522170D01*
X997327Y522567D01*
X997487Y522959D01*
X997656Y523348D01*
X1006969Y522572D02*
X1007017Y522688D01*
X1007069Y522802D01*
X1007125Y522914D01*
X1007184Y523025D01*
X1007246Y523134D01*
X1007312Y523241D01*
X1007381Y523346D01*
X1007454Y523448D01*
X1007529Y523548D01*
X1007608Y523646D01*
X1007689Y523742D01*
X1007774Y523834D01*
X1007861Y523925D01*
X1007951Y524012D01*
X1008044Y524096D01*
X1008140Y524178D01*
X1008238Y524256D01*
X1008338Y524332D01*
X1008441Y524404D01*
X1008545Y524473D01*
X1008652Y524539D01*
X1008761Y524601D01*
X1008872Y524660D01*
X1008985Y524715D01*
X1009099Y524767D01*
X1009215Y524816D01*
X1009332Y524860D01*
X1009451Y524901D01*
X1009571Y524939D01*
X1009692Y524972D01*
X1009814Y525002D01*
X1009936Y525028D01*
X1010060Y525050D01*
X1010184Y525068D01*
X1010309Y525082D01*
X1010434Y525093D01*
X1010559Y525099D01*
X1010685Y525102D01*
X1010810Y525101D01*
X1010936Y525095D01*
X1011061Y525086D01*
X1011186Y525073D01*
X1011310Y525056D01*
X1011434Y525036D01*
X1011557Y525011D01*
X1011679Y524983D01*
X1011800Y524950D01*
X1011921Y524914D01*
X1012040Y524875D01*
X1012157Y524831D01*
X1012274Y524784D01*
X1012389Y524733D01*
X1012502Y524679D01*
X1012613Y524621D01*
X1012723Y524560D01*
X1012830Y524496D01*
X1012936Y524428D01*
X1013039Y524357D01*
X1013140Y524282D01*
X1013239Y524205D01*
X1013336Y524124D01*
X1013429Y524041D01*
X1013520Y523955D01*
X1013609Y523865D01*
X1013694Y523774D01*
X1013777Y523679D01*
X1013856Y523582D01*
X1013933Y523483D01*
X1014006Y523381D01*
X1014077Y523277D01*
X1014144Y523171D01*
X1014207Y523062D01*
X1014267Y522952D01*
X1014324Y522840D01*
X1014377Y522727D01*
X1014427Y522611D01*
X1014473Y522495D01*
X1014515Y522376D01*
X1014554Y522257D01*
X1014589Y522137D01*
X1014620Y522015D01*
X1014648Y521892D01*
X1014671Y521769D01*
X1014691Y521645D01*
X1014706Y521521D01*
X1014718Y521396D01*
X1014726Y521270D01*
X1014730Y521145D01*
X1014731Y521019D01*
X1014730Y521019D02*
X1014714Y520396D01*
X1014683Y519775D01*
X1014637Y519154D01*
X1014577Y518534D01*
X1014502Y517916D01*
X1014413Y517300D01*
X1014308Y516686D01*
X1014190Y516075D01*
X1014057Y515466D01*
X1013909Y514861D01*
X1013748Y514260D01*
X1013572Y513663D01*
X1013382Y513070D01*
X1013178Y512482D01*
X1014730Y545973D02*
X1014730Y555286D01*
X1014728Y555441D01*
X1014722Y555595D01*
X1014713Y555750D01*
X1014699Y555904D01*
X1014682Y556058D01*
X1014661Y556211D01*
X1014636Y556364D01*
X1014607Y556516D01*
X1014574Y556668D01*
X1014538Y556818D01*
X1014498Y556968D01*
X1014454Y557116D01*
X1014407Y557263D01*
X1014356Y557410D01*
X1014301Y557554D01*
X1014242Y557698D01*
X1014181Y557840D01*
X1014115Y557980D01*
X1014046Y558119D01*
X1013974Y558255D01*
X1013898Y558391D01*
X1013819Y558524D01*
X1013737Y558655D01*
X1013651Y558784D01*
X1013562Y558910D01*
X1013470Y559035D01*
X1013375Y559157D01*
X1013277Y559277D01*
X1013176Y559394D01*
X1013073Y559509D01*
X1012966Y559621D01*
X1012856Y559731D01*
X1012744Y559838D01*
X1012629Y559941D01*
X1012512Y560042D01*
X1012392Y560140D01*
X1012270Y560235D01*
X1012145Y560327D01*
X1012019Y560416D01*
X1011890Y560502D01*
X1011759Y560584D01*
X1011626Y560663D01*
X1011490Y560739D01*
X1011354Y560811D01*
X1011215Y560880D01*
X1011075Y560946D01*
X1010933Y561007D01*
X1010789Y561066D01*
X1010645Y561121D01*
X1010498Y561172D01*
X1010351Y561219D01*
X1010203Y561263D01*
X1010053Y561303D01*
X1009903Y561339D01*
X1009751Y561372D01*
X1009599Y561401D01*
X1009446Y561426D01*
X1009293Y561447D01*
X1009139Y561464D01*
X1008985Y561478D01*
X1008830Y561487D01*
X1008676Y561493D01*
X1008521Y561495D01*
X1005417Y561495D01*
X1005260Y561493D01*
X1005103Y561487D01*
X1004946Y561477D01*
X1004789Y561463D01*
X1004633Y561445D01*
X1004477Y561423D01*
X1004322Y561398D01*
X1004167Y561368D01*
X1004013Y561334D01*
X1003861Y561297D01*
X1003709Y561255D01*
X1003558Y561210D01*
X1003409Y561161D01*
X1003261Y561109D01*
X1003114Y561052D01*
X1002968Y560992D01*
X1002825Y560928D01*
X1002683Y560860D01*
X1002542Y560789D01*
X1002404Y560715D01*
X1002267Y560637D01*
X1002133Y560555D01*
X1002000Y560470D01*
X1001870Y560382D01*
X1001742Y560291D01*
X1001616Y560196D01*
X1001493Y560098D01*
X1001373Y559997D01*
X1001255Y559893D01*
X1001139Y559786D01*
X1001027Y559676D01*
X1000917Y559564D01*
X1000810Y559448D01*
X1000706Y559330D01*
X1000605Y559210D01*
X1000507Y559087D01*
X1000412Y558961D01*
X1000321Y558833D01*
X1000233Y558703D01*
X1000148Y558570D01*
X1000066Y558436D01*
X999988Y558299D01*
X999914Y558161D01*
X999843Y558020D01*
X999775Y557878D01*
X999711Y557735D01*
X999651Y557589D01*
X999595Y557442D01*
X999542Y557294D01*
X999493Y557145D01*
X999448Y556994D01*
X999406Y556842D01*
X999369Y556690D01*
X999335Y556536D01*
X999305Y556381D01*
X999280Y556226D01*
X999258Y556070D01*
X999240Y555914D01*
X999226Y555757D01*
X999216Y555601D01*
X999210Y555443D01*
X999208Y555286D01*
X999208Y545973D01*
X986790Y545973D01*
X986790Y561495D01*
X990671Y569765D02*
X995327Y569765D01*
X990671Y569764D02*
X990548Y569766D01*
X990425Y569772D01*
X990302Y569782D01*
X990180Y569795D01*
X990058Y569813D01*
X989937Y569834D01*
X989816Y569859D01*
X989696Y569888D01*
X989578Y569921D01*
X989460Y569958D01*
X989344Y569998D01*
X989229Y570042D01*
X989115Y570090D01*
X989003Y570141D01*
X988893Y570195D01*
X988784Y570254D01*
X988677Y570315D01*
X988573Y570380D01*
X988470Y570448D01*
X988370Y570520D01*
X988272Y570594D01*
X988176Y570672D01*
X988083Y570753D01*
X987993Y570836D01*
X987905Y570923D01*
X987820Y571012D01*
X987738Y571103D01*
X987659Y571198D01*
X987583Y571295D01*
X987510Y571394D01*
X987440Y571495D01*
X987373Y571599D01*
X987310Y571705D01*
X987250Y571812D01*
X987194Y571922D01*
X987141Y572033D01*
X987091Y572146D01*
X987046Y572260D01*
X987003Y572376D01*
X986965Y572493D01*
X986930Y572611D01*
X986899Y572730D01*
X986872Y572850D01*
X986849Y572971D01*
X986830Y573093D01*
X986814Y573215D01*
X986802Y573337D01*
X986794Y573460D01*
X986790Y573583D01*
X986790Y573707D01*
X986794Y573830D01*
X986802Y573953D01*
X986814Y574075D01*
X986830Y574197D01*
X986849Y574319D01*
X986872Y574440D01*
X986899Y574560D01*
X986930Y574679D01*
X986965Y574797D01*
X987003Y574914D01*
X987046Y575030D01*
X987091Y575144D01*
X987141Y575257D01*
X987194Y575368D01*
X987250Y575478D01*
X987310Y575586D01*
X987373Y575691D01*
X987440Y575795D01*
X987510Y575896D01*
X987583Y575995D01*
X987659Y576092D01*
X987738Y576187D01*
X987820Y576278D01*
X987905Y576367D01*
X987993Y576454D01*
X988083Y576537D01*
X988176Y576618D01*
X988272Y576696D01*
X988370Y576770D01*
X988470Y576842D01*
X988573Y576910D01*
X988677Y576975D01*
X988784Y577036D01*
X988893Y577095D01*
X989003Y577149D01*
X989115Y577200D01*
X989229Y577248D01*
X989344Y577292D01*
X989460Y577332D01*
X989578Y577369D01*
X989696Y577402D01*
X989816Y577431D01*
X989937Y577456D01*
X990058Y577477D01*
X990180Y577495D01*
X990302Y577508D01*
X990425Y577518D01*
X990548Y577524D01*
X990671Y577526D01*
X995327Y577526D01*
X995450Y577524D01*
X995573Y577518D01*
X995696Y577508D01*
X995818Y577495D01*
X995940Y577477D01*
X996061Y577456D01*
X996182Y577431D01*
X996302Y577402D01*
X996420Y577369D01*
X996538Y577332D01*
X996654Y577292D01*
X996769Y577248D01*
X996883Y577200D01*
X996995Y577149D01*
X997105Y577095D01*
X997214Y577036D01*
X997321Y576975D01*
X997425Y576910D01*
X997528Y576842D01*
X997628Y576770D01*
X997726Y576696D01*
X997822Y576618D01*
X997915Y576537D01*
X998005Y576454D01*
X998093Y576367D01*
X998178Y576278D01*
X998260Y576187D01*
X998339Y576092D01*
X998415Y575995D01*
X998488Y575896D01*
X998558Y575795D01*
X998625Y575691D01*
X998688Y575586D01*
X998748Y575478D01*
X998804Y575368D01*
X998857Y575257D01*
X998907Y575144D01*
X998952Y575030D01*
X998995Y574914D01*
X999033Y574797D01*
X999068Y574679D01*
X999099Y574560D01*
X999126Y574440D01*
X999149Y574319D01*
X999168Y574197D01*
X999184Y574075D01*
X999196Y573953D01*
X999204Y573830D01*
X999208Y573707D01*
X999208Y573583D01*
X999204Y573460D01*
X999196Y573337D01*
X999184Y573215D01*
X999168Y573093D01*
X999149Y572971D01*
X999126Y572850D01*
X999099Y572730D01*
X999068Y572611D01*
X999033Y572493D01*
X998995Y572376D01*
X998952Y572260D01*
X998907Y572146D01*
X998857Y572033D01*
X998804Y571922D01*
X998748Y571812D01*
X998688Y571705D01*
X998625Y571599D01*
X998558Y571495D01*
X998488Y571394D01*
X998415Y571295D01*
X998339Y571198D01*
X998260Y571103D01*
X998178Y571012D01*
X998093Y570923D01*
X998005Y570836D01*
X997915Y570753D01*
X997822Y570672D01*
X997726Y570594D01*
X997628Y570520D01*
X997528Y570448D01*
X997425Y570380D01*
X997321Y570315D01*
X997214Y570254D01*
X997105Y570195D01*
X996995Y570141D01*
X996883Y570090D01*
X996769Y570042D01*
X996654Y569998D01*
X996538Y569958D01*
X996420Y569921D01*
X996302Y569888D01*
X996182Y569859D01*
X996061Y569834D01*
X995940Y569813D01*
X995818Y569795D01*
X995696Y569782D01*
X995573Y569772D01*
X995450Y569766D01*
X995327Y569764D01*
X1005417Y569765D02*
X1005417Y577526D01*
X1014730Y598538D02*
X1014730Y606299D01*
X1014728Y606488D01*
X1014721Y606677D01*
X1014709Y606866D01*
X1014693Y607054D01*
X1014673Y607242D01*
X1014647Y607429D01*
X1014618Y607616D01*
X1014583Y607802D01*
X1014544Y607986D01*
X1014501Y608170D01*
X1014453Y608353D01*
X1014401Y608535D01*
X1014344Y608715D01*
X1014283Y608894D01*
X1014218Y609071D01*
X1014148Y609247D01*
X1014074Y609421D01*
X1013996Y609593D01*
X1013914Y609763D01*
X1013827Y609931D01*
X1013737Y610097D01*
X1013642Y610261D01*
X1013544Y610422D01*
X1013442Y610581D01*
X1013335Y610738D01*
X1013225Y610891D01*
X1013112Y611042D01*
X1012994Y611190D01*
X1012874Y611336D01*
X1012749Y611478D01*
X1012621Y611617D01*
X1012490Y611753D01*
X1012356Y611886D01*
X1012218Y612016D01*
X1012077Y612142D01*
X1011934Y612264D01*
X1011787Y612384D01*
X1011637Y612499D01*
X1011485Y612611D01*
X1011330Y612719D01*
X1011172Y612823D01*
X1011012Y612924D01*
X1010850Y613020D01*
X1010685Y613113D01*
X1010518Y613201D01*
X1010349Y613286D01*
X1010177Y613366D01*
X1010004Y613442D01*
X1009830Y613514D01*
X1009653Y613581D01*
X1009475Y613644D01*
X1009295Y613703D01*
X1009114Y613758D01*
X1008932Y613808D01*
X1008749Y613853D01*
X1008564Y613894D01*
X1008379Y613931D01*
X1008192Y613963D01*
X1008005Y613990D01*
X1007818Y614013D01*
X1007630Y614032D01*
X1007441Y614046D01*
X1007252Y614055D01*
X1007064Y614059D01*
X1006874Y614059D01*
X1006686Y614055D01*
X1006497Y614046D01*
X1006308Y614032D01*
X1006120Y614013D01*
X1005933Y613990D01*
X1005746Y613963D01*
X1005559Y613931D01*
X1005374Y613894D01*
X1005189Y613853D01*
X1005006Y613808D01*
X1004824Y613758D01*
X1004643Y613703D01*
X1004463Y613644D01*
X1004285Y613581D01*
X1004108Y613514D01*
X1003934Y613442D01*
X1003761Y613366D01*
X1003589Y613286D01*
X1003420Y613201D01*
X1003253Y613113D01*
X1003089Y613020D01*
X1002926Y612924D01*
X1002766Y612823D01*
X1002608Y612719D01*
X1002453Y612611D01*
X1002301Y612499D01*
X1002151Y612384D01*
X1002004Y612264D01*
X1001861Y612142D01*
X1001720Y612016D01*
X1001582Y611886D01*
X1001448Y611753D01*
X1001317Y611617D01*
X1001189Y611478D01*
X1001064Y611336D01*
X1000944Y611190D01*
X1000826Y611042D01*
X1000713Y610891D01*
X1000603Y610738D01*
X1000496Y610581D01*
X1000394Y610422D01*
X1000296Y610261D01*
X1000201Y610097D01*
X1000111Y609931D01*
X1000024Y609763D01*
X999942Y609593D01*
X999864Y609421D01*
X999790Y609247D01*
X999720Y609071D01*
X999655Y608894D01*
X999594Y608715D01*
X999537Y608535D01*
X999485Y608353D01*
X999437Y608170D01*
X999394Y607986D01*
X999355Y607802D01*
X999320Y607616D01*
X999291Y607429D01*
X999265Y607242D01*
X999245Y607054D01*
X999229Y606866D01*
X999217Y606677D01*
X999210Y606488D01*
X999208Y606299D01*
X986790Y607851D02*
X986790Y598538D01*
X986790Y607851D02*
X986792Y608007D01*
X986798Y608163D01*
X986808Y608319D01*
X986821Y608474D01*
X986839Y608629D01*
X986860Y608784D01*
X986886Y608938D01*
X986915Y609091D01*
X986948Y609243D01*
X986985Y609395D01*
X987026Y609546D01*
X987070Y609695D01*
X987118Y609844D01*
X987170Y609991D01*
X987226Y610137D01*
X987285Y610281D01*
X987348Y610424D01*
X987415Y610565D01*
X987485Y610705D01*
X987558Y610842D01*
X987635Y610978D01*
X987715Y611112D01*
X987799Y611244D01*
X987886Y611373D01*
X987976Y611501D01*
X988069Y611626D01*
X988166Y611748D01*
X988265Y611869D01*
X988367Y611986D01*
X988473Y612101D01*
X988581Y612214D01*
X988692Y612323D01*
X988806Y612430D01*
X988922Y612534D01*
X989041Y612635D01*
X989163Y612733D01*
X989287Y612828D01*
X989413Y612920D01*
X989541Y613008D01*
X989672Y613093D01*
X989805Y613175D01*
X989940Y613254D01*
X990076Y613329D01*
X990215Y613401D01*
X990355Y613469D01*
X990497Y613534D01*
X990641Y613595D01*
X990786Y613652D01*
X990933Y613706D01*
X991080Y613756D01*
X991229Y613802D01*
X991379Y613845D01*
X991531Y613884D01*
X991683Y613919D01*
X991836Y613950D01*
X991989Y613977D01*
X992143Y614001D01*
X992298Y614020D01*
X992454Y614036D01*
X992609Y614048D01*
X992765Y614056D01*
X992921Y614060D01*
X993077Y614060D01*
X993233Y614056D01*
X993389Y614048D01*
X993544Y614036D01*
X993700Y614020D01*
X993855Y614001D01*
X994009Y613977D01*
X994162Y613950D01*
X994315Y613919D01*
X994467Y613884D01*
X994619Y613845D01*
X994769Y613802D01*
X994918Y613756D01*
X995065Y613706D01*
X995212Y613652D01*
X995357Y613595D01*
X995501Y613534D01*
X995643Y613469D01*
X995783Y613401D01*
X995922Y613329D01*
X996058Y613254D01*
X996193Y613175D01*
X996326Y613093D01*
X996457Y613008D01*
X996585Y612920D01*
X996711Y612828D01*
X996835Y612733D01*
X996957Y612635D01*
X997076Y612534D01*
X997192Y612430D01*
X997306Y612323D01*
X997417Y612214D01*
X997525Y612101D01*
X997631Y611986D01*
X997733Y611869D01*
X997832Y611748D01*
X997929Y611626D01*
X998022Y611501D01*
X998112Y611373D01*
X998199Y611244D01*
X998283Y611112D01*
X998363Y610978D01*
X998440Y610842D01*
X998513Y610705D01*
X998583Y610565D01*
X998650Y610424D01*
X998713Y610281D01*
X998772Y610137D01*
X998828Y609991D01*
X998880Y609844D01*
X998928Y609695D01*
X998972Y609546D01*
X999013Y609395D01*
X999050Y609243D01*
X999083Y609091D01*
X999112Y608938D01*
X999138Y608784D01*
X999159Y608629D01*
X999177Y608474D01*
X999190Y608319D01*
X999200Y608163D01*
X999206Y608007D01*
X999208Y607851D01*
X999208Y601643D01*
X992999Y624618D02*
X992999Y629275D01*
X992999Y624618D02*
X993001Y624507D01*
X993007Y624397D01*
X993017Y624286D01*
X993031Y624176D01*
X993048Y624067D01*
X993070Y623958D01*
X993095Y623850D01*
X993125Y623744D01*
X993158Y623638D01*
X993195Y623533D01*
X993235Y623430D01*
X993280Y623329D01*
X993327Y623229D01*
X993379Y623130D01*
X993434Y623034D01*
X993492Y622940D01*
X993553Y622848D01*
X993618Y622758D01*
X993686Y622670D01*
X993757Y622585D01*
X993831Y622503D01*
X993908Y622423D01*
X993988Y622346D01*
X994070Y622272D01*
X994155Y622201D01*
X994243Y622133D01*
X994333Y622068D01*
X994425Y622007D01*
X994519Y621949D01*
X994615Y621894D01*
X994714Y621842D01*
X994814Y621795D01*
X994915Y621750D01*
X995018Y621710D01*
X995123Y621673D01*
X995229Y621640D01*
X995335Y621610D01*
X995443Y621585D01*
X995552Y621563D01*
X995661Y621546D01*
X995771Y621532D01*
X995882Y621522D01*
X995992Y621516D01*
X996103Y621514D01*
X996214Y621516D01*
X996324Y621522D01*
X996435Y621532D01*
X996545Y621546D01*
X996654Y621563D01*
X996763Y621585D01*
X996871Y621610D01*
X996977Y621640D01*
X997083Y621673D01*
X997188Y621710D01*
X997291Y621750D01*
X997392Y621795D01*
X997492Y621842D01*
X997591Y621894D01*
X997687Y621949D01*
X997781Y622007D01*
X997873Y622068D01*
X997963Y622133D01*
X998051Y622201D01*
X998136Y622272D01*
X998218Y622346D01*
X998298Y622423D01*
X998375Y622503D01*
X998449Y622585D01*
X998520Y622670D01*
X998588Y622758D01*
X998653Y622848D01*
X998714Y622940D01*
X998772Y623034D01*
X998827Y623130D01*
X998879Y623229D01*
X998926Y623329D01*
X998971Y623430D01*
X999011Y623533D01*
X999048Y623638D01*
X999081Y623744D01*
X999111Y623850D01*
X999136Y623958D01*
X999158Y624067D01*
X999175Y624176D01*
X999189Y624286D01*
X999199Y624397D01*
X999205Y624507D01*
X999207Y624618D01*
X999208Y624618D02*
X999208Y629275D01*
X989894Y629275D01*
X989783Y629273D01*
X989672Y629267D01*
X989562Y629257D01*
X989452Y629243D01*
X989343Y629226D01*
X989234Y629204D01*
X989126Y629179D01*
X989019Y629149D01*
X988913Y629116D01*
X988809Y629079D01*
X988706Y629039D01*
X988604Y628994D01*
X988504Y628947D01*
X988406Y628895D01*
X988310Y628840D01*
X988215Y628782D01*
X988123Y628721D01*
X988033Y628656D01*
X987946Y628588D01*
X987861Y628517D01*
X987778Y628443D01*
X987698Y628366D01*
X987621Y628286D01*
X987547Y628203D01*
X987476Y628118D01*
X987408Y628031D01*
X987344Y627941D01*
X987282Y627849D01*
X987224Y627754D01*
X987169Y627658D01*
X987117Y627560D01*
X987070Y627460D01*
X987025Y627358D01*
X986985Y627255D01*
X986948Y627151D01*
X986915Y627045D01*
X986885Y626938D01*
X986860Y626830D01*
X986838Y626721D01*
X986821Y626612D01*
X986807Y626502D01*
X986797Y626392D01*
X986791Y626281D01*
X986789Y626170D01*
X986790Y626170D02*
X986790Y622290D01*
X1005417Y621514D02*
X1005417Y629275D01*
X54610Y348625D02*
X26670Y348625D01*
X42192Y357939D01*
X26670Y367252D01*
X54610Y367252D01*
X43744Y381830D02*
X43744Y388815D01*
X43744Y381830D02*
X43746Y381684D01*
X43752Y381538D01*
X43762Y381393D01*
X43775Y381248D01*
X43793Y381103D01*
X43814Y380958D01*
X43840Y380815D01*
X43869Y380672D01*
X43902Y380530D01*
X43939Y380389D01*
X43979Y380249D01*
X44024Y380110D01*
X44072Y379972D01*
X44123Y379835D01*
X44179Y379700D01*
X44238Y379567D01*
X44300Y379435D01*
X44366Y379305D01*
X44436Y379177D01*
X44509Y379051D01*
X44585Y378926D01*
X44665Y378804D01*
X44748Y378684D01*
X44834Y378566D01*
X44923Y378451D01*
X45015Y378338D01*
X45110Y378227D01*
X45209Y378119D01*
X45310Y378014D01*
X45413Y377912D01*
X45520Y377812D01*
X45629Y377715D01*
X45741Y377622D01*
X45855Y377531D01*
X45972Y377443D01*
X46091Y377359D01*
X46212Y377277D01*
X46335Y377200D01*
X46461Y377125D01*
X46588Y377054D01*
X46717Y376986D01*
X46848Y376922D01*
X46981Y376861D01*
X47115Y376804D01*
X47250Y376750D01*
X47388Y376700D01*
X47526Y376654D01*
X47665Y376612D01*
X47806Y376573D01*
X47948Y376538D01*
X48090Y376507D01*
X48234Y376480D01*
X48378Y376456D01*
X48522Y376437D01*
X48667Y376421D01*
X48813Y376409D01*
X48958Y376401D01*
X49104Y376397D01*
X49250Y376397D01*
X49396Y376401D01*
X49541Y376409D01*
X49687Y376421D01*
X49832Y376437D01*
X49976Y376456D01*
X50120Y376480D01*
X50264Y376507D01*
X50406Y376538D01*
X50548Y376573D01*
X50689Y376612D01*
X50828Y376654D01*
X50966Y376700D01*
X51104Y376750D01*
X51239Y376804D01*
X51373Y376861D01*
X51506Y376922D01*
X51637Y376986D01*
X51766Y377054D01*
X51894Y377125D01*
X52019Y377200D01*
X52142Y377277D01*
X52263Y377359D01*
X52382Y377443D01*
X52499Y377531D01*
X52613Y377622D01*
X52725Y377715D01*
X52834Y377812D01*
X52941Y377912D01*
X53044Y378014D01*
X53145Y378119D01*
X53244Y378227D01*
X53339Y378338D01*
X53431Y378451D01*
X53520Y378566D01*
X53606Y378684D01*
X53689Y378804D01*
X53769Y378926D01*
X53845Y379051D01*
X53918Y379177D01*
X53988Y379305D01*
X54054Y379435D01*
X54116Y379567D01*
X54175Y379700D01*
X54231Y379835D01*
X54282Y379972D01*
X54330Y380110D01*
X54375Y380249D01*
X54415Y380389D01*
X54452Y380530D01*
X54485Y380672D01*
X54514Y380815D01*
X54540Y380958D01*
X54561Y381103D01*
X54579Y381248D01*
X54592Y381393D01*
X54602Y381538D01*
X54608Y381684D01*
X54610Y381830D01*
X54610Y388815D01*
X40640Y388815D01*
X40505Y388813D01*
X40369Y388807D01*
X40234Y388797D01*
X40099Y388784D01*
X39965Y388766D01*
X39831Y388744D01*
X39698Y388719D01*
X39566Y388689D01*
X39435Y388656D01*
X39304Y388619D01*
X39175Y388579D01*
X39047Y388534D01*
X38921Y388486D01*
X38795Y388434D01*
X38672Y388379D01*
X38550Y388320D01*
X38430Y388257D01*
X38312Y388191D01*
X38195Y388122D01*
X38081Y388049D01*
X37969Y387973D01*
X37859Y387893D01*
X37752Y387811D01*
X37647Y387725D01*
X37544Y387637D01*
X37444Y387545D01*
X37347Y387451D01*
X37253Y387354D01*
X37161Y387254D01*
X37073Y387151D01*
X36987Y387046D01*
X36905Y386939D01*
X36825Y386829D01*
X36749Y386717D01*
X36676Y386603D01*
X36607Y386487D01*
X36541Y386368D01*
X36478Y386248D01*
X36419Y386126D01*
X36364Y386003D01*
X36312Y385877D01*
X36264Y385751D01*
X36219Y385623D01*
X36179Y385494D01*
X36142Y385363D01*
X36109Y385232D01*
X36079Y385100D01*
X36054Y384967D01*
X36032Y384833D01*
X36014Y384699D01*
X36001Y384564D01*
X35991Y384429D01*
X35985Y384293D01*
X35983Y384158D01*
X35983Y377949D01*
X35983Y398557D02*
X54610Y398557D01*
X28222Y397781D02*
X26670Y397781D01*
X26670Y399333D01*
X28222Y399333D01*
X28222Y397781D01*
X35983Y408277D02*
X54610Y408277D01*
X35983Y408277D02*
X35983Y416038D01*
X35985Y416173D01*
X35991Y416309D01*
X36001Y416444D01*
X36014Y416579D01*
X36032Y416713D01*
X36054Y416847D01*
X36079Y416980D01*
X36109Y417112D01*
X36142Y417243D01*
X36179Y417374D01*
X36219Y417503D01*
X36264Y417631D01*
X36312Y417757D01*
X36364Y417883D01*
X36419Y418006D01*
X36478Y418128D01*
X36541Y418248D01*
X36607Y418367D01*
X36676Y418483D01*
X36749Y418597D01*
X36825Y418709D01*
X36905Y418819D01*
X36987Y418926D01*
X37073Y419031D01*
X37161Y419134D01*
X37253Y419234D01*
X37347Y419331D01*
X37444Y419425D01*
X37544Y419517D01*
X37647Y419605D01*
X37752Y419691D01*
X37859Y419773D01*
X37969Y419853D01*
X38081Y419929D01*
X38195Y420002D01*
X38312Y420071D01*
X38430Y420137D01*
X38550Y420200D01*
X38672Y420259D01*
X38795Y420314D01*
X38921Y420366D01*
X39047Y420414D01*
X39175Y420459D01*
X39304Y420499D01*
X39435Y420536D01*
X39566Y420569D01*
X39698Y420599D01*
X39831Y420624D01*
X39965Y420646D01*
X40099Y420664D01*
X40234Y420677D01*
X40369Y420687D01*
X40505Y420693D01*
X40640Y420695D01*
X54610Y420695D01*
X54610Y434438D02*
X54610Y442199D01*
X54610Y434438D02*
X54608Y434303D01*
X54602Y434167D01*
X54592Y434032D01*
X54579Y433897D01*
X54561Y433763D01*
X54539Y433629D01*
X54514Y433496D01*
X54484Y433364D01*
X54451Y433233D01*
X54414Y433102D01*
X54374Y432973D01*
X54329Y432845D01*
X54281Y432719D01*
X54229Y432593D01*
X54174Y432470D01*
X54115Y432348D01*
X54052Y432228D01*
X53986Y432110D01*
X53917Y431993D01*
X53844Y431879D01*
X53768Y431767D01*
X53688Y431657D01*
X53606Y431550D01*
X53520Y431445D01*
X53432Y431342D01*
X53340Y431242D01*
X53246Y431145D01*
X53149Y431051D01*
X53049Y430959D01*
X52946Y430871D01*
X52841Y430785D01*
X52734Y430703D01*
X52624Y430623D01*
X52512Y430547D01*
X52398Y430474D01*
X52282Y430405D01*
X52163Y430339D01*
X52043Y430276D01*
X51921Y430217D01*
X51798Y430162D01*
X51672Y430110D01*
X51546Y430062D01*
X51418Y430017D01*
X51289Y429977D01*
X51158Y429940D01*
X51027Y429907D01*
X50895Y429877D01*
X50762Y429852D01*
X50628Y429830D01*
X50494Y429812D01*
X50359Y429799D01*
X50224Y429789D01*
X50088Y429783D01*
X49953Y429781D01*
X42192Y429781D01*
X42036Y429783D01*
X41880Y429789D01*
X41724Y429799D01*
X41569Y429812D01*
X41414Y429830D01*
X41259Y429851D01*
X41105Y429877D01*
X40952Y429906D01*
X40800Y429939D01*
X40648Y429976D01*
X40497Y430017D01*
X40348Y430061D01*
X40199Y430109D01*
X40052Y430161D01*
X39906Y430217D01*
X39762Y430276D01*
X39619Y430339D01*
X39478Y430406D01*
X39338Y430476D01*
X39201Y430549D01*
X39065Y430626D01*
X38931Y430706D01*
X38799Y430790D01*
X38670Y430877D01*
X38542Y430967D01*
X38417Y431060D01*
X38295Y431157D01*
X38174Y431256D01*
X38057Y431358D01*
X37942Y431464D01*
X37829Y431572D01*
X37720Y431683D01*
X37613Y431797D01*
X37509Y431913D01*
X37408Y432032D01*
X37310Y432154D01*
X37215Y432278D01*
X37123Y432404D01*
X37035Y432532D01*
X36950Y432663D01*
X36868Y432796D01*
X36789Y432931D01*
X36714Y433067D01*
X36642Y433206D01*
X36574Y433346D01*
X36509Y433488D01*
X36448Y433632D01*
X36391Y433777D01*
X36337Y433924D01*
X36287Y434071D01*
X36241Y434220D01*
X36198Y434370D01*
X36159Y434522D01*
X36124Y434674D01*
X36093Y434827D01*
X36066Y434980D01*
X36042Y435134D01*
X36023Y435289D01*
X36007Y435445D01*
X35995Y435600D01*
X35987Y435756D01*
X35983Y435912D01*
X35983Y436068D01*
X35987Y436224D01*
X35995Y436380D01*
X36007Y436535D01*
X36023Y436691D01*
X36042Y436846D01*
X36066Y437000D01*
X36093Y437153D01*
X36124Y437306D01*
X36159Y437458D01*
X36198Y437610D01*
X36241Y437760D01*
X36287Y437909D01*
X36337Y438056D01*
X36391Y438203D01*
X36448Y438348D01*
X36509Y438492D01*
X36574Y438634D01*
X36642Y438774D01*
X36714Y438913D01*
X36789Y439049D01*
X36868Y439184D01*
X36950Y439317D01*
X37035Y439448D01*
X37123Y439576D01*
X37215Y439702D01*
X37310Y439826D01*
X37408Y439948D01*
X37509Y440067D01*
X37613Y440183D01*
X37720Y440297D01*
X37829Y440408D01*
X37942Y440516D01*
X38057Y440622D01*
X38174Y440724D01*
X38295Y440823D01*
X38417Y440920D01*
X38542Y441013D01*
X38670Y441103D01*
X38799Y441190D01*
X38931Y441274D01*
X39065Y441354D01*
X39201Y441431D01*
X39338Y441504D01*
X39478Y441574D01*
X39619Y441641D01*
X39762Y441704D01*
X39906Y441763D01*
X40052Y441819D01*
X40199Y441871D01*
X40348Y441919D01*
X40497Y441963D01*
X40648Y442004D01*
X40800Y442041D01*
X40952Y442074D01*
X41105Y442103D01*
X41259Y442129D01*
X41414Y442150D01*
X41569Y442168D01*
X41724Y442181D01*
X41880Y442191D01*
X42036Y442197D01*
X42192Y442199D01*
X45297Y442199D01*
X45297Y429781D01*
X54610Y451285D02*
X35983Y451285D01*
X35983Y459046D01*
X35985Y459181D01*
X35991Y459317D01*
X36001Y459452D01*
X36014Y459587D01*
X36032Y459721D01*
X36054Y459855D01*
X36079Y459988D01*
X36109Y460120D01*
X36142Y460251D01*
X36179Y460382D01*
X36219Y460511D01*
X36264Y460639D01*
X36312Y460765D01*
X36364Y460891D01*
X36419Y461014D01*
X36478Y461136D01*
X36541Y461256D01*
X36607Y461375D01*
X36676Y461491D01*
X36749Y461605D01*
X36825Y461717D01*
X36905Y461827D01*
X36987Y461934D01*
X37073Y462039D01*
X37161Y462142D01*
X37253Y462242D01*
X37347Y462339D01*
X37444Y462433D01*
X37544Y462525D01*
X37647Y462613D01*
X37752Y462699D01*
X37859Y462781D01*
X37969Y462861D01*
X38081Y462937D01*
X38195Y463010D01*
X38312Y463079D01*
X38430Y463145D01*
X38550Y463208D01*
X38672Y463267D01*
X38795Y463322D01*
X38921Y463374D01*
X39047Y463422D01*
X39175Y463467D01*
X39304Y463507D01*
X39435Y463544D01*
X39566Y463577D01*
X39698Y463607D01*
X39831Y463632D01*
X39965Y463654D01*
X40099Y463672D01*
X40234Y463685D01*
X40369Y463695D01*
X40505Y463701D01*
X40640Y463703D01*
X54610Y463703D01*
X35983Y471117D02*
X35983Y480430D01*
X26670Y474221D02*
X49953Y474221D01*
X50088Y474223D01*
X50224Y474229D01*
X50359Y474239D01*
X50494Y474252D01*
X50628Y474270D01*
X50762Y474292D01*
X50895Y474317D01*
X51027Y474347D01*
X51158Y474380D01*
X51289Y474417D01*
X51418Y474457D01*
X51546Y474502D01*
X51672Y474550D01*
X51798Y474602D01*
X51921Y474657D01*
X52043Y474716D01*
X52163Y474779D01*
X52282Y474845D01*
X52398Y474914D01*
X52512Y474987D01*
X52624Y475063D01*
X52734Y475143D01*
X52841Y475225D01*
X52946Y475311D01*
X53049Y475399D01*
X53149Y475491D01*
X53246Y475585D01*
X53340Y475682D01*
X53432Y475782D01*
X53520Y475885D01*
X53606Y475990D01*
X53688Y476097D01*
X53768Y476207D01*
X53844Y476319D01*
X53917Y476433D01*
X53986Y476550D01*
X54052Y476668D01*
X54115Y476788D01*
X54174Y476910D01*
X54229Y477033D01*
X54281Y477159D01*
X54329Y477285D01*
X54374Y477413D01*
X54414Y477542D01*
X54451Y477673D01*
X54484Y477804D01*
X54514Y477936D01*
X54539Y478069D01*
X54561Y478203D01*
X54579Y478337D01*
X54592Y478472D01*
X54602Y478607D01*
X54608Y478743D01*
X54610Y478878D01*
X54610Y480430D01*
X54610Y488555D02*
X35983Y488555D01*
X28222Y487779D02*
X26670Y487779D01*
X26670Y489331D01*
X28222Y489331D01*
X28222Y487779D01*
X26670Y511058D02*
X54610Y511058D01*
X54610Y526581D02*
X26670Y511058D01*
X26670Y526581D02*
X54610Y526581D01*
X54610Y536341D02*
X35983Y536341D01*
X28222Y535565D02*
X26670Y535565D01*
X26670Y537117D01*
X28222Y537117D01*
X28222Y535565D01*
X54610Y549929D02*
X54610Y556137D01*
X54610Y549929D02*
X54608Y549794D01*
X54602Y549658D01*
X54592Y549523D01*
X54579Y549388D01*
X54561Y549254D01*
X54539Y549120D01*
X54514Y548987D01*
X54484Y548855D01*
X54451Y548724D01*
X54414Y548593D01*
X54374Y548464D01*
X54329Y548336D01*
X54281Y548210D01*
X54229Y548084D01*
X54174Y547961D01*
X54115Y547839D01*
X54052Y547719D01*
X53986Y547601D01*
X53917Y547484D01*
X53844Y547370D01*
X53768Y547258D01*
X53688Y547148D01*
X53606Y547041D01*
X53520Y546936D01*
X53432Y546833D01*
X53340Y546733D01*
X53246Y546636D01*
X53149Y546542D01*
X53049Y546450D01*
X52946Y546362D01*
X52841Y546276D01*
X52734Y546194D01*
X52624Y546114D01*
X52512Y546038D01*
X52398Y545965D01*
X52282Y545896D01*
X52163Y545830D01*
X52043Y545767D01*
X51921Y545708D01*
X51798Y545653D01*
X51672Y545601D01*
X51546Y545553D01*
X51418Y545508D01*
X51289Y545468D01*
X51158Y545431D01*
X51027Y545398D01*
X50895Y545368D01*
X50762Y545343D01*
X50628Y545321D01*
X50494Y545303D01*
X50359Y545290D01*
X50224Y545280D01*
X50088Y545274D01*
X49953Y545272D01*
X40640Y545272D01*
X40505Y545274D01*
X40369Y545280D01*
X40234Y545290D01*
X40099Y545303D01*
X39965Y545321D01*
X39831Y545343D01*
X39698Y545368D01*
X39566Y545398D01*
X39435Y545431D01*
X39304Y545468D01*
X39175Y545508D01*
X39047Y545553D01*
X38921Y545601D01*
X38795Y545653D01*
X38672Y545708D01*
X38550Y545767D01*
X38430Y545830D01*
X38312Y545896D01*
X38195Y545965D01*
X38081Y546038D01*
X37969Y546114D01*
X37859Y546194D01*
X37752Y546276D01*
X37647Y546362D01*
X37544Y546450D01*
X37444Y546542D01*
X37347Y546636D01*
X37253Y546733D01*
X37161Y546833D01*
X37073Y546936D01*
X36987Y547041D01*
X36905Y547148D01*
X36825Y547258D01*
X36749Y547370D01*
X36676Y547484D01*
X36607Y547601D01*
X36541Y547719D01*
X36478Y547839D01*
X36419Y547961D01*
X36364Y548084D01*
X36312Y548210D01*
X36264Y548336D01*
X36219Y548464D01*
X36179Y548593D01*
X36142Y548724D01*
X36109Y548855D01*
X36079Y548987D01*
X36054Y549120D01*
X36032Y549254D01*
X36014Y549388D01*
X36001Y549523D01*
X35991Y549658D01*
X35985Y549794D01*
X35983Y549929D01*
X35983Y556137D01*
X42192Y563583D02*
X48401Y563583D01*
X42192Y563583D02*
X42036Y563585D01*
X41880Y563591D01*
X41724Y563601D01*
X41569Y563614D01*
X41414Y563632D01*
X41259Y563653D01*
X41105Y563679D01*
X40952Y563708D01*
X40800Y563741D01*
X40648Y563778D01*
X40497Y563819D01*
X40348Y563863D01*
X40199Y563911D01*
X40052Y563963D01*
X39906Y564019D01*
X39762Y564078D01*
X39619Y564141D01*
X39478Y564208D01*
X39338Y564278D01*
X39201Y564351D01*
X39065Y564428D01*
X38931Y564508D01*
X38799Y564592D01*
X38670Y564679D01*
X38542Y564769D01*
X38417Y564862D01*
X38295Y564959D01*
X38174Y565058D01*
X38057Y565160D01*
X37942Y565266D01*
X37829Y565374D01*
X37720Y565485D01*
X37613Y565599D01*
X37509Y565715D01*
X37408Y565834D01*
X37310Y565956D01*
X37215Y566080D01*
X37123Y566206D01*
X37035Y566334D01*
X36950Y566465D01*
X36868Y566598D01*
X36789Y566733D01*
X36714Y566869D01*
X36642Y567008D01*
X36574Y567148D01*
X36509Y567290D01*
X36448Y567434D01*
X36391Y567579D01*
X36337Y567726D01*
X36287Y567873D01*
X36241Y568022D01*
X36198Y568172D01*
X36159Y568324D01*
X36124Y568476D01*
X36093Y568629D01*
X36066Y568782D01*
X36042Y568936D01*
X36023Y569091D01*
X36007Y569247D01*
X35995Y569402D01*
X35987Y569558D01*
X35983Y569714D01*
X35983Y569870D01*
X35987Y570026D01*
X35995Y570182D01*
X36007Y570337D01*
X36023Y570493D01*
X36042Y570648D01*
X36066Y570802D01*
X36093Y570955D01*
X36124Y571108D01*
X36159Y571260D01*
X36198Y571412D01*
X36241Y571562D01*
X36287Y571711D01*
X36337Y571858D01*
X36391Y572005D01*
X36448Y572150D01*
X36509Y572294D01*
X36574Y572436D01*
X36642Y572576D01*
X36714Y572715D01*
X36789Y572851D01*
X36868Y572986D01*
X36950Y573119D01*
X37035Y573250D01*
X37123Y573378D01*
X37215Y573504D01*
X37310Y573628D01*
X37408Y573750D01*
X37509Y573869D01*
X37613Y573985D01*
X37720Y574099D01*
X37829Y574210D01*
X37942Y574318D01*
X38057Y574424D01*
X38174Y574526D01*
X38295Y574625D01*
X38417Y574722D01*
X38542Y574815D01*
X38670Y574905D01*
X38799Y574992D01*
X38931Y575076D01*
X39065Y575156D01*
X39201Y575233D01*
X39338Y575306D01*
X39478Y575376D01*
X39619Y575443D01*
X39762Y575506D01*
X39906Y575565D01*
X40052Y575621D01*
X40199Y575673D01*
X40348Y575721D01*
X40497Y575765D01*
X40648Y575806D01*
X40800Y575843D01*
X40952Y575876D01*
X41105Y575905D01*
X41259Y575931D01*
X41414Y575952D01*
X41569Y575970D01*
X41724Y575983D01*
X41880Y575993D01*
X42036Y575999D01*
X42192Y576001D01*
X48401Y576001D01*
X48557Y575999D01*
X48713Y575993D01*
X48869Y575983D01*
X49024Y575970D01*
X49179Y575952D01*
X49334Y575931D01*
X49488Y575905D01*
X49641Y575876D01*
X49793Y575843D01*
X49945Y575806D01*
X50096Y575765D01*
X50245Y575721D01*
X50394Y575673D01*
X50541Y575621D01*
X50687Y575565D01*
X50831Y575506D01*
X50974Y575443D01*
X51115Y575376D01*
X51255Y575306D01*
X51392Y575233D01*
X51528Y575156D01*
X51662Y575076D01*
X51794Y574992D01*
X51923Y574905D01*
X52051Y574815D01*
X52176Y574722D01*
X52298Y574625D01*
X52419Y574526D01*
X52536Y574424D01*
X52651Y574318D01*
X52764Y574210D01*
X52873Y574099D01*
X52980Y573985D01*
X53084Y573869D01*
X53185Y573750D01*
X53283Y573628D01*
X53378Y573504D01*
X53470Y573378D01*
X53558Y573250D01*
X53643Y573119D01*
X53725Y572986D01*
X53804Y572851D01*
X53879Y572715D01*
X53951Y572576D01*
X54019Y572436D01*
X54084Y572294D01*
X54145Y572150D01*
X54202Y572005D01*
X54256Y571858D01*
X54306Y571711D01*
X54352Y571562D01*
X54395Y571412D01*
X54434Y571260D01*
X54469Y571108D01*
X54500Y570955D01*
X54527Y570802D01*
X54551Y570648D01*
X54570Y570493D01*
X54586Y570337D01*
X54598Y570182D01*
X54606Y570026D01*
X54610Y569870D01*
X54610Y569714D01*
X54606Y569558D01*
X54598Y569402D01*
X54586Y569247D01*
X54570Y569091D01*
X54551Y568936D01*
X54527Y568782D01*
X54500Y568629D01*
X54469Y568476D01*
X54434Y568324D01*
X54395Y568172D01*
X54352Y568022D01*
X54306Y567873D01*
X54256Y567726D01*
X54202Y567579D01*
X54145Y567434D01*
X54084Y567290D01*
X54019Y567148D01*
X53951Y567008D01*
X53879Y566869D01*
X53804Y566733D01*
X53725Y566598D01*
X53643Y566465D01*
X53558Y566334D01*
X53470Y566206D01*
X53378Y566080D01*
X53283Y565956D01*
X53185Y565834D01*
X53084Y565715D01*
X52980Y565599D01*
X52873Y565485D01*
X52764Y565374D01*
X52651Y565266D01*
X52536Y565160D01*
X52419Y565058D01*
X52298Y564959D01*
X52176Y564862D01*
X52051Y564769D01*
X51923Y564679D01*
X51794Y564592D01*
X51662Y564508D01*
X51528Y564428D01*
X51392Y564351D01*
X51255Y564278D01*
X51115Y564208D01*
X50974Y564141D01*
X50831Y564078D01*
X50687Y564019D01*
X50541Y563963D01*
X50394Y563911D01*
X50245Y563863D01*
X50096Y563819D01*
X49945Y563778D01*
X49793Y563741D01*
X49641Y563708D01*
X49488Y563679D01*
X49334Y563653D01*
X49179Y563632D01*
X49024Y563614D01*
X48869Y563601D01*
X48713Y563591D01*
X48557Y563585D01*
X48401Y563583D01*
X49953Y585005D02*
X26670Y585005D01*
X49953Y585004D02*
X50088Y585006D01*
X50224Y585012D01*
X50359Y585022D01*
X50494Y585035D01*
X50628Y585053D01*
X50762Y585075D01*
X50895Y585100D01*
X51027Y585130D01*
X51158Y585163D01*
X51289Y585200D01*
X51418Y585240D01*
X51546Y585285D01*
X51672Y585333D01*
X51798Y585385D01*
X51921Y585440D01*
X52043Y585499D01*
X52163Y585562D01*
X52282Y585628D01*
X52398Y585697D01*
X52512Y585770D01*
X52624Y585846D01*
X52734Y585926D01*
X52841Y586008D01*
X52946Y586094D01*
X53049Y586182D01*
X53149Y586274D01*
X53246Y586368D01*
X53340Y586465D01*
X53432Y586565D01*
X53520Y586668D01*
X53606Y586773D01*
X53688Y586880D01*
X53768Y586990D01*
X53844Y587102D01*
X53917Y587216D01*
X53986Y587333D01*
X54052Y587451D01*
X54115Y587571D01*
X54174Y587693D01*
X54229Y587816D01*
X54281Y587942D01*
X54329Y588068D01*
X54374Y588196D01*
X54414Y588325D01*
X54451Y588456D01*
X54484Y588587D01*
X54514Y588719D01*
X54539Y588852D01*
X54561Y588986D01*
X54579Y589120D01*
X54592Y589255D01*
X54602Y589390D01*
X54608Y589526D01*
X54610Y589661D01*
X43744Y602443D02*
X43744Y609428D01*
X43744Y602443D02*
X43746Y602297D01*
X43752Y602151D01*
X43762Y602006D01*
X43775Y601861D01*
X43793Y601716D01*
X43814Y601571D01*
X43840Y601428D01*
X43869Y601285D01*
X43902Y601143D01*
X43939Y601002D01*
X43979Y600862D01*
X44024Y600723D01*
X44072Y600585D01*
X44123Y600448D01*
X44179Y600313D01*
X44238Y600180D01*
X44300Y600048D01*
X44366Y599918D01*
X44436Y599790D01*
X44509Y599664D01*
X44585Y599539D01*
X44665Y599417D01*
X44748Y599297D01*
X44834Y599179D01*
X44923Y599064D01*
X45015Y598951D01*
X45110Y598840D01*
X45209Y598732D01*
X45310Y598627D01*
X45413Y598525D01*
X45520Y598425D01*
X45629Y598328D01*
X45741Y598235D01*
X45855Y598144D01*
X45972Y598056D01*
X46091Y597972D01*
X46212Y597890D01*
X46335Y597813D01*
X46461Y597738D01*
X46588Y597667D01*
X46717Y597599D01*
X46848Y597535D01*
X46981Y597474D01*
X47115Y597417D01*
X47250Y597363D01*
X47388Y597313D01*
X47526Y597267D01*
X47665Y597225D01*
X47806Y597186D01*
X47948Y597151D01*
X48090Y597120D01*
X48234Y597093D01*
X48378Y597069D01*
X48522Y597050D01*
X48667Y597034D01*
X48813Y597022D01*
X48958Y597014D01*
X49104Y597010D01*
X49250Y597010D01*
X49396Y597014D01*
X49541Y597022D01*
X49687Y597034D01*
X49832Y597050D01*
X49976Y597069D01*
X50120Y597093D01*
X50264Y597120D01*
X50406Y597151D01*
X50548Y597186D01*
X50689Y597225D01*
X50828Y597267D01*
X50966Y597313D01*
X51104Y597363D01*
X51239Y597417D01*
X51373Y597474D01*
X51506Y597535D01*
X51637Y597599D01*
X51766Y597667D01*
X51894Y597738D01*
X52019Y597813D01*
X52142Y597890D01*
X52263Y597972D01*
X52382Y598056D01*
X52499Y598144D01*
X52613Y598235D01*
X52725Y598328D01*
X52834Y598425D01*
X52941Y598525D01*
X53044Y598627D01*
X53145Y598732D01*
X53244Y598840D01*
X53339Y598951D01*
X53431Y599064D01*
X53520Y599179D01*
X53606Y599297D01*
X53689Y599417D01*
X53769Y599539D01*
X53845Y599664D01*
X53918Y599790D01*
X53988Y599918D01*
X54054Y600048D01*
X54116Y600180D01*
X54175Y600313D01*
X54231Y600448D01*
X54282Y600585D01*
X54330Y600723D01*
X54375Y600862D01*
X54415Y601002D01*
X54452Y601143D01*
X54485Y601285D01*
X54514Y601428D01*
X54540Y601571D01*
X54561Y601716D01*
X54579Y601861D01*
X54592Y602006D01*
X54602Y602151D01*
X54608Y602297D01*
X54610Y602443D01*
X54610Y609428D01*
X40640Y609428D01*
X40640Y609429D02*
X40505Y609427D01*
X40369Y609421D01*
X40234Y609411D01*
X40099Y609398D01*
X39965Y609380D01*
X39831Y609358D01*
X39698Y609333D01*
X39566Y609303D01*
X39435Y609270D01*
X39304Y609233D01*
X39175Y609193D01*
X39047Y609148D01*
X38921Y609100D01*
X38795Y609048D01*
X38672Y608993D01*
X38550Y608934D01*
X38430Y608871D01*
X38312Y608805D01*
X38195Y608736D01*
X38081Y608663D01*
X37969Y608587D01*
X37859Y608507D01*
X37752Y608425D01*
X37647Y608339D01*
X37544Y608251D01*
X37444Y608159D01*
X37347Y608065D01*
X37253Y607968D01*
X37161Y607868D01*
X37073Y607765D01*
X36987Y607660D01*
X36905Y607553D01*
X36825Y607443D01*
X36749Y607331D01*
X36676Y607217D01*
X36607Y607101D01*
X36541Y606982D01*
X36478Y606862D01*
X36419Y606740D01*
X36364Y606617D01*
X36312Y606491D01*
X36264Y606365D01*
X36219Y606237D01*
X36179Y606108D01*
X36142Y605977D01*
X36109Y605846D01*
X36079Y605714D01*
X36054Y605581D01*
X36032Y605447D01*
X36014Y605313D01*
X36001Y605178D01*
X35991Y605043D01*
X35985Y604907D01*
X35983Y604772D01*
X35983Y598563D01*
X43744Y620866D02*
X46849Y628627D01*
X43745Y620865D02*
X43697Y620749D01*
X43645Y620635D01*
X43589Y620523D01*
X43530Y620412D01*
X43468Y620303D01*
X43402Y620196D01*
X43333Y620091D01*
X43260Y619989D01*
X43185Y619889D01*
X43106Y619791D01*
X43025Y619695D01*
X42940Y619603D01*
X42853Y619512D01*
X42763Y619425D01*
X42670Y619341D01*
X42574Y619259D01*
X42476Y619181D01*
X42376Y619105D01*
X42273Y619033D01*
X42169Y618964D01*
X42062Y618898D01*
X41953Y618836D01*
X41842Y618777D01*
X41729Y618722D01*
X41615Y618670D01*
X41499Y618621D01*
X41382Y618577D01*
X41263Y618536D01*
X41143Y618498D01*
X41022Y618465D01*
X40900Y618435D01*
X40778Y618409D01*
X40654Y618387D01*
X40530Y618369D01*
X40405Y618355D01*
X40280Y618344D01*
X40155Y618338D01*
X40029Y618335D01*
X39904Y618336D01*
X39778Y618342D01*
X39653Y618351D01*
X39528Y618364D01*
X39404Y618381D01*
X39280Y618401D01*
X39157Y618426D01*
X39035Y618454D01*
X38914Y618487D01*
X38793Y618523D01*
X38674Y618562D01*
X38557Y618606D01*
X38440Y618653D01*
X38325Y618704D01*
X38212Y618758D01*
X38101Y618816D01*
X37991Y618877D01*
X37884Y618941D01*
X37778Y619009D01*
X37675Y619080D01*
X37574Y619155D01*
X37475Y619232D01*
X37378Y619313D01*
X37285Y619396D01*
X37194Y619482D01*
X37105Y619572D01*
X37020Y619663D01*
X36937Y619758D01*
X36858Y619855D01*
X36781Y619954D01*
X36708Y620056D01*
X36637Y620160D01*
X36570Y620266D01*
X36507Y620375D01*
X36447Y620485D01*
X36390Y620597D01*
X36337Y620710D01*
X36287Y620826D01*
X36241Y620942D01*
X36199Y621061D01*
X36160Y621180D01*
X36125Y621300D01*
X36094Y621422D01*
X36066Y621545D01*
X36043Y621668D01*
X36023Y621792D01*
X36008Y621916D01*
X35996Y622041D01*
X35988Y622167D01*
X35984Y622292D01*
X35983Y622418D01*
X35984Y622418D02*
X35995Y622842D01*
X36016Y623265D01*
X36048Y623687D01*
X36089Y624109D01*
X36141Y624530D01*
X36203Y624949D01*
X36275Y625367D01*
X36357Y625783D01*
X36449Y626196D01*
X36551Y626608D01*
X36663Y627017D01*
X36784Y627423D01*
X36915Y627826D01*
X37056Y628225D01*
X37207Y628622D01*
X37367Y629014D01*
X37536Y629403D01*
X46849Y628627D02*
X46897Y628743D01*
X46949Y628857D01*
X47005Y628969D01*
X47064Y629080D01*
X47126Y629189D01*
X47192Y629296D01*
X47261Y629401D01*
X47334Y629503D01*
X47409Y629603D01*
X47488Y629701D01*
X47569Y629797D01*
X47654Y629889D01*
X47741Y629980D01*
X47831Y630067D01*
X47924Y630151D01*
X48020Y630233D01*
X48118Y630311D01*
X48218Y630387D01*
X48321Y630459D01*
X48425Y630528D01*
X48532Y630594D01*
X48641Y630656D01*
X48752Y630715D01*
X48865Y630770D01*
X48979Y630822D01*
X49095Y630871D01*
X49212Y630915D01*
X49331Y630956D01*
X49451Y630994D01*
X49572Y631027D01*
X49694Y631057D01*
X49816Y631083D01*
X49940Y631105D01*
X50064Y631123D01*
X50189Y631137D01*
X50314Y631148D01*
X50439Y631154D01*
X50565Y631157D01*
X50690Y631156D01*
X50816Y631150D01*
X50941Y631141D01*
X51066Y631128D01*
X51190Y631111D01*
X51314Y631091D01*
X51437Y631066D01*
X51559Y631038D01*
X51680Y631005D01*
X51801Y630969D01*
X51920Y630930D01*
X52037Y630886D01*
X52154Y630839D01*
X52269Y630788D01*
X52382Y630734D01*
X52493Y630676D01*
X52603Y630615D01*
X52710Y630551D01*
X52816Y630483D01*
X52919Y630412D01*
X53020Y630337D01*
X53119Y630260D01*
X53216Y630179D01*
X53309Y630096D01*
X53400Y630010D01*
X53489Y629920D01*
X53574Y629829D01*
X53657Y629734D01*
X53736Y629637D01*
X53813Y629538D01*
X53886Y629436D01*
X53957Y629332D01*
X54024Y629226D01*
X54087Y629117D01*
X54147Y629007D01*
X54204Y628895D01*
X54257Y628782D01*
X54307Y628666D01*
X54353Y628550D01*
X54395Y628431D01*
X54434Y628312D01*
X54469Y628192D01*
X54500Y628070D01*
X54528Y627947D01*
X54551Y627824D01*
X54571Y627700D01*
X54586Y627576D01*
X54598Y627451D01*
X54606Y627325D01*
X54610Y627200D01*
X54611Y627074D01*
X54610Y627075D02*
X54594Y626452D01*
X54563Y625831D01*
X54517Y625210D01*
X54457Y624590D01*
X54382Y623972D01*
X54293Y623356D01*
X54188Y622742D01*
X54070Y622131D01*
X53937Y621522D01*
X53789Y620917D01*
X53628Y620316D01*
X53452Y619719D01*
X53262Y619126D01*
X53058Y618538D01*
X54610Y652028D02*
X54610Y661342D01*
X54608Y661497D01*
X54602Y661651D01*
X54593Y661806D01*
X54579Y661960D01*
X54562Y662114D01*
X54541Y662267D01*
X54516Y662420D01*
X54487Y662572D01*
X54454Y662724D01*
X54418Y662874D01*
X54378Y663024D01*
X54334Y663172D01*
X54287Y663319D01*
X54236Y663466D01*
X54181Y663610D01*
X54122Y663754D01*
X54061Y663896D01*
X53995Y664036D01*
X53926Y664175D01*
X53854Y664311D01*
X53778Y664447D01*
X53699Y664580D01*
X53617Y664711D01*
X53531Y664840D01*
X53442Y664966D01*
X53350Y665091D01*
X53255Y665213D01*
X53157Y665333D01*
X53056Y665450D01*
X52953Y665565D01*
X52846Y665677D01*
X52736Y665787D01*
X52624Y665894D01*
X52509Y665997D01*
X52392Y666098D01*
X52272Y666196D01*
X52150Y666291D01*
X52025Y666383D01*
X51899Y666472D01*
X51770Y666558D01*
X51639Y666640D01*
X51506Y666719D01*
X51370Y666795D01*
X51234Y666867D01*
X51095Y666936D01*
X50955Y667002D01*
X50813Y667063D01*
X50669Y667122D01*
X50525Y667177D01*
X50378Y667228D01*
X50231Y667275D01*
X50083Y667319D01*
X49933Y667359D01*
X49783Y667395D01*
X49631Y667428D01*
X49479Y667457D01*
X49326Y667482D01*
X49173Y667503D01*
X49019Y667520D01*
X48865Y667534D01*
X48710Y667543D01*
X48556Y667549D01*
X48401Y667551D01*
X45297Y667551D01*
X45140Y667549D01*
X44983Y667543D01*
X44826Y667533D01*
X44669Y667519D01*
X44513Y667501D01*
X44357Y667479D01*
X44202Y667454D01*
X44047Y667424D01*
X43893Y667390D01*
X43741Y667353D01*
X43589Y667311D01*
X43438Y667266D01*
X43289Y667217D01*
X43141Y667165D01*
X42994Y667108D01*
X42848Y667048D01*
X42705Y666984D01*
X42563Y666916D01*
X42422Y666845D01*
X42284Y666771D01*
X42147Y666693D01*
X42013Y666611D01*
X41880Y666526D01*
X41750Y666438D01*
X41622Y666347D01*
X41496Y666252D01*
X41373Y666154D01*
X41253Y666053D01*
X41135Y665949D01*
X41019Y665842D01*
X40907Y665732D01*
X40797Y665620D01*
X40690Y665504D01*
X40586Y665386D01*
X40485Y665266D01*
X40387Y665143D01*
X40292Y665017D01*
X40201Y664889D01*
X40113Y664759D01*
X40028Y664626D01*
X39946Y664492D01*
X39868Y664355D01*
X39794Y664217D01*
X39723Y664076D01*
X39655Y663934D01*
X39591Y663791D01*
X39531Y663645D01*
X39475Y663498D01*
X39422Y663350D01*
X39373Y663201D01*
X39328Y663050D01*
X39286Y662898D01*
X39249Y662746D01*
X39215Y662592D01*
X39185Y662437D01*
X39160Y662282D01*
X39138Y662126D01*
X39120Y661970D01*
X39106Y661813D01*
X39096Y661657D01*
X39090Y661499D01*
X39088Y661342D01*
X39088Y652028D01*
X26670Y652028D01*
X26670Y667551D01*
X30551Y675820D02*
X35207Y675820D01*
X30551Y675819D02*
X30428Y675821D01*
X30305Y675827D01*
X30182Y675837D01*
X30060Y675850D01*
X29938Y675868D01*
X29817Y675889D01*
X29696Y675914D01*
X29576Y675943D01*
X29458Y675976D01*
X29340Y676013D01*
X29224Y676053D01*
X29109Y676097D01*
X28995Y676145D01*
X28883Y676196D01*
X28773Y676250D01*
X28664Y676309D01*
X28557Y676370D01*
X28453Y676435D01*
X28350Y676503D01*
X28250Y676575D01*
X28152Y676649D01*
X28056Y676727D01*
X27963Y676808D01*
X27873Y676891D01*
X27785Y676978D01*
X27700Y677067D01*
X27618Y677158D01*
X27539Y677253D01*
X27463Y677350D01*
X27390Y677449D01*
X27320Y677550D01*
X27253Y677654D01*
X27190Y677760D01*
X27130Y677867D01*
X27074Y677977D01*
X27021Y678088D01*
X26971Y678201D01*
X26926Y678315D01*
X26883Y678431D01*
X26845Y678548D01*
X26810Y678666D01*
X26779Y678785D01*
X26752Y678905D01*
X26729Y679026D01*
X26710Y679148D01*
X26694Y679270D01*
X26682Y679392D01*
X26674Y679515D01*
X26670Y679638D01*
X26670Y679762D01*
X26674Y679885D01*
X26682Y680008D01*
X26694Y680130D01*
X26710Y680252D01*
X26729Y680374D01*
X26752Y680495D01*
X26779Y680615D01*
X26810Y680734D01*
X26845Y680852D01*
X26883Y680969D01*
X26926Y681085D01*
X26971Y681199D01*
X27021Y681312D01*
X27074Y681423D01*
X27130Y681533D01*
X27190Y681641D01*
X27253Y681746D01*
X27320Y681850D01*
X27390Y681951D01*
X27463Y682050D01*
X27539Y682147D01*
X27618Y682242D01*
X27700Y682333D01*
X27785Y682422D01*
X27873Y682509D01*
X27963Y682592D01*
X28056Y682673D01*
X28152Y682751D01*
X28250Y682825D01*
X28350Y682897D01*
X28453Y682965D01*
X28557Y683030D01*
X28664Y683091D01*
X28773Y683150D01*
X28883Y683204D01*
X28995Y683255D01*
X29109Y683303D01*
X29224Y683347D01*
X29340Y683387D01*
X29458Y683424D01*
X29576Y683457D01*
X29696Y683486D01*
X29817Y683511D01*
X29938Y683532D01*
X30060Y683550D01*
X30182Y683563D01*
X30305Y683573D01*
X30428Y683579D01*
X30551Y683581D01*
X35207Y683581D01*
X35330Y683579D01*
X35453Y683573D01*
X35576Y683563D01*
X35698Y683550D01*
X35820Y683532D01*
X35941Y683511D01*
X36062Y683486D01*
X36182Y683457D01*
X36300Y683424D01*
X36418Y683387D01*
X36534Y683347D01*
X36649Y683303D01*
X36763Y683255D01*
X36875Y683204D01*
X36985Y683150D01*
X37094Y683091D01*
X37201Y683030D01*
X37305Y682965D01*
X37408Y682897D01*
X37508Y682825D01*
X37606Y682751D01*
X37702Y682673D01*
X37795Y682592D01*
X37885Y682509D01*
X37973Y682422D01*
X38058Y682333D01*
X38140Y682242D01*
X38219Y682147D01*
X38295Y682050D01*
X38368Y681951D01*
X38438Y681850D01*
X38505Y681746D01*
X38568Y681641D01*
X38628Y681533D01*
X38684Y681423D01*
X38737Y681312D01*
X38787Y681199D01*
X38832Y681085D01*
X38875Y680969D01*
X38913Y680852D01*
X38948Y680734D01*
X38979Y680615D01*
X39006Y680495D01*
X39029Y680374D01*
X39048Y680252D01*
X39064Y680130D01*
X39076Y680008D01*
X39084Y679885D01*
X39088Y679762D01*
X39088Y679638D01*
X39084Y679515D01*
X39076Y679392D01*
X39064Y679270D01*
X39048Y679148D01*
X39029Y679026D01*
X39006Y678905D01*
X38979Y678785D01*
X38948Y678666D01*
X38913Y678548D01*
X38875Y678431D01*
X38832Y678315D01*
X38787Y678201D01*
X38737Y678088D01*
X38684Y677977D01*
X38628Y677867D01*
X38568Y677760D01*
X38505Y677654D01*
X38438Y677550D01*
X38368Y677449D01*
X38295Y677350D01*
X38219Y677253D01*
X38140Y677158D01*
X38058Y677067D01*
X37973Y676978D01*
X37885Y676891D01*
X37795Y676808D01*
X37702Y676727D01*
X37606Y676649D01*
X37508Y676575D01*
X37408Y676503D01*
X37305Y676435D01*
X37201Y676370D01*
X37094Y676309D01*
X36985Y676250D01*
X36875Y676196D01*
X36763Y676145D01*
X36649Y676097D01*
X36534Y676053D01*
X36418Y676013D01*
X36300Y675976D01*
X36182Y675943D01*
X36062Y675914D01*
X35941Y675889D01*
X35820Y675868D01*
X35698Y675850D01*
X35576Y675837D01*
X35453Y675827D01*
X35330Y675821D01*
X35207Y675819D01*
X45297Y675820D02*
X45297Y683581D01*
X54610Y704593D02*
X54610Y712355D01*
X54608Y712544D01*
X54601Y712733D01*
X54589Y712922D01*
X54573Y713110D01*
X54553Y713298D01*
X54527Y713485D01*
X54498Y713672D01*
X54463Y713858D01*
X54424Y714042D01*
X54381Y714226D01*
X54333Y714409D01*
X54281Y714591D01*
X54224Y714771D01*
X54163Y714950D01*
X54098Y715127D01*
X54028Y715303D01*
X53954Y715477D01*
X53876Y715649D01*
X53794Y715819D01*
X53707Y715987D01*
X53617Y716153D01*
X53522Y716317D01*
X53424Y716478D01*
X53322Y716637D01*
X53215Y716794D01*
X53105Y716947D01*
X52992Y717098D01*
X52874Y717246D01*
X52754Y717392D01*
X52629Y717534D01*
X52501Y717673D01*
X52370Y717809D01*
X52236Y717942D01*
X52098Y718072D01*
X51957Y718198D01*
X51814Y718320D01*
X51667Y718440D01*
X51517Y718555D01*
X51365Y718667D01*
X51210Y718775D01*
X51052Y718879D01*
X50892Y718980D01*
X50730Y719076D01*
X50565Y719169D01*
X50398Y719257D01*
X50229Y719342D01*
X50057Y719422D01*
X49884Y719498D01*
X49710Y719570D01*
X49533Y719637D01*
X49355Y719700D01*
X49175Y719759D01*
X48994Y719814D01*
X48812Y719864D01*
X48629Y719909D01*
X48444Y719950D01*
X48259Y719987D01*
X48072Y720019D01*
X47885Y720046D01*
X47698Y720069D01*
X47510Y720088D01*
X47321Y720102D01*
X47132Y720111D01*
X46944Y720115D01*
X46754Y720115D01*
X46566Y720111D01*
X46377Y720102D01*
X46188Y720088D01*
X46000Y720069D01*
X45813Y720046D01*
X45626Y720019D01*
X45439Y719987D01*
X45254Y719950D01*
X45069Y719909D01*
X44886Y719864D01*
X44704Y719814D01*
X44523Y719759D01*
X44343Y719700D01*
X44165Y719637D01*
X43988Y719570D01*
X43814Y719498D01*
X43641Y719422D01*
X43469Y719342D01*
X43300Y719257D01*
X43133Y719169D01*
X42969Y719076D01*
X42806Y718980D01*
X42646Y718879D01*
X42488Y718775D01*
X42333Y718667D01*
X42181Y718555D01*
X42031Y718440D01*
X41884Y718320D01*
X41741Y718198D01*
X41600Y718072D01*
X41462Y717942D01*
X41328Y717809D01*
X41197Y717673D01*
X41069Y717534D01*
X40944Y717392D01*
X40824Y717246D01*
X40706Y717098D01*
X40593Y716947D01*
X40483Y716794D01*
X40376Y716637D01*
X40274Y716478D01*
X40176Y716317D01*
X40081Y716153D01*
X39991Y715987D01*
X39904Y715819D01*
X39822Y715649D01*
X39744Y715477D01*
X39670Y715303D01*
X39600Y715127D01*
X39535Y714950D01*
X39474Y714771D01*
X39417Y714591D01*
X39365Y714409D01*
X39317Y714226D01*
X39274Y714042D01*
X39235Y713858D01*
X39200Y713672D01*
X39171Y713485D01*
X39145Y713298D01*
X39125Y713110D01*
X39109Y712922D01*
X39097Y712733D01*
X39090Y712544D01*
X39088Y712355D01*
X26670Y713907D02*
X26670Y704593D01*
X26670Y713907D02*
X26672Y714063D01*
X26678Y714219D01*
X26688Y714375D01*
X26701Y714530D01*
X26719Y714685D01*
X26740Y714840D01*
X26766Y714994D01*
X26795Y715147D01*
X26828Y715299D01*
X26865Y715451D01*
X26906Y715602D01*
X26950Y715751D01*
X26998Y715900D01*
X27050Y716047D01*
X27106Y716193D01*
X27165Y716337D01*
X27228Y716480D01*
X27295Y716621D01*
X27365Y716761D01*
X27438Y716898D01*
X27515Y717034D01*
X27595Y717168D01*
X27679Y717300D01*
X27766Y717429D01*
X27856Y717557D01*
X27949Y717682D01*
X28046Y717804D01*
X28145Y717925D01*
X28247Y718042D01*
X28353Y718157D01*
X28461Y718270D01*
X28572Y718379D01*
X28686Y718486D01*
X28802Y718590D01*
X28921Y718691D01*
X29043Y718789D01*
X29167Y718884D01*
X29293Y718976D01*
X29421Y719064D01*
X29552Y719149D01*
X29685Y719231D01*
X29820Y719310D01*
X29956Y719385D01*
X30095Y719457D01*
X30235Y719525D01*
X30377Y719590D01*
X30521Y719651D01*
X30666Y719708D01*
X30813Y719762D01*
X30960Y719812D01*
X31109Y719858D01*
X31259Y719901D01*
X31411Y719940D01*
X31563Y719975D01*
X31716Y720006D01*
X31869Y720033D01*
X32023Y720057D01*
X32178Y720076D01*
X32334Y720092D01*
X32489Y720104D01*
X32645Y720112D01*
X32801Y720116D01*
X32957Y720116D01*
X33113Y720112D01*
X33269Y720104D01*
X33424Y720092D01*
X33580Y720076D01*
X33735Y720057D01*
X33889Y720033D01*
X34042Y720006D01*
X34195Y719975D01*
X34347Y719940D01*
X34499Y719901D01*
X34649Y719858D01*
X34798Y719812D01*
X34945Y719762D01*
X35092Y719708D01*
X35237Y719651D01*
X35381Y719590D01*
X35523Y719525D01*
X35663Y719457D01*
X35802Y719385D01*
X35938Y719310D01*
X36073Y719231D01*
X36206Y719149D01*
X36337Y719064D01*
X36465Y718976D01*
X36591Y718884D01*
X36715Y718789D01*
X36837Y718691D01*
X36956Y718590D01*
X37072Y718486D01*
X37186Y718379D01*
X37297Y718270D01*
X37405Y718157D01*
X37511Y718042D01*
X37613Y717925D01*
X37712Y717804D01*
X37809Y717682D01*
X37902Y717557D01*
X37992Y717429D01*
X38079Y717300D01*
X38163Y717168D01*
X38243Y717034D01*
X38320Y716898D01*
X38393Y716761D01*
X38463Y716621D01*
X38530Y716480D01*
X38593Y716337D01*
X38652Y716193D01*
X38708Y716047D01*
X38760Y715900D01*
X38808Y715751D01*
X38852Y715602D01*
X38893Y715451D01*
X38930Y715299D01*
X38963Y715147D01*
X38992Y714994D01*
X39018Y714840D01*
X39039Y714685D01*
X39057Y714530D01*
X39070Y714375D01*
X39080Y714219D01*
X39086Y714063D01*
X39088Y713907D01*
X39088Y707698D01*
X32879Y730673D02*
X32879Y735330D01*
X32879Y730673D02*
X32881Y730562D01*
X32887Y730452D01*
X32897Y730341D01*
X32911Y730231D01*
X32928Y730122D01*
X32950Y730013D01*
X32975Y729905D01*
X33005Y729799D01*
X33038Y729693D01*
X33075Y729588D01*
X33115Y729485D01*
X33160Y729384D01*
X33207Y729284D01*
X33259Y729185D01*
X33314Y729089D01*
X33372Y728995D01*
X33433Y728903D01*
X33498Y728813D01*
X33566Y728725D01*
X33637Y728640D01*
X33711Y728558D01*
X33788Y728478D01*
X33868Y728401D01*
X33950Y728327D01*
X34035Y728256D01*
X34123Y728188D01*
X34213Y728123D01*
X34305Y728062D01*
X34399Y728004D01*
X34495Y727949D01*
X34594Y727897D01*
X34694Y727850D01*
X34795Y727805D01*
X34898Y727765D01*
X35003Y727728D01*
X35109Y727695D01*
X35215Y727665D01*
X35323Y727640D01*
X35432Y727618D01*
X35541Y727601D01*
X35651Y727587D01*
X35762Y727577D01*
X35872Y727571D01*
X35983Y727569D01*
X36094Y727571D01*
X36204Y727577D01*
X36315Y727587D01*
X36425Y727601D01*
X36534Y727618D01*
X36643Y727640D01*
X36751Y727665D01*
X36857Y727695D01*
X36963Y727728D01*
X37068Y727765D01*
X37171Y727805D01*
X37272Y727850D01*
X37372Y727897D01*
X37471Y727949D01*
X37567Y728004D01*
X37661Y728062D01*
X37753Y728123D01*
X37843Y728188D01*
X37931Y728256D01*
X38016Y728327D01*
X38098Y728401D01*
X38178Y728478D01*
X38255Y728558D01*
X38329Y728640D01*
X38400Y728725D01*
X38468Y728813D01*
X38533Y728903D01*
X38594Y728995D01*
X38652Y729089D01*
X38707Y729185D01*
X38759Y729284D01*
X38806Y729384D01*
X38851Y729485D01*
X38891Y729588D01*
X38928Y729693D01*
X38961Y729799D01*
X38991Y729905D01*
X39016Y730013D01*
X39038Y730122D01*
X39055Y730231D01*
X39069Y730341D01*
X39079Y730452D01*
X39085Y730562D01*
X39087Y730673D01*
X39088Y730673D02*
X39088Y735330D01*
X29774Y735330D01*
X29774Y735331D02*
X29663Y735329D01*
X29552Y735323D01*
X29442Y735313D01*
X29332Y735299D01*
X29223Y735282D01*
X29114Y735260D01*
X29006Y735235D01*
X28899Y735205D01*
X28793Y735172D01*
X28689Y735135D01*
X28586Y735095D01*
X28484Y735050D01*
X28384Y735003D01*
X28286Y734951D01*
X28190Y734896D01*
X28095Y734838D01*
X28003Y734777D01*
X27913Y734712D01*
X27826Y734644D01*
X27741Y734573D01*
X27658Y734499D01*
X27578Y734422D01*
X27501Y734342D01*
X27427Y734259D01*
X27356Y734174D01*
X27288Y734087D01*
X27224Y733997D01*
X27162Y733905D01*
X27104Y733810D01*
X27049Y733714D01*
X26997Y733616D01*
X26950Y733516D01*
X26905Y733414D01*
X26865Y733311D01*
X26828Y733207D01*
X26795Y733101D01*
X26765Y732994D01*
X26740Y732886D01*
X26718Y732777D01*
X26701Y732668D01*
X26687Y732558D01*
X26677Y732448D01*
X26671Y732337D01*
X26669Y732226D01*
X26670Y732226D02*
X26670Y728345D01*
X45297Y727569D02*
X45297Y735330D01*
D11*
X177800Y603504D02*
X177800Y590296D01*
X203200Y590296D02*
X203200Y603504D01*
X330200Y603504D02*
X330200Y590296D01*
X355600Y590296D02*
X355600Y603504D01*
X228600Y603504D02*
X228600Y590296D01*
X254000Y590296D02*
X254000Y603504D01*
X304800Y603504D02*
X304800Y590296D01*
X279400Y590296D02*
X279400Y603504D01*
X355600Y666496D02*
X355600Y679704D01*
X330200Y679704D02*
X330200Y666496D01*
X304800Y666496D02*
X304800Y679704D01*
X279400Y679704D02*
X279400Y666496D01*
X254000Y666496D02*
X254000Y679704D01*
X228600Y679704D02*
X228600Y666496D01*
X203200Y666496D02*
X203200Y679704D01*
X177800Y679704D02*
X177800Y666496D01*
X736600Y603504D02*
X736600Y590296D01*
X762000Y590296D02*
X762000Y603504D01*
X889000Y603504D02*
X889000Y590296D01*
X914400Y590296D02*
X914400Y603504D01*
X787400Y603504D02*
X787400Y590296D01*
X812800Y590296D02*
X812800Y603504D01*
X863600Y603504D02*
X863600Y590296D01*
X838200Y590296D02*
X838200Y603504D01*
X914400Y666496D02*
X914400Y679704D01*
X889000Y679704D02*
X889000Y666496D01*
X863600Y666496D02*
X863600Y679704D01*
X838200Y679704D02*
X838200Y666496D01*
X812800Y666496D02*
X812800Y679704D01*
X787400Y679704D02*
X787400Y666496D01*
X762000Y666496D02*
X762000Y679704D01*
X736600Y679704D02*
X736600Y666496D01*
X590804Y368300D02*
X577596Y368300D01*
X577596Y393700D02*
X590804Y393700D01*
X590804Y520700D02*
X577596Y520700D01*
X577596Y546100D02*
X590804Y546100D01*
X590804Y419100D02*
X577596Y419100D01*
X577596Y444500D02*
X590804Y444500D01*
X590804Y495300D02*
X577596Y495300D01*
X577596Y469900D02*
X590804Y469900D01*
X514604Y546100D02*
X501396Y546100D01*
X501396Y520700D02*
X514604Y520700D01*
X514604Y495300D02*
X501396Y495300D01*
X501396Y469900D02*
X514604Y469900D01*
X514604Y444500D02*
X501396Y444500D01*
X501396Y419100D02*
X514604Y419100D01*
X514604Y393700D02*
X501396Y393700D01*
X501396Y368300D02*
X514604Y368300D01*
X146304Y368300D02*
X133096Y368300D01*
X133096Y342900D02*
X146304Y342900D01*
X209296Y342900D02*
X222504Y342900D01*
X222504Y368300D02*
X209296Y368300D01*
X146304Y317500D02*
X133096Y317500D01*
X133096Y292100D02*
X146304Y292100D01*
X209296Y317500D02*
X222504Y317500D01*
X222504Y292100D02*
X209296Y292100D01*
D12*
X139700Y444500D03*
X165100Y444500D03*
D13*
X342900Y241300D03*
X368300Y241300D03*
X393700Y241300D03*
X787400Y114300D03*
X812800Y114300D03*
X152400Y889000D03*
X177800Y889000D03*
X203200Y889000D03*
X228600Y889000D03*
X254000Y889000D03*
X279400Y889000D03*
X304800Y889000D03*
X330200Y889000D03*
X355600Y889000D03*
X381000Y889000D03*
X711200Y889000D03*
X736600Y889000D03*
X762000Y889000D03*
X787400Y889000D03*
X812800Y889000D03*
X838200Y889000D03*
X863600Y889000D03*
X889000Y889000D03*
X914400Y889000D03*
X939800Y889000D03*
X838200Y749300D03*
X838200Y825500D03*
X889000Y749300D03*
X889000Y825500D03*
X914400Y749300D03*
X914400Y825500D03*
X177800Y736600D03*
X177800Y812800D03*
X203200Y736600D03*
X203200Y812800D03*
X228600Y736600D03*
X228600Y812800D03*
X254000Y736600D03*
X254000Y812800D03*
X279400Y736600D03*
X279400Y812800D03*
D14*
X203200Y203200D03*
X152400Y203200D03*
X177800Y177800D03*
D13*
X330200Y736600D03*
X330200Y812800D03*
X355600Y736600D03*
X355600Y812800D03*
X342900Y342900D03*
X266700Y342900D03*
X723900Y292100D03*
X723900Y368300D03*
X876300Y342900D03*
X952500Y342900D03*
X736600Y749300D03*
X736600Y825500D03*
X762000Y749300D03*
X762000Y825500D03*
X787400Y749300D03*
X787400Y825500D03*
X812800Y749300D03*
X812800Y825500D03*
X881888Y263906D03*
X946912Y263906D03*
X881888Y218694D03*
X946912Y218694D03*
X584200Y952500D03*
X558800Y952500D03*
X533400Y952500D03*
X508000Y952500D03*
D15*
X444500Y101600D03*
D16*
X494500Y101600D03*
X544500Y101600D03*
D15*
X596900Y101600D03*
D16*
X646900Y101600D03*
X696900Y101600D03*
D17*
X609600Y546100D02*
X482600Y546100D01*
D18*
X482600Y546100D03*
X609600Y546100D03*
X381000Y596900D03*
D17*
X457200Y596900D01*
X482600Y571500D01*
X482600Y546100D01*
X609600Y546100D02*
X647700Y546100D01*
X698500Y495300D02*
X698500Y393700D01*
X723900Y368300D01*
X698500Y495300D02*
X647700Y546100D01*
D19*
X254000Y558800D03*
X254000Y406400D03*
D17*
X254000Y558800D01*
D20*
X914400Y304800D03*
D17*
X914400Y533400D02*
X876300Y571500D01*
X800100Y571500D01*
X914400Y533400D02*
X914400Y304800D01*
D18*
X800100Y571500D03*
D19*
X292100Y215900D03*
D17*
X292100Y330200D02*
X279400Y342900D01*
X266700Y342900D01*
X292100Y330200D02*
X292100Y215900D01*
D19*
X254000Y165100D03*
D17*
X254000Y292100D01*
D19*
X254000Y292100D03*
D17*
X368300Y215900D02*
X381000Y203200D01*
X596900Y254000D02*
X596900Y304800D01*
X596900Y254000D02*
X546100Y203200D01*
X381000Y203200D01*
D20*
X368300Y215900D03*
D18*
X596900Y304800D03*
D19*
X812800Y304800D03*
D17*
X812800Y520700D01*
D19*
X812800Y520700D03*
D17*
X812800Y304800D02*
X812800Y279400D01*
X698500Y165100D01*
X546100Y165100D01*
D20*
X546100Y165100D03*
D18*
X469900Y342900D03*
D17*
X609600Y342900D01*
X698500Y254000D02*
X698500Y165100D01*
X698500Y254000D02*
X609600Y342900D01*
D19*
X533400Y304800D03*
D17*
X534670Y303530D01*
X534670Y278130D01*
X546100Y266700D01*
X546100Y241300D01*
D19*
X546100Y241300D03*
X228600Y707390D03*
D17*
X224790Y711200D01*
X190500Y711200D01*
X177800Y723900D01*
X177800Y736600D01*
X349250Y717550D02*
X355600Y711200D01*
D19*
X355600Y711200D03*
D17*
X247650Y717550D02*
X228600Y736600D01*
X247650Y717550D02*
X349250Y717550D01*
D19*
X279400Y698246D03*
D17*
X330200Y698246D01*
D19*
X330200Y698246D03*
X254000Y635000D03*
D17*
X368300Y635000D01*
X381000Y647700D01*
X381000Y749300D01*
X368300Y762000D01*
X342900Y762000D02*
X330200Y749300D01*
X330200Y736600D01*
X342900Y762000D02*
X368300Y762000D01*
X745490Y715010D02*
X787400Y715010D01*
X745490Y715010D02*
X736600Y723900D01*
X736600Y749300D01*
D18*
X787400Y715010D03*
D19*
X812800Y635000D03*
D17*
X927100Y635000D02*
X939800Y647700D01*
X939800Y762000D01*
X927100Y774700D01*
X901700Y774700D01*
X927100Y635000D02*
X812800Y635000D01*
X889000Y762000D02*
X901700Y774700D01*
X889000Y762000D02*
X889000Y749300D01*
D19*
X838200Y706120D03*
D17*
X889000Y706120D01*
D19*
X889000Y706120D03*
D17*
X895350Y730250D02*
X802640Y730250D01*
X895350Y730250D02*
X914400Y711200D01*
D19*
X914400Y711200D03*
D17*
X802640Y730250D02*
X787400Y745490D01*
X787400Y749300D01*
X533400Y520700D02*
X482600Y520700D01*
X558800Y495300D02*
X609600Y495300D01*
X558800Y495300D02*
X533400Y520700D01*
D18*
X482600Y520700D03*
X609600Y495300D03*
X762000Y469900D03*
X762000Y558800D03*
D17*
X762000Y469900D01*
D18*
X736600Y444500D03*
X736600Y571500D03*
D17*
X736600Y444500D01*
D18*
X177800Y558800D03*
X177800Y482600D03*
D17*
X177800Y558800D01*
D18*
X203200Y571500D03*
X203200Y444500D03*
D17*
X203200Y571500D01*
X419100Y381000D02*
X419100Y292100D01*
X406400Y279400D01*
X330200Y279400D01*
X317500Y266700D01*
X317500Y203200D01*
X342900Y177800D01*
X482600Y177800D02*
X495300Y165100D01*
X482600Y177800D02*
X342900Y177800D01*
D20*
X495300Y165100D03*
D17*
X419100Y381000D02*
X304800Y495300D01*
X419100Y381000D02*
X444500Y406400D01*
X444500Y419100D01*
D18*
X444500Y419100D03*
X304800Y558800D03*
D17*
X304800Y495300D01*
D18*
X444500Y495300D03*
X330200Y571500D03*
D17*
X381000Y571500D01*
X444500Y508000D02*
X444500Y495300D01*
X444500Y508000D02*
X381000Y571500D01*
D19*
X393700Y139700D03*
D17*
X393700Y50800D01*
D19*
X393700Y50800D03*
M02*
