G04 EAGLE Gerber RS-274X export*
G75*
%MOMM*%
%FSLAX34Y34*%
%LPD*%
%INBottom Copper*%
%IPPOS*%
%AMOC8*
5,1,8,0,0,1.08239X$1,22.5*%
G01*
%ADD10C,0.254000*%
%ADD11C,1.320800*%
%ADD12P,1.732040X8X22.500000*%
%ADD13C,1.879600*%
%ADD14P,1.429621X8X202.500000*%
%ADD15R,2.413000X2.413000*%
%ADD16C,2.413000*%
%ADD17C,0.508000*%
%ADD18C,1.800000*%
%ADD19C,1.778000*%
%ADD20C,2.000000*%


D10*
X34290Y348625D02*
X62230Y348625D01*
X46708Y357939D01*
X62230Y367252D01*
X34290Y367252D01*
X45156Y381830D02*
X45156Y388815D01*
X45156Y381830D02*
X45154Y381684D01*
X45148Y381538D01*
X45138Y381393D01*
X45125Y381248D01*
X45107Y381103D01*
X45086Y380958D01*
X45060Y380815D01*
X45031Y380672D01*
X44998Y380530D01*
X44961Y380389D01*
X44921Y380249D01*
X44876Y380110D01*
X44828Y379972D01*
X44777Y379835D01*
X44721Y379700D01*
X44662Y379567D01*
X44600Y379435D01*
X44534Y379305D01*
X44464Y379177D01*
X44391Y379051D01*
X44315Y378926D01*
X44235Y378804D01*
X44152Y378684D01*
X44066Y378566D01*
X43977Y378451D01*
X43885Y378338D01*
X43790Y378227D01*
X43691Y378119D01*
X43590Y378014D01*
X43487Y377912D01*
X43380Y377812D01*
X43271Y377715D01*
X43159Y377622D01*
X43045Y377531D01*
X42928Y377443D01*
X42809Y377359D01*
X42688Y377277D01*
X42565Y377200D01*
X42440Y377125D01*
X42312Y377054D01*
X42183Y376986D01*
X42052Y376922D01*
X41919Y376861D01*
X41785Y376804D01*
X41650Y376750D01*
X41512Y376700D01*
X41374Y376654D01*
X41235Y376612D01*
X41094Y376573D01*
X40952Y376538D01*
X40810Y376507D01*
X40666Y376480D01*
X40522Y376456D01*
X40378Y376437D01*
X40233Y376421D01*
X40087Y376409D01*
X39942Y376401D01*
X39796Y376397D01*
X39650Y376397D01*
X39504Y376401D01*
X39359Y376409D01*
X39213Y376421D01*
X39068Y376437D01*
X38924Y376456D01*
X38780Y376480D01*
X38636Y376507D01*
X38494Y376538D01*
X38352Y376573D01*
X38211Y376612D01*
X38072Y376654D01*
X37934Y376700D01*
X37796Y376750D01*
X37661Y376804D01*
X37527Y376861D01*
X37394Y376922D01*
X37263Y376986D01*
X37134Y377054D01*
X37007Y377125D01*
X36881Y377200D01*
X36758Y377277D01*
X36637Y377359D01*
X36518Y377443D01*
X36401Y377531D01*
X36287Y377622D01*
X36175Y377715D01*
X36066Y377812D01*
X35959Y377912D01*
X35856Y378014D01*
X35755Y378119D01*
X35656Y378227D01*
X35561Y378338D01*
X35469Y378451D01*
X35380Y378566D01*
X35294Y378684D01*
X35211Y378804D01*
X35131Y378926D01*
X35055Y379051D01*
X34982Y379177D01*
X34912Y379305D01*
X34846Y379435D01*
X34784Y379567D01*
X34725Y379700D01*
X34669Y379835D01*
X34618Y379972D01*
X34570Y380110D01*
X34525Y380249D01*
X34485Y380389D01*
X34448Y380530D01*
X34415Y380672D01*
X34386Y380815D01*
X34360Y380958D01*
X34339Y381103D01*
X34321Y381248D01*
X34308Y381393D01*
X34298Y381538D01*
X34292Y381684D01*
X34290Y381830D01*
X34290Y388815D01*
X48260Y388815D01*
X48395Y388813D01*
X48531Y388807D01*
X48666Y388797D01*
X48801Y388784D01*
X48935Y388766D01*
X49069Y388744D01*
X49202Y388719D01*
X49334Y388689D01*
X49465Y388656D01*
X49596Y388619D01*
X49725Y388579D01*
X49853Y388534D01*
X49979Y388486D01*
X50105Y388434D01*
X50228Y388379D01*
X50350Y388320D01*
X50470Y388257D01*
X50589Y388191D01*
X50705Y388122D01*
X50819Y388049D01*
X50931Y387973D01*
X51041Y387893D01*
X51148Y387811D01*
X51253Y387725D01*
X51356Y387637D01*
X51456Y387545D01*
X51553Y387451D01*
X51647Y387354D01*
X51739Y387254D01*
X51827Y387151D01*
X51913Y387046D01*
X51995Y386939D01*
X52075Y386829D01*
X52151Y386717D01*
X52224Y386603D01*
X52293Y386487D01*
X52359Y386368D01*
X52422Y386248D01*
X52481Y386126D01*
X52536Y386003D01*
X52588Y385877D01*
X52636Y385751D01*
X52681Y385623D01*
X52721Y385494D01*
X52758Y385363D01*
X52791Y385232D01*
X52821Y385100D01*
X52846Y384967D01*
X52868Y384833D01*
X52886Y384699D01*
X52899Y384564D01*
X52909Y384429D01*
X52915Y384293D01*
X52917Y384158D01*
X52917Y377949D01*
X52917Y398557D02*
X34290Y398557D01*
X60678Y397781D02*
X62230Y397781D01*
X62230Y399333D01*
X60678Y399333D01*
X60678Y397781D01*
X52917Y408277D02*
X34290Y408277D01*
X52917Y408277D02*
X52917Y416038D01*
X52915Y416173D01*
X52909Y416309D01*
X52899Y416444D01*
X52886Y416579D01*
X52868Y416713D01*
X52846Y416847D01*
X52821Y416980D01*
X52791Y417112D01*
X52758Y417243D01*
X52721Y417374D01*
X52681Y417503D01*
X52636Y417631D01*
X52588Y417757D01*
X52536Y417883D01*
X52481Y418006D01*
X52422Y418128D01*
X52359Y418248D01*
X52293Y418367D01*
X52224Y418483D01*
X52151Y418597D01*
X52075Y418709D01*
X51995Y418819D01*
X51913Y418926D01*
X51827Y419031D01*
X51739Y419134D01*
X51647Y419234D01*
X51553Y419331D01*
X51456Y419425D01*
X51356Y419517D01*
X51253Y419605D01*
X51148Y419691D01*
X51041Y419773D01*
X50931Y419853D01*
X50819Y419929D01*
X50705Y420002D01*
X50589Y420071D01*
X50470Y420137D01*
X50350Y420200D01*
X50228Y420259D01*
X50105Y420314D01*
X49979Y420366D01*
X49853Y420414D01*
X49725Y420459D01*
X49596Y420499D01*
X49465Y420536D01*
X49334Y420569D01*
X49202Y420599D01*
X49069Y420624D01*
X48935Y420646D01*
X48801Y420664D01*
X48666Y420677D01*
X48531Y420687D01*
X48395Y420693D01*
X48260Y420695D01*
X34290Y420695D01*
X34290Y434438D02*
X34290Y442199D01*
X34290Y434438D02*
X34292Y434303D01*
X34298Y434167D01*
X34308Y434032D01*
X34321Y433897D01*
X34339Y433763D01*
X34361Y433629D01*
X34386Y433496D01*
X34416Y433364D01*
X34449Y433233D01*
X34486Y433102D01*
X34526Y432973D01*
X34571Y432845D01*
X34619Y432719D01*
X34671Y432593D01*
X34726Y432470D01*
X34785Y432348D01*
X34848Y432228D01*
X34914Y432110D01*
X34983Y431993D01*
X35056Y431879D01*
X35132Y431767D01*
X35212Y431657D01*
X35294Y431550D01*
X35380Y431445D01*
X35468Y431342D01*
X35560Y431242D01*
X35654Y431145D01*
X35751Y431051D01*
X35851Y430959D01*
X35954Y430871D01*
X36059Y430785D01*
X36166Y430703D01*
X36276Y430623D01*
X36388Y430547D01*
X36502Y430474D01*
X36619Y430405D01*
X36737Y430339D01*
X36857Y430276D01*
X36979Y430217D01*
X37102Y430162D01*
X37228Y430110D01*
X37354Y430062D01*
X37482Y430017D01*
X37611Y429977D01*
X37742Y429940D01*
X37873Y429907D01*
X38005Y429877D01*
X38138Y429852D01*
X38272Y429830D01*
X38406Y429812D01*
X38541Y429799D01*
X38676Y429789D01*
X38812Y429783D01*
X38947Y429781D01*
X46708Y429781D01*
X46864Y429783D01*
X47020Y429789D01*
X47176Y429799D01*
X47331Y429812D01*
X47486Y429830D01*
X47641Y429851D01*
X47795Y429877D01*
X47948Y429906D01*
X48100Y429939D01*
X48252Y429976D01*
X48403Y430017D01*
X48552Y430061D01*
X48701Y430109D01*
X48848Y430161D01*
X48994Y430217D01*
X49138Y430276D01*
X49281Y430339D01*
X49422Y430406D01*
X49562Y430476D01*
X49699Y430549D01*
X49835Y430626D01*
X49969Y430706D01*
X50101Y430790D01*
X50230Y430877D01*
X50358Y430967D01*
X50483Y431060D01*
X50605Y431157D01*
X50726Y431256D01*
X50843Y431358D01*
X50958Y431464D01*
X51071Y431572D01*
X51180Y431683D01*
X51287Y431797D01*
X51391Y431913D01*
X51492Y432032D01*
X51590Y432154D01*
X51685Y432278D01*
X51777Y432404D01*
X51865Y432532D01*
X51950Y432663D01*
X52032Y432796D01*
X52111Y432931D01*
X52186Y433067D01*
X52258Y433206D01*
X52326Y433346D01*
X52391Y433488D01*
X52452Y433632D01*
X52509Y433777D01*
X52563Y433924D01*
X52613Y434071D01*
X52659Y434220D01*
X52702Y434370D01*
X52741Y434522D01*
X52776Y434674D01*
X52807Y434827D01*
X52834Y434980D01*
X52858Y435134D01*
X52877Y435289D01*
X52893Y435445D01*
X52905Y435600D01*
X52913Y435756D01*
X52917Y435912D01*
X52917Y436068D01*
X52913Y436224D01*
X52905Y436380D01*
X52893Y436535D01*
X52877Y436691D01*
X52858Y436846D01*
X52834Y437000D01*
X52807Y437153D01*
X52776Y437306D01*
X52741Y437458D01*
X52702Y437610D01*
X52659Y437760D01*
X52613Y437909D01*
X52563Y438056D01*
X52509Y438203D01*
X52452Y438348D01*
X52391Y438492D01*
X52326Y438634D01*
X52258Y438774D01*
X52186Y438913D01*
X52111Y439049D01*
X52032Y439184D01*
X51950Y439317D01*
X51865Y439448D01*
X51777Y439576D01*
X51685Y439702D01*
X51590Y439826D01*
X51492Y439948D01*
X51391Y440067D01*
X51287Y440183D01*
X51180Y440297D01*
X51071Y440408D01*
X50958Y440516D01*
X50843Y440622D01*
X50726Y440724D01*
X50605Y440823D01*
X50483Y440920D01*
X50358Y441013D01*
X50230Y441103D01*
X50101Y441190D01*
X49969Y441274D01*
X49835Y441354D01*
X49699Y441431D01*
X49562Y441504D01*
X49422Y441574D01*
X49281Y441641D01*
X49138Y441704D01*
X48994Y441763D01*
X48848Y441819D01*
X48701Y441871D01*
X48552Y441919D01*
X48403Y441963D01*
X48252Y442004D01*
X48100Y442041D01*
X47948Y442074D01*
X47795Y442103D01*
X47641Y442129D01*
X47486Y442150D01*
X47331Y442168D01*
X47176Y442181D01*
X47020Y442191D01*
X46864Y442197D01*
X46708Y442199D01*
X43603Y442199D01*
X43603Y429781D01*
X34290Y451285D02*
X52917Y451285D01*
X52917Y459046D01*
X52915Y459181D01*
X52909Y459317D01*
X52899Y459452D01*
X52886Y459587D01*
X52868Y459721D01*
X52846Y459855D01*
X52821Y459988D01*
X52791Y460120D01*
X52758Y460251D01*
X52721Y460382D01*
X52681Y460511D01*
X52636Y460639D01*
X52588Y460765D01*
X52536Y460891D01*
X52481Y461014D01*
X52422Y461136D01*
X52359Y461256D01*
X52293Y461375D01*
X52224Y461491D01*
X52151Y461605D01*
X52075Y461717D01*
X51995Y461827D01*
X51913Y461934D01*
X51827Y462039D01*
X51739Y462142D01*
X51647Y462242D01*
X51553Y462339D01*
X51456Y462433D01*
X51356Y462525D01*
X51253Y462613D01*
X51148Y462699D01*
X51041Y462781D01*
X50931Y462861D01*
X50819Y462937D01*
X50705Y463010D01*
X50589Y463079D01*
X50470Y463145D01*
X50350Y463208D01*
X50228Y463267D01*
X50105Y463322D01*
X49979Y463374D01*
X49853Y463422D01*
X49725Y463467D01*
X49596Y463507D01*
X49465Y463544D01*
X49334Y463577D01*
X49202Y463607D01*
X49069Y463632D01*
X48935Y463654D01*
X48801Y463672D01*
X48666Y463685D01*
X48531Y463695D01*
X48395Y463701D01*
X48260Y463703D01*
X34290Y463703D01*
X52917Y471117D02*
X52917Y480430D01*
X62230Y474221D02*
X38947Y474221D01*
X38812Y474223D01*
X38676Y474229D01*
X38541Y474239D01*
X38406Y474252D01*
X38272Y474270D01*
X38138Y474292D01*
X38005Y474317D01*
X37873Y474347D01*
X37742Y474380D01*
X37611Y474417D01*
X37482Y474457D01*
X37354Y474502D01*
X37228Y474550D01*
X37102Y474602D01*
X36979Y474657D01*
X36857Y474716D01*
X36737Y474779D01*
X36619Y474845D01*
X36502Y474914D01*
X36388Y474987D01*
X36276Y475063D01*
X36166Y475143D01*
X36059Y475225D01*
X35954Y475311D01*
X35851Y475399D01*
X35751Y475491D01*
X35654Y475585D01*
X35560Y475682D01*
X35468Y475782D01*
X35380Y475885D01*
X35294Y475990D01*
X35212Y476097D01*
X35132Y476207D01*
X35056Y476319D01*
X34983Y476433D01*
X34914Y476550D01*
X34848Y476668D01*
X34785Y476788D01*
X34726Y476910D01*
X34671Y477033D01*
X34619Y477159D01*
X34571Y477285D01*
X34526Y477413D01*
X34486Y477542D01*
X34449Y477673D01*
X34416Y477804D01*
X34386Y477936D01*
X34361Y478069D01*
X34339Y478203D01*
X34321Y478337D01*
X34308Y478472D01*
X34298Y478607D01*
X34292Y478743D01*
X34290Y478878D01*
X34290Y480430D01*
X34290Y488555D02*
X52917Y488555D01*
X60678Y487779D02*
X62230Y487779D01*
X62230Y489331D01*
X60678Y489331D01*
X60678Y487779D01*
X62230Y511058D02*
X34290Y511058D01*
X34290Y526581D02*
X62230Y511058D01*
X62230Y526581D02*
X34290Y526581D01*
X34290Y536341D02*
X52917Y536341D01*
X60678Y535565D02*
X62230Y535565D01*
X62230Y537117D01*
X60678Y537117D01*
X60678Y535565D01*
X34290Y549929D02*
X34290Y556137D01*
X34290Y549929D02*
X34292Y549794D01*
X34298Y549658D01*
X34308Y549523D01*
X34321Y549388D01*
X34339Y549254D01*
X34361Y549120D01*
X34386Y548987D01*
X34416Y548855D01*
X34449Y548724D01*
X34486Y548593D01*
X34526Y548464D01*
X34571Y548336D01*
X34619Y548210D01*
X34671Y548084D01*
X34726Y547961D01*
X34785Y547839D01*
X34848Y547719D01*
X34914Y547601D01*
X34983Y547484D01*
X35056Y547370D01*
X35132Y547258D01*
X35212Y547148D01*
X35294Y547041D01*
X35380Y546936D01*
X35468Y546833D01*
X35560Y546733D01*
X35654Y546636D01*
X35751Y546542D01*
X35851Y546450D01*
X35954Y546362D01*
X36059Y546276D01*
X36166Y546194D01*
X36276Y546114D01*
X36388Y546038D01*
X36502Y545965D01*
X36619Y545896D01*
X36737Y545830D01*
X36857Y545767D01*
X36979Y545708D01*
X37102Y545653D01*
X37228Y545601D01*
X37354Y545553D01*
X37482Y545508D01*
X37611Y545468D01*
X37742Y545431D01*
X37873Y545398D01*
X38005Y545368D01*
X38138Y545343D01*
X38272Y545321D01*
X38406Y545303D01*
X38541Y545290D01*
X38676Y545280D01*
X38812Y545274D01*
X38947Y545272D01*
X48260Y545272D01*
X48395Y545274D01*
X48531Y545280D01*
X48666Y545290D01*
X48801Y545303D01*
X48935Y545321D01*
X49069Y545343D01*
X49202Y545368D01*
X49334Y545398D01*
X49465Y545431D01*
X49596Y545468D01*
X49725Y545508D01*
X49853Y545553D01*
X49979Y545601D01*
X50105Y545653D01*
X50228Y545708D01*
X50350Y545767D01*
X50470Y545830D01*
X50589Y545896D01*
X50705Y545965D01*
X50819Y546038D01*
X50931Y546114D01*
X51041Y546194D01*
X51148Y546276D01*
X51253Y546362D01*
X51356Y546450D01*
X51456Y546542D01*
X51553Y546636D01*
X51647Y546733D01*
X51739Y546833D01*
X51827Y546936D01*
X51913Y547041D01*
X51995Y547148D01*
X52075Y547258D01*
X52151Y547370D01*
X52224Y547484D01*
X52293Y547601D01*
X52359Y547719D01*
X52422Y547839D01*
X52481Y547961D01*
X52536Y548084D01*
X52588Y548210D01*
X52636Y548336D01*
X52681Y548464D01*
X52721Y548593D01*
X52758Y548724D01*
X52791Y548855D01*
X52821Y548987D01*
X52846Y549120D01*
X52868Y549254D01*
X52886Y549388D01*
X52899Y549523D01*
X52909Y549658D01*
X52915Y549794D01*
X52917Y549929D01*
X52917Y556137D01*
X46708Y563583D02*
X40499Y563583D01*
X46708Y563583D02*
X46864Y563585D01*
X47020Y563591D01*
X47176Y563601D01*
X47331Y563614D01*
X47486Y563632D01*
X47641Y563653D01*
X47795Y563679D01*
X47948Y563708D01*
X48100Y563741D01*
X48252Y563778D01*
X48403Y563819D01*
X48552Y563863D01*
X48701Y563911D01*
X48848Y563963D01*
X48994Y564019D01*
X49138Y564078D01*
X49281Y564141D01*
X49422Y564208D01*
X49562Y564278D01*
X49699Y564351D01*
X49835Y564428D01*
X49969Y564508D01*
X50101Y564592D01*
X50230Y564679D01*
X50358Y564769D01*
X50483Y564862D01*
X50605Y564959D01*
X50726Y565058D01*
X50843Y565160D01*
X50958Y565266D01*
X51071Y565374D01*
X51180Y565485D01*
X51287Y565599D01*
X51391Y565715D01*
X51492Y565834D01*
X51590Y565956D01*
X51685Y566080D01*
X51777Y566206D01*
X51865Y566334D01*
X51950Y566465D01*
X52032Y566598D01*
X52111Y566733D01*
X52186Y566869D01*
X52258Y567008D01*
X52326Y567148D01*
X52391Y567290D01*
X52452Y567434D01*
X52509Y567579D01*
X52563Y567726D01*
X52613Y567873D01*
X52659Y568022D01*
X52702Y568172D01*
X52741Y568324D01*
X52776Y568476D01*
X52807Y568629D01*
X52834Y568782D01*
X52858Y568936D01*
X52877Y569091D01*
X52893Y569247D01*
X52905Y569402D01*
X52913Y569558D01*
X52917Y569714D01*
X52917Y569870D01*
X52913Y570026D01*
X52905Y570182D01*
X52893Y570337D01*
X52877Y570493D01*
X52858Y570648D01*
X52834Y570802D01*
X52807Y570955D01*
X52776Y571108D01*
X52741Y571260D01*
X52702Y571412D01*
X52659Y571562D01*
X52613Y571711D01*
X52563Y571858D01*
X52509Y572005D01*
X52452Y572150D01*
X52391Y572294D01*
X52326Y572436D01*
X52258Y572576D01*
X52186Y572715D01*
X52111Y572851D01*
X52032Y572986D01*
X51950Y573119D01*
X51865Y573250D01*
X51777Y573378D01*
X51685Y573504D01*
X51590Y573628D01*
X51492Y573750D01*
X51391Y573869D01*
X51287Y573985D01*
X51180Y574099D01*
X51071Y574210D01*
X50958Y574318D01*
X50843Y574424D01*
X50726Y574526D01*
X50605Y574625D01*
X50483Y574722D01*
X50358Y574815D01*
X50230Y574905D01*
X50101Y574992D01*
X49969Y575076D01*
X49835Y575156D01*
X49699Y575233D01*
X49562Y575306D01*
X49422Y575376D01*
X49281Y575443D01*
X49138Y575506D01*
X48994Y575565D01*
X48848Y575621D01*
X48701Y575673D01*
X48552Y575721D01*
X48403Y575765D01*
X48252Y575806D01*
X48100Y575843D01*
X47948Y575876D01*
X47795Y575905D01*
X47641Y575931D01*
X47486Y575952D01*
X47331Y575970D01*
X47176Y575983D01*
X47020Y575993D01*
X46864Y575999D01*
X46708Y576001D01*
X40499Y576001D01*
X40343Y575999D01*
X40187Y575993D01*
X40031Y575983D01*
X39876Y575970D01*
X39721Y575952D01*
X39566Y575931D01*
X39412Y575905D01*
X39259Y575876D01*
X39107Y575843D01*
X38955Y575806D01*
X38804Y575765D01*
X38655Y575721D01*
X38506Y575673D01*
X38359Y575621D01*
X38213Y575565D01*
X38069Y575506D01*
X37926Y575443D01*
X37785Y575376D01*
X37645Y575306D01*
X37508Y575233D01*
X37372Y575156D01*
X37238Y575076D01*
X37106Y574992D01*
X36977Y574905D01*
X36849Y574815D01*
X36724Y574722D01*
X36602Y574625D01*
X36481Y574526D01*
X36364Y574424D01*
X36249Y574318D01*
X36136Y574210D01*
X36027Y574099D01*
X35920Y573985D01*
X35816Y573869D01*
X35715Y573750D01*
X35617Y573628D01*
X35522Y573504D01*
X35430Y573378D01*
X35342Y573250D01*
X35257Y573119D01*
X35175Y572986D01*
X35096Y572851D01*
X35021Y572715D01*
X34949Y572576D01*
X34881Y572436D01*
X34816Y572294D01*
X34755Y572150D01*
X34698Y572005D01*
X34644Y571858D01*
X34594Y571711D01*
X34548Y571562D01*
X34505Y571412D01*
X34466Y571260D01*
X34431Y571108D01*
X34400Y570955D01*
X34373Y570802D01*
X34349Y570648D01*
X34330Y570493D01*
X34314Y570337D01*
X34302Y570182D01*
X34294Y570026D01*
X34290Y569870D01*
X34290Y569714D01*
X34294Y569558D01*
X34302Y569402D01*
X34314Y569247D01*
X34330Y569091D01*
X34349Y568936D01*
X34373Y568782D01*
X34400Y568629D01*
X34431Y568476D01*
X34466Y568324D01*
X34505Y568172D01*
X34548Y568022D01*
X34594Y567873D01*
X34644Y567726D01*
X34698Y567579D01*
X34755Y567434D01*
X34816Y567290D01*
X34881Y567148D01*
X34949Y567008D01*
X35021Y566869D01*
X35096Y566733D01*
X35175Y566598D01*
X35257Y566465D01*
X35342Y566334D01*
X35430Y566206D01*
X35522Y566080D01*
X35617Y565956D01*
X35715Y565834D01*
X35816Y565715D01*
X35920Y565599D01*
X36027Y565485D01*
X36136Y565374D01*
X36249Y565266D01*
X36364Y565160D01*
X36481Y565058D01*
X36602Y564959D01*
X36724Y564862D01*
X36849Y564769D01*
X36977Y564679D01*
X37106Y564592D01*
X37238Y564508D01*
X37372Y564428D01*
X37508Y564351D01*
X37645Y564278D01*
X37785Y564208D01*
X37926Y564141D01*
X38069Y564078D01*
X38213Y564019D01*
X38359Y563963D01*
X38506Y563911D01*
X38655Y563863D01*
X38804Y563819D01*
X38955Y563778D01*
X39107Y563741D01*
X39259Y563708D01*
X39412Y563679D01*
X39566Y563653D01*
X39721Y563632D01*
X39876Y563614D01*
X40031Y563601D01*
X40187Y563591D01*
X40343Y563585D01*
X40499Y563583D01*
X38947Y585005D02*
X62230Y585005D01*
X38947Y585005D02*
X38812Y585007D01*
X38676Y585013D01*
X38541Y585023D01*
X38406Y585036D01*
X38272Y585054D01*
X38138Y585076D01*
X38005Y585101D01*
X37873Y585131D01*
X37742Y585164D01*
X37611Y585201D01*
X37482Y585241D01*
X37354Y585286D01*
X37228Y585334D01*
X37102Y585386D01*
X36979Y585441D01*
X36857Y585500D01*
X36737Y585563D01*
X36619Y585629D01*
X36502Y585698D01*
X36388Y585771D01*
X36276Y585847D01*
X36166Y585927D01*
X36059Y586009D01*
X35954Y586095D01*
X35851Y586183D01*
X35751Y586275D01*
X35654Y586369D01*
X35560Y586466D01*
X35468Y586566D01*
X35380Y586669D01*
X35294Y586774D01*
X35212Y586881D01*
X35132Y586991D01*
X35056Y587103D01*
X34983Y587217D01*
X34914Y587334D01*
X34848Y587452D01*
X34785Y587572D01*
X34726Y587694D01*
X34671Y587817D01*
X34619Y587943D01*
X34571Y588069D01*
X34526Y588197D01*
X34486Y588326D01*
X34449Y588457D01*
X34416Y588588D01*
X34386Y588720D01*
X34361Y588853D01*
X34339Y588987D01*
X34321Y589121D01*
X34308Y589256D01*
X34298Y589391D01*
X34292Y589527D01*
X34290Y589662D01*
X45156Y602443D02*
X45156Y609428D01*
X45156Y602443D02*
X45154Y602297D01*
X45148Y602151D01*
X45138Y602006D01*
X45125Y601861D01*
X45107Y601716D01*
X45086Y601571D01*
X45060Y601428D01*
X45031Y601285D01*
X44998Y601143D01*
X44961Y601002D01*
X44921Y600862D01*
X44876Y600723D01*
X44828Y600585D01*
X44777Y600448D01*
X44721Y600313D01*
X44662Y600180D01*
X44600Y600048D01*
X44534Y599918D01*
X44464Y599790D01*
X44391Y599664D01*
X44315Y599539D01*
X44235Y599417D01*
X44152Y599297D01*
X44066Y599179D01*
X43977Y599064D01*
X43885Y598951D01*
X43790Y598840D01*
X43691Y598732D01*
X43590Y598627D01*
X43487Y598525D01*
X43380Y598425D01*
X43271Y598328D01*
X43159Y598235D01*
X43045Y598144D01*
X42928Y598056D01*
X42809Y597972D01*
X42688Y597890D01*
X42565Y597813D01*
X42440Y597738D01*
X42312Y597667D01*
X42183Y597599D01*
X42052Y597535D01*
X41919Y597474D01*
X41785Y597417D01*
X41650Y597363D01*
X41512Y597313D01*
X41374Y597267D01*
X41235Y597225D01*
X41094Y597186D01*
X40952Y597151D01*
X40810Y597120D01*
X40666Y597093D01*
X40522Y597069D01*
X40378Y597050D01*
X40233Y597034D01*
X40087Y597022D01*
X39942Y597014D01*
X39796Y597010D01*
X39650Y597010D01*
X39504Y597014D01*
X39359Y597022D01*
X39213Y597034D01*
X39068Y597050D01*
X38924Y597069D01*
X38780Y597093D01*
X38636Y597120D01*
X38494Y597151D01*
X38352Y597186D01*
X38211Y597225D01*
X38072Y597267D01*
X37934Y597313D01*
X37796Y597363D01*
X37661Y597417D01*
X37527Y597474D01*
X37394Y597535D01*
X37263Y597599D01*
X37134Y597667D01*
X37007Y597738D01*
X36881Y597813D01*
X36758Y597890D01*
X36637Y597972D01*
X36518Y598056D01*
X36401Y598144D01*
X36287Y598235D01*
X36175Y598328D01*
X36066Y598425D01*
X35959Y598525D01*
X35856Y598627D01*
X35755Y598732D01*
X35656Y598840D01*
X35561Y598951D01*
X35469Y599064D01*
X35380Y599179D01*
X35294Y599297D01*
X35211Y599417D01*
X35131Y599539D01*
X35055Y599664D01*
X34982Y599790D01*
X34912Y599918D01*
X34846Y600048D01*
X34784Y600180D01*
X34725Y600313D01*
X34669Y600448D01*
X34618Y600585D01*
X34570Y600723D01*
X34525Y600862D01*
X34485Y601002D01*
X34448Y601143D01*
X34415Y601285D01*
X34386Y601428D01*
X34360Y601571D01*
X34339Y601716D01*
X34321Y601861D01*
X34308Y602006D01*
X34298Y602151D01*
X34292Y602297D01*
X34290Y602443D01*
X34290Y609428D01*
X48260Y609428D01*
X48260Y609429D02*
X48395Y609427D01*
X48531Y609421D01*
X48666Y609411D01*
X48801Y609398D01*
X48935Y609380D01*
X49069Y609358D01*
X49202Y609333D01*
X49334Y609303D01*
X49465Y609270D01*
X49596Y609233D01*
X49725Y609193D01*
X49853Y609148D01*
X49979Y609100D01*
X50105Y609048D01*
X50228Y608993D01*
X50350Y608934D01*
X50470Y608871D01*
X50589Y608805D01*
X50705Y608736D01*
X50819Y608663D01*
X50931Y608587D01*
X51041Y608507D01*
X51148Y608425D01*
X51253Y608339D01*
X51356Y608251D01*
X51456Y608159D01*
X51553Y608065D01*
X51647Y607968D01*
X51739Y607868D01*
X51827Y607765D01*
X51913Y607660D01*
X51995Y607553D01*
X52075Y607443D01*
X52151Y607331D01*
X52224Y607217D01*
X52293Y607101D01*
X52359Y606982D01*
X52422Y606862D01*
X52481Y606740D01*
X52536Y606617D01*
X52588Y606491D01*
X52636Y606365D01*
X52681Y606237D01*
X52721Y606108D01*
X52758Y605977D01*
X52791Y605846D01*
X52821Y605714D01*
X52846Y605581D01*
X52868Y605447D01*
X52886Y605313D01*
X52899Y605178D01*
X52909Y605043D01*
X52915Y604907D01*
X52917Y604772D01*
X52917Y598563D01*
X45156Y620866D02*
X42051Y628627D01*
X45155Y620865D02*
X45203Y620749D01*
X45255Y620635D01*
X45311Y620523D01*
X45370Y620412D01*
X45432Y620303D01*
X45498Y620196D01*
X45567Y620091D01*
X45640Y619989D01*
X45715Y619889D01*
X45794Y619791D01*
X45875Y619695D01*
X45960Y619603D01*
X46047Y619512D01*
X46137Y619425D01*
X46230Y619341D01*
X46326Y619259D01*
X46424Y619181D01*
X46524Y619105D01*
X46627Y619033D01*
X46731Y618964D01*
X46838Y618898D01*
X46947Y618836D01*
X47058Y618777D01*
X47171Y618722D01*
X47285Y618670D01*
X47401Y618621D01*
X47518Y618577D01*
X47637Y618536D01*
X47757Y618498D01*
X47878Y618465D01*
X48000Y618435D01*
X48122Y618409D01*
X48246Y618387D01*
X48370Y618369D01*
X48495Y618355D01*
X48620Y618344D01*
X48745Y618338D01*
X48871Y618335D01*
X48996Y618336D01*
X49122Y618342D01*
X49247Y618351D01*
X49372Y618364D01*
X49496Y618381D01*
X49620Y618401D01*
X49743Y618426D01*
X49865Y618454D01*
X49986Y618487D01*
X50107Y618523D01*
X50226Y618562D01*
X50343Y618606D01*
X50460Y618653D01*
X50575Y618704D01*
X50688Y618758D01*
X50799Y618816D01*
X50909Y618877D01*
X51016Y618941D01*
X51122Y619009D01*
X51225Y619080D01*
X51326Y619155D01*
X51425Y619232D01*
X51522Y619313D01*
X51615Y619396D01*
X51706Y619482D01*
X51795Y619572D01*
X51880Y619663D01*
X51963Y619758D01*
X52042Y619855D01*
X52119Y619954D01*
X52192Y620056D01*
X52263Y620160D01*
X52330Y620266D01*
X52393Y620375D01*
X52453Y620485D01*
X52510Y620597D01*
X52563Y620710D01*
X52613Y620826D01*
X52659Y620942D01*
X52701Y621061D01*
X52740Y621180D01*
X52775Y621300D01*
X52806Y621422D01*
X52834Y621545D01*
X52857Y621668D01*
X52877Y621792D01*
X52892Y621916D01*
X52904Y622041D01*
X52912Y622167D01*
X52916Y622292D01*
X52917Y622418D01*
X52906Y622842D01*
X52885Y623265D01*
X52853Y623688D01*
X52812Y624109D01*
X52760Y624530D01*
X52698Y624949D01*
X52626Y625367D01*
X52544Y625783D01*
X52452Y626197D01*
X52350Y626608D01*
X52238Y627017D01*
X52117Y627423D01*
X51986Y627826D01*
X51845Y628226D01*
X51694Y628622D01*
X51534Y629015D01*
X51365Y629403D01*
X42051Y628627D02*
X42003Y628743D01*
X41951Y628857D01*
X41895Y628969D01*
X41836Y629080D01*
X41774Y629189D01*
X41708Y629296D01*
X41639Y629401D01*
X41566Y629503D01*
X41491Y629603D01*
X41412Y629701D01*
X41331Y629797D01*
X41246Y629889D01*
X41159Y629980D01*
X41069Y630067D01*
X40976Y630151D01*
X40880Y630233D01*
X40782Y630311D01*
X40682Y630387D01*
X40579Y630459D01*
X40475Y630528D01*
X40368Y630594D01*
X40259Y630656D01*
X40148Y630715D01*
X40035Y630770D01*
X39921Y630822D01*
X39805Y630871D01*
X39688Y630915D01*
X39569Y630956D01*
X39449Y630994D01*
X39328Y631027D01*
X39206Y631057D01*
X39084Y631083D01*
X38960Y631105D01*
X38836Y631123D01*
X38711Y631137D01*
X38586Y631148D01*
X38461Y631154D01*
X38335Y631157D01*
X38210Y631156D01*
X38084Y631150D01*
X37959Y631141D01*
X37834Y631128D01*
X37710Y631111D01*
X37586Y631091D01*
X37463Y631066D01*
X37341Y631038D01*
X37220Y631005D01*
X37099Y630969D01*
X36980Y630930D01*
X36863Y630886D01*
X36746Y630839D01*
X36631Y630788D01*
X36518Y630734D01*
X36407Y630676D01*
X36297Y630615D01*
X36190Y630551D01*
X36084Y630483D01*
X35981Y630412D01*
X35880Y630337D01*
X35781Y630260D01*
X35684Y630179D01*
X35591Y630096D01*
X35500Y630010D01*
X35411Y629920D01*
X35326Y629829D01*
X35243Y629734D01*
X35164Y629637D01*
X35087Y629538D01*
X35014Y629436D01*
X34943Y629332D01*
X34876Y629226D01*
X34813Y629117D01*
X34753Y629007D01*
X34696Y628895D01*
X34643Y628782D01*
X34593Y628666D01*
X34547Y628550D01*
X34505Y628431D01*
X34466Y628312D01*
X34431Y628192D01*
X34400Y628070D01*
X34372Y627947D01*
X34349Y627824D01*
X34329Y627700D01*
X34314Y627576D01*
X34302Y627451D01*
X34294Y627325D01*
X34290Y627200D01*
X34289Y627075D01*
X34290Y627074D02*
X34306Y626452D01*
X34337Y625830D01*
X34383Y625209D01*
X34443Y624589D01*
X34518Y623971D01*
X34607Y623355D01*
X34712Y622741D01*
X34830Y622130D01*
X34963Y621522D01*
X35111Y620917D01*
X35272Y620315D01*
X35448Y619718D01*
X35638Y619125D01*
X35842Y618537D01*
X34290Y652028D02*
X34290Y661342D01*
X34292Y661499D01*
X34298Y661656D01*
X34308Y661813D01*
X34322Y661970D01*
X34340Y662126D01*
X34362Y662282D01*
X34387Y662437D01*
X34417Y662592D01*
X34451Y662746D01*
X34488Y662898D01*
X34530Y663050D01*
X34575Y663201D01*
X34624Y663350D01*
X34676Y663498D01*
X34733Y663645D01*
X34793Y663791D01*
X34857Y663934D01*
X34925Y664076D01*
X34996Y664217D01*
X35070Y664355D01*
X35148Y664492D01*
X35230Y664626D01*
X35315Y664759D01*
X35403Y664889D01*
X35494Y665017D01*
X35589Y665143D01*
X35687Y665266D01*
X35788Y665386D01*
X35892Y665504D01*
X35999Y665620D01*
X36109Y665732D01*
X36221Y665842D01*
X36337Y665949D01*
X36455Y666053D01*
X36575Y666154D01*
X36698Y666252D01*
X36824Y666347D01*
X36952Y666438D01*
X37082Y666526D01*
X37215Y666611D01*
X37349Y666693D01*
X37486Y666771D01*
X37624Y666845D01*
X37765Y666916D01*
X37907Y666984D01*
X38050Y667048D01*
X38196Y667108D01*
X38343Y667164D01*
X38491Y667217D01*
X38640Y667266D01*
X38791Y667311D01*
X38943Y667353D01*
X39095Y667390D01*
X39249Y667424D01*
X39404Y667454D01*
X39559Y667479D01*
X39715Y667501D01*
X39871Y667519D01*
X40028Y667533D01*
X40184Y667543D01*
X40342Y667549D01*
X40499Y667551D01*
X43603Y667551D01*
X43758Y667549D01*
X43912Y667543D01*
X44067Y667534D01*
X44221Y667520D01*
X44375Y667503D01*
X44528Y667482D01*
X44681Y667457D01*
X44833Y667428D01*
X44985Y667395D01*
X45135Y667359D01*
X45285Y667319D01*
X45433Y667275D01*
X45580Y667228D01*
X45727Y667177D01*
X45871Y667122D01*
X46015Y667063D01*
X46157Y667002D01*
X46297Y666936D01*
X46436Y666867D01*
X46572Y666795D01*
X46708Y666719D01*
X46841Y666640D01*
X46972Y666558D01*
X47101Y666472D01*
X47227Y666383D01*
X47352Y666291D01*
X47474Y666196D01*
X47594Y666098D01*
X47711Y665997D01*
X47826Y665894D01*
X47938Y665787D01*
X48048Y665677D01*
X48155Y665565D01*
X48258Y665450D01*
X48359Y665333D01*
X48457Y665213D01*
X48552Y665091D01*
X48644Y664966D01*
X48733Y664840D01*
X48819Y664711D01*
X48901Y664580D01*
X48980Y664447D01*
X49056Y664311D01*
X49128Y664175D01*
X49197Y664036D01*
X49263Y663896D01*
X49324Y663754D01*
X49383Y663610D01*
X49438Y663466D01*
X49489Y663319D01*
X49536Y663172D01*
X49580Y663024D01*
X49620Y662874D01*
X49656Y662724D01*
X49689Y662572D01*
X49718Y662420D01*
X49743Y662267D01*
X49764Y662114D01*
X49781Y661960D01*
X49795Y661806D01*
X49804Y661651D01*
X49810Y661497D01*
X49812Y661342D01*
X49812Y652028D01*
X62230Y652028D01*
X62230Y667551D01*
X58349Y675820D02*
X53693Y675820D01*
X58349Y675819D02*
X58472Y675821D01*
X58595Y675827D01*
X58718Y675837D01*
X58840Y675850D01*
X58962Y675868D01*
X59083Y675889D01*
X59204Y675914D01*
X59324Y675943D01*
X59442Y675976D01*
X59560Y676013D01*
X59676Y676053D01*
X59791Y676097D01*
X59905Y676145D01*
X60017Y676196D01*
X60127Y676250D01*
X60236Y676309D01*
X60343Y676370D01*
X60447Y676435D01*
X60550Y676503D01*
X60650Y676575D01*
X60748Y676649D01*
X60844Y676727D01*
X60937Y676808D01*
X61027Y676891D01*
X61115Y676978D01*
X61200Y677067D01*
X61282Y677158D01*
X61361Y677253D01*
X61437Y677350D01*
X61510Y677449D01*
X61580Y677550D01*
X61647Y677654D01*
X61710Y677760D01*
X61770Y677867D01*
X61826Y677977D01*
X61879Y678088D01*
X61929Y678201D01*
X61974Y678315D01*
X62017Y678431D01*
X62055Y678548D01*
X62090Y678666D01*
X62121Y678785D01*
X62148Y678905D01*
X62171Y679026D01*
X62190Y679148D01*
X62206Y679270D01*
X62218Y679392D01*
X62226Y679515D01*
X62230Y679638D01*
X62230Y679762D01*
X62226Y679885D01*
X62218Y680008D01*
X62206Y680130D01*
X62190Y680252D01*
X62171Y680374D01*
X62148Y680495D01*
X62121Y680615D01*
X62090Y680734D01*
X62055Y680852D01*
X62017Y680969D01*
X61974Y681085D01*
X61929Y681199D01*
X61879Y681312D01*
X61826Y681423D01*
X61770Y681533D01*
X61710Y681641D01*
X61647Y681746D01*
X61580Y681850D01*
X61510Y681951D01*
X61437Y682050D01*
X61361Y682147D01*
X61282Y682242D01*
X61200Y682333D01*
X61115Y682422D01*
X61027Y682509D01*
X60937Y682592D01*
X60844Y682673D01*
X60748Y682751D01*
X60650Y682825D01*
X60550Y682897D01*
X60447Y682965D01*
X60343Y683030D01*
X60236Y683091D01*
X60127Y683150D01*
X60017Y683204D01*
X59905Y683255D01*
X59791Y683303D01*
X59676Y683347D01*
X59560Y683387D01*
X59442Y683424D01*
X59324Y683457D01*
X59204Y683486D01*
X59083Y683511D01*
X58962Y683532D01*
X58840Y683550D01*
X58718Y683563D01*
X58595Y683573D01*
X58472Y683579D01*
X58349Y683581D01*
X53693Y683581D01*
X53570Y683579D01*
X53447Y683573D01*
X53324Y683563D01*
X53202Y683550D01*
X53080Y683532D01*
X52959Y683511D01*
X52838Y683486D01*
X52718Y683457D01*
X52600Y683424D01*
X52482Y683387D01*
X52366Y683347D01*
X52251Y683303D01*
X52137Y683255D01*
X52025Y683204D01*
X51915Y683150D01*
X51806Y683091D01*
X51699Y683030D01*
X51595Y682965D01*
X51492Y682897D01*
X51392Y682825D01*
X51294Y682751D01*
X51198Y682673D01*
X51105Y682592D01*
X51015Y682509D01*
X50927Y682422D01*
X50842Y682333D01*
X50760Y682242D01*
X50681Y682147D01*
X50605Y682050D01*
X50532Y681951D01*
X50462Y681850D01*
X50395Y681746D01*
X50332Y681641D01*
X50272Y681533D01*
X50216Y681423D01*
X50163Y681312D01*
X50113Y681199D01*
X50068Y681085D01*
X50025Y680969D01*
X49987Y680852D01*
X49952Y680734D01*
X49921Y680615D01*
X49894Y680495D01*
X49871Y680374D01*
X49852Y680252D01*
X49836Y680130D01*
X49824Y680008D01*
X49816Y679885D01*
X49812Y679762D01*
X49812Y679638D01*
X49816Y679515D01*
X49824Y679392D01*
X49836Y679270D01*
X49852Y679148D01*
X49871Y679026D01*
X49894Y678905D01*
X49921Y678785D01*
X49952Y678666D01*
X49987Y678548D01*
X50025Y678431D01*
X50068Y678315D01*
X50113Y678201D01*
X50163Y678088D01*
X50216Y677977D01*
X50272Y677867D01*
X50332Y677760D01*
X50395Y677654D01*
X50462Y677550D01*
X50532Y677449D01*
X50605Y677350D01*
X50681Y677253D01*
X50760Y677158D01*
X50842Y677067D01*
X50927Y676978D01*
X51015Y676891D01*
X51105Y676808D01*
X51198Y676727D01*
X51294Y676649D01*
X51392Y676575D01*
X51492Y676503D01*
X51595Y676435D01*
X51699Y676370D01*
X51806Y676309D01*
X51915Y676250D01*
X52025Y676196D01*
X52137Y676145D01*
X52251Y676097D01*
X52366Y676053D01*
X52482Y676013D01*
X52600Y675976D01*
X52718Y675943D01*
X52838Y675914D01*
X52959Y675889D01*
X53080Y675868D01*
X53202Y675850D01*
X53324Y675837D01*
X53447Y675827D01*
X53570Y675821D01*
X53693Y675819D01*
X43603Y675820D02*
X43603Y683581D01*
X34290Y704593D02*
X34290Y712355D01*
X34292Y712544D01*
X34299Y712733D01*
X34311Y712922D01*
X34327Y713110D01*
X34347Y713298D01*
X34373Y713485D01*
X34402Y713672D01*
X34437Y713858D01*
X34476Y714042D01*
X34519Y714226D01*
X34567Y714409D01*
X34619Y714591D01*
X34676Y714771D01*
X34737Y714950D01*
X34802Y715127D01*
X34872Y715303D01*
X34946Y715477D01*
X35024Y715649D01*
X35106Y715819D01*
X35193Y715987D01*
X35283Y716153D01*
X35378Y716317D01*
X35476Y716478D01*
X35578Y716637D01*
X35685Y716794D01*
X35795Y716947D01*
X35908Y717098D01*
X36026Y717246D01*
X36146Y717392D01*
X36271Y717534D01*
X36399Y717673D01*
X36530Y717809D01*
X36664Y717942D01*
X36802Y718072D01*
X36943Y718198D01*
X37086Y718320D01*
X37233Y718440D01*
X37383Y718555D01*
X37535Y718667D01*
X37690Y718775D01*
X37848Y718879D01*
X38008Y718980D01*
X38171Y719076D01*
X38335Y719169D01*
X38502Y719257D01*
X38671Y719342D01*
X38843Y719422D01*
X39016Y719498D01*
X39190Y719570D01*
X39367Y719637D01*
X39545Y719700D01*
X39725Y719759D01*
X39906Y719814D01*
X40088Y719864D01*
X40271Y719909D01*
X40456Y719950D01*
X40641Y719987D01*
X40828Y720019D01*
X41015Y720046D01*
X41202Y720069D01*
X41390Y720088D01*
X41579Y720102D01*
X41768Y720111D01*
X41956Y720115D01*
X42146Y720115D01*
X42334Y720111D01*
X42523Y720102D01*
X42712Y720088D01*
X42900Y720069D01*
X43087Y720046D01*
X43274Y720019D01*
X43461Y719987D01*
X43646Y719950D01*
X43831Y719909D01*
X44014Y719864D01*
X44196Y719814D01*
X44377Y719759D01*
X44557Y719700D01*
X44735Y719637D01*
X44912Y719570D01*
X45086Y719498D01*
X45259Y719422D01*
X45431Y719342D01*
X45600Y719257D01*
X45767Y719169D01*
X45932Y719076D01*
X46094Y718980D01*
X46254Y718879D01*
X46412Y718775D01*
X46567Y718667D01*
X46719Y718555D01*
X46869Y718440D01*
X47016Y718320D01*
X47159Y718198D01*
X47300Y718072D01*
X47438Y717942D01*
X47572Y717809D01*
X47703Y717673D01*
X47831Y717534D01*
X47956Y717392D01*
X48076Y717246D01*
X48194Y717098D01*
X48307Y716947D01*
X48417Y716794D01*
X48524Y716637D01*
X48626Y716478D01*
X48724Y716317D01*
X48819Y716153D01*
X48909Y715987D01*
X48996Y715819D01*
X49078Y715649D01*
X49156Y715477D01*
X49230Y715303D01*
X49300Y715127D01*
X49365Y714950D01*
X49426Y714771D01*
X49483Y714591D01*
X49535Y714409D01*
X49583Y714226D01*
X49626Y714042D01*
X49665Y713858D01*
X49700Y713672D01*
X49729Y713485D01*
X49755Y713298D01*
X49775Y713110D01*
X49791Y712922D01*
X49803Y712733D01*
X49810Y712544D01*
X49812Y712355D01*
X62230Y713907D02*
X62230Y704593D01*
X62230Y713907D02*
X62228Y714063D01*
X62222Y714219D01*
X62212Y714375D01*
X62199Y714530D01*
X62181Y714685D01*
X62160Y714840D01*
X62134Y714994D01*
X62105Y715147D01*
X62072Y715299D01*
X62035Y715451D01*
X61994Y715602D01*
X61950Y715751D01*
X61902Y715900D01*
X61850Y716047D01*
X61794Y716193D01*
X61735Y716337D01*
X61672Y716480D01*
X61605Y716621D01*
X61535Y716761D01*
X61462Y716898D01*
X61385Y717034D01*
X61305Y717168D01*
X61221Y717300D01*
X61134Y717429D01*
X61044Y717557D01*
X60951Y717682D01*
X60854Y717804D01*
X60755Y717925D01*
X60653Y718042D01*
X60547Y718157D01*
X60439Y718270D01*
X60328Y718379D01*
X60214Y718486D01*
X60098Y718590D01*
X59979Y718691D01*
X59857Y718789D01*
X59733Y718884D01*
X59607Y718976D01*
X59479Y719064D01*
X59348Y719149D01*
X59215Y719231D01*
X59080Y719310D01*
X58944Y719385D01*
X58805Y719457D01*
X58665Y719525D01*
X58523Y719590D01*
X58379Y719651D01*
X58234Y719708D01*
X58087Y719762D01*
X57940Y719812D01*
X57791Y719858D01*
X57641Y719901D01*
X57489Y719940D01*
X57337Y719975D01*
X57184Y720006D01*
X57031Y720033D01*
X56877Y720057D01*
X56722Y720076D01*
X56566Y720092D01*
X56411Y720104D01*
X56255Y720112D01*
X56099Y720116D01*
X55943Y720116D01*
X55787Y720112D01*
X55631Y720104D01*
X55476Y720092D01*
X55320Y720076D01*
X55165Y720057D01*
X55011Y720033D01*
X54858Y720006D01*
X54705Y719975D01*
X54553Y719940D01*
X54401Y719901D01*
X54251Y719858D01*
X54102Y719812D01*
X53955Y719762D01*
X53808Y719708D01*
X53663Y719651D01*
X53519Y719590D01*
X53377Y719525D01*
X53237Y719457D01*
X53098Y719385D01*
X52962Y719310D01*
X52827Y719231D01*
X52694Y719149D01*
X52563Y719064D01*
X52435Y718976D01*
X52309Y718884D01*
X52185Y718789D01*
X52063Y718691D01*
X51944Y718590D01*
X51828Y718486D01*
X51714Y718379D01*
X51603Y718270D01*
X51495Y718157D01*
X51389Y718042D01*
X51287Y717925D01*
X51188Y717804D01*
X51091Y717682D01*
X50998Y717557D01*
X50908Y717429D01*
X50821Y717300D01*
X50737Y717168D01*
X50657Y717034D01*
X50580Y716898D01*
X50507Y716761D01*
X50437Y716621D01*
X50370Y716480D01*
X50307Y716337D01*
X50248Y716193D01*
X50192Y716047D01*
X50140Y715900D01*
X50092Y715751D01*
X50048Y715602D01*
X50007Y715451D01*
X49970Y715299D01*
X49937Y715147D01*
X49908Y714994D01*
X49882Y714840D01*
X49861Y714685D01*
X49843Y714530D01*
X49830Y714375D01*
X49820Y714219D01*
X49814Y714063D01*
X49812Y713907D01*
X49812Y707698D01*
X56021Y730673D02*
X56021Y735330D01*
X56021Y730673D02*
X56019Y730562D01*
X56013Y730452D01*
X56003Y730341D01*
X55989Y730231D01*
X55972Y730122D01*
X55950Y730013D01*
X55925Y729905D01*
X55895Y729799D01*
X55862Y729693D01*
X55825Y729588D01*
X55785Y729485D01*
X55740Y729384D01*
X55693Y729284D01*
X55641Y729185D01*
X55586Y729089D01*
X55528Y728995D01*
X55467Y728903D01*
X55402Y728813D01*
X55334Y728725D01*
X55263Y728640D01*
X55189Y728558D01*
X55112Y728478D01*
X55032Y728401D01*
X54950Y728327D01*
X54865Y728256D01*
X54777Y728188D01*
X54687Y728123D01*
X54595Y728062D01*
X54501Y728004D01*
X54405Y727949D01*
X54306Y727897D01*
X54206Y727850D01*
X54105Y727805D01*
X54002Y727765D01*
X53897Y727728D01*
X53791Y727695D01*
X53685Y727665D01*
X53577Y727640D01*
X53468Y727618D01*
X53359Y727601D01*
X53249Y727587D01*
X53138Y727577D01*
X53028Y727571D01*
X52917Y727569D01*
X52806Y727571D01*
X52696Y727577D01*
X52585Y727587D01*
X52475Y727601D01*
X52366Y727618D01*
X52257Y727640D01*
X52149Y727665D01*
X52043Y727695D01*
X51937Y727728D01*
X51832Y727765D01*
X51729Y727805D01*
X51628Y727850D01*
X51528Y727897D01*
X51429Y727949D01*
X51333Y728004D01*
X51239Y728062D01*
X51147Y728123D01*
X51057Y728188D01*
X50969Y728256D01*
X50884Y728327D01*
X50802Y728401D01*
X50722Y728478D01*
X50645Y728558D01*
X50571Y728640D01*
X50500Y728725D01*
X50432Y728813D01*
X50367Y728903D01*
X50306Y728995D01*
X50248Y729089D01*
X50193Y729185D01*
X50141Y729284D01*
X50094Y729384D01*
X50049Y729485D01*
X50009Y729588D01*
X49972Y729693D01*
X49939Y729799D01*
X49909Y729905D01*
X49884Y730013D01*
X49862Y730122D01*
X49845Y730231D01*
X49831Y730341D01*
X49821Y730452D01*
X49815Y730562D01*
X49813Y730673D01*
X49812Y730673D02*
X49812Y735330D01*
X59126Y735330D01*
X59237Y735328D01*
X59347Y735322D01*
X59458Y735312D01*
X59568Y735298D01*
X59677Y735281D01*
X59786Y735259D01*
X59894Y735234D01*
X60000Y735204D01*
X60106Y735171D01*
X60211Y735134D01*
X60314Y735094D01*
X60415Y735050D01*
X60515Y735002D01*
X60614Y734950D01*
X60710Y734895D01*
X60804Y734837D01*
X60896Y734776D01*
X60986Y734711D01*
X61074Y734643D01*
X61159Y734572D01*
X61241Y734498D01*
X61321Y734421D01*
X61398Y734341D01*
X61472Y734259D01*
X61543Y734174D01*
X61611Y734086D01*
X61676Y733996D01*
X61737Y733904D01*
X61795Y733810D01*
X61850Y733714D01*
X61902Y733615D01*
X61949Y733515D01*
X61994Y733414D01*
X62034Y733311D01*
X62071Y733206D01*
X62104Y733101D01*
X62134Y732994D01*
X62159Y732886D01*
X62181Y732777D01*
X62198Y732668D01*
X62212Y732558D01*
X62222Y732447D01*
X62228Y732337D01*
X62230Y732226D01*
X62230Y728345D01*
X43603Y727569D02*
X43603Y735330D01*
X986790Y272425D02*
X1014730Y272425D01*
X999208Y281739D01*
X1014730Y291052D01*
X986790Y291052D01*
X997656Y305630D02*
X997656Y312615D01*
X997656Y305630D02*
X997654Y305484D01*
X997648Y305338D01*
X997638Y305193D01*
X997625Y305048D01*
X997607Y304903D01*
X997586Y304758D01*
X997560Y304615D01*
X997531Y304472D01*
X997498Y304330D01*
X997461Y304189D01*
X997421Y304049D01*
X997376Y303910D01*
X997328Y303772D01*
X997277Y303635D01*
X997221Y303500D01*
X997162Y303367D01*
X997100Y303235D01*
X997034Y303105D01*
X996964Y302977D01*
X996891Y302851D01*
X996815Y302726D01*
X996735Y302604D01*
X996652Y302484D01*
X996566Y302366D01*
X996477Y302251D01*
X996385Y302138D01*
X996290Y302027D01*
X996191Y301919D01*
X996090Y301814D01*
X995987Y301712D01*
X995880Y301612D01*
X995771Y301515D01*
X995659Y301422D01*
X995545Y301331D01*
X995428Y301243D01*
X995309Y301159D01*
X995188Y301077D01*
X995065Y301000D01*
X994940Y300925D01*
X994812Y300854D01*
X994683Y300786D01*
X994552Y300722D01*
X994419Y300661D01*
X994285Y300604D01*
X994150Y300550D01*
X994012Y300500D01*
X993874Y300454D01*
X993735Y300412D01*
X993594Y300373D01*
X993452Y300338D01*
X993310Y300307D01*
X993166Y300280D01*
X993022Y300256D01*
X992878Y300237D01*
X992733Y300221D01*
X992587Y300209D01*
X992442Y300201D01*
X992296Y300197D01*
X992150Y300197D01*
X992004Y300201D01*
X991859Y300209D01*
X991713Y300221D01*
X991568Y300237D01*
X991424Y300256D01*
X991280Y300280D01*
X991136Y300307D01*
X990994Y300338D01*
X990852Y300373D01*
X990711Y300412D01*
X990572Y300454D01*
X990434Y300500D01*
X990296Y300550D01*
X990161Y300604D01*
X990027Y300661D01*
X989894Y300722D01*
X989763Y300786D01*
X989634Y300854D01*
X989507Y300925D01*
X989381Y301000D01*
X989258Y301077D01*
X989137Y301159D01*
X989018Y301243D01*
X988901Y301331D01*
X988787Y301422D01*
X988675Y301515D01*
X988566Y301612D01*
X988459Y301712D01*
X988356Y301814D01*
X988255Y301919D01*
X988156Y302027D01*
X988061Y302138D01*
X987969Y302251D01*
X987880Y302366D01*
X987794Y302484D01*
X987711Y302604D01*
X987631Y302726D01*
X987555Y302851D01*
X987482Y302977D01*
X987412Y303105D01*
X987346Y303235D01*
X987284Y303367D01*
X987225Y303500D01*
X987169Y303635D01*
X987118Y303772D01*
X987070Y303910D01*
X987025Y304049D01*
X986985Y304189D01*
X986948Y304330D01*
X986915Y304472D01*
X986886Y304615D01*
X986860Y304758D01*
X986839Y304903D01*
X986821Y305048D01*
X986808Y305193D01*
X986798Y305338D01*
X986792Y305484D01*
X986790Y305630D01*
X986790Y312615D01*
X1000760Y312615D01*
X1000895Y312613D01*
X1001031Y312607D01*
X1001166Y312597D01*
X1001301Y312584D01*
X1001435Y312566D01*
X1001569Y312544D01*
X1001702Y312519D01*
X1001834Y312489D01*
X1001965Y312456D01*
X1002096Y312419D01*
X1002225Y312379D01*
X1002353Y312334D01*
X1002479Y312286D01*
X1002605Y312234D01*
X1002728Y312179D01*
X1002850Y312120D01*
X1002970Y312057D01*
X1003089Y311991D01*
X1003205Y311922D01*
X1003319Y311849D01*
X1003431Y311773D01*
X1003541Y311693D01*
X1003648Y311611D01*
X1003753Y311525D01*
X1003856Y311437D01*
X1003956Y311345D01*
X1004053Y311251D01*
X1004147Y311154D01*
X1004239Y311054D01*
X1004327Y310951D01*
X1004413Y310846D01*
X1004495Y310739D01*
X1004575Y310629D01*
X1004651Y310517D01*
X1004724Y310403D01*
X1004793Y310287D01*
X1004859Y310168D01*
X1004922Y310048D01*
X1004981Y309926D01*
X1005036Y309803D01*
X1005088Y309677D01*
X1005136Y309551D01*
X1005181Y309423D01*
X1005221Y309294D01*
X1005258Y309163D01*
X1005291Y309032D01*
X1005321Y308900D01*
X1005346Y308767D01*
X1005368Y308633D01*
X1005386Y308499D01*
X1005399Y308364D01*
X1005409Y308229D01*
X1005415Y308093D01*
X1005417Y307958D01*
X1005417Y301749D01*
X1005417Y322357D02*
X986790Y322357D01*
X1013178Y321581D02*
X1014730Y321581D01*
X1014730Y323133D01*
X1013178Y323133D01*
X1013178Y321581D01*
X1005417Y332077D02*
X986790Y332077D01*
X1005417Y332077D02*
X1005417Y339838D01*
X1005415Y339973D01*
X1005409Y340109D01*
X1005399Y340244D01*
X1005386Y340379D01*
X1005368Y340513D01*
X1005346Y340647D01*
X1005321Y340780D01*
X1005291Y340912D01*
X1005258Y341043D01*
X1005221Y341174D01*
X1005181Y341303D01*
X1005136Y341431D01*
X1005088Y341557D01*
X1005036Y341683D01*
X1004981Y341806D01*
X1004922Y341928D01*
X1004859Y342048D01*
X1004793Y342167D01*
X1004724Y342283D01*
X1004651Y342397D01*
X1004575Y342509D01*
X1004495Y342619D01*
X1004413Y342726D01*
X1004327Y342831D01*
X1004239Y342934D01*
X1004147Y343034D01*
X1004053Y343131D01*
X1003956Y343225D01*
X1003856Y343317D01*
X1003753Y343405D01*
X1003648Y343491D01*
X1003541Y343573D01*
X1003431Y343653D01*
X1003319Y343729D01*
X1003205Y343802D01*
X1003089Y343871D01*
X1002970Y343937D01*
X1002850Y344000D01*
X1002728Y344059D01*
X1002605Y344114D01*
X1002479Y344166D01*
X1002353Y344214D01*
X1002225Y344259D01*
X1002096Y344299D01*
X1001965Y344336D01*
X1001834Y344369D01*
X1001702Y344399D01*
X1001569Y344424D01*
X1001435Y344446D01*
X1001301Y344464D01*
X1001166Y344477D01*
X1001031Y344487D01*
X1000895Y344493D01*
X1000760Y344495D01*
X986790Y344495D01*
X986790Y358238D02*
X986790Y365999D01*
X986790Y358238D02*
X986792Y358103D01*
X986798Y357967D01*
X986808Y357832D01*
X986821Y357697D01*
X986839Y357563D01*
X986861Y357429D01*
X986886Y357296D01*
X986916Y357164D01*
X986949Y357033D01*
X986986Y356902D01*
X987026Y356773D01*
X987071Y356645D01*
X987119Y356519D01*
X987171Y356393D01*
X987226Y356270D01*
X987285Y356148D01*
X987348Y356028D01*
X987414Y355910D01*
X987483Y355793D01*
X987556Y355679D01*
X987632Y355567D01*
X987712Y355457D01*
X987794Y355350D01*
X987880Y355245D01*
X987968Y355142D01*
X988060Y355042D01*
X988154Y354945D01*
X988251Y354851D01*
X988351Y354759D01*
X988454Y354671D01*
X988559Y354585D01*
X988666Y354503D01*
X988776Y354423D01*
X988888Y354347D01*
X989002Y354274D01*
X989119Y354205D01*
X989237Y354139D01*
X989357Y354076D01*
X989479Y354017D01*
X989602Y353962D01*
X989728Y353910D01*
X989854Y353862D01*
X989982Y353817D01*
X990111Y353777D01*
X990242Y353740D01*
X990373Y353707D01*
X990505Y353677D01*
X990638Y353652D01*
X990772Y353630D01*
X990906Y353612D01*
X991041Y353599D01*
X991176Y353589D01*
X991312Y353583D01*
X991447Y353581D01*
X999208Y353581D01*
X999364Y353583D01*
X999520Y353589D01*
X999676Y353599D01*
X999831Y353612D01*
X999986Y353630D01*
X1000141Y353651D01*
X1000295Y353677D01*
X1000448Y353706D01*
X1000600Y353739D01*
X1000752Y353776D01*
X1000903Y353817D01*
X1001052Y353861D01*
X1001201Y353909D01*
X1001348Y353961D01*
X1001494Y354017D01*
X1001638Y354076D01*
X1001781Y354139D01*
X1001922Y354206D01*
X1002062Y354276D01*
X1002199Y354349D01*
X1002335Y354426D01*
X1002469Y354506D01*
X1002601Y354590D01*
X1002730Y354677D01*
X1002858Y354767D01*
X1002983Y354860D01*
X1003105Y354957D01*
X1003226Y355056D01*
X1003343Y355158D01*
X1003458Y355264D01*
X1003571Y355372D01*
X1003680Y355483D01*
X1003787Y355597D01*
X1003891Y355713D01*
X1003992Y355832D01*
X1004090Y355954D01*
X1004185Y356078D01*
X1004277Y356204D01*
X1004365Y356332D01*
X1004450Y356463D01*
X1004532Y356596D01*
X1004611Y356731D01*
X1004686Y356867D01*
X1004758Y357006D01*
X1004826Y357146D01*
X1004891Y357288D01*
X1004952Y357432D01*
X1005009Y357577D01*
X1005063Y357724D01*
X1005113Y357871D01*
X1005159Y358020D01*
X1005202Y358170D01*
X1005241Y358322D01*
X1005276Y358474D01*
X1005307Y358627D01*
X1005334Y358780D01*
X1005358Y358934D01*
X1005377Y359089D01*
X1005393Y359245D01*
X1005405Y359400D01*
X1005413Y359556D01*
X1005417Y359712D01*
X1005417Y359868D01*
X1005413Y360024D01*
X1005405Y360180D01*
X1005393Y360335D01*
X1005377Y360491D01*
X1005358Y360646D01*
X1005334Y360800D01*
X1005307Y360953D01*
X1005276Y361106D01*
X1005241Y361258D01*
X1005202Y361410D01*
X1005159Y361560D01*
X1005113Y361709D01*
X1005063Y361856D01*
X1005009Y362003D01*
X1004952Y362148D01*
X1004891Y362292D01*
X1004826Y362434D01*
X1004758Y362574D01*
X1004686Y362713D01*
X1004611Y362849D01*
X1004532Y362984D01*
X1004450Y363117D01*
X1004365Y363248D01*
X1004277Y363376D01*
X1004185Y363502D01*
X1004090Y363626D01*
X1003992Y363748D01*
X1003891Y363867D01*
X1003787Y363983D01*
X1003680Y364097D01*
X1003571Y364208D01*
X1003458Y364316D01*
X1003343Y364422D01*
X1003226Y364524D01*
X1003105Y364623D01*
X1002983Y364720D01*
X1002858Y364813D01*
X1002730Y364903D01*
X1002601Y364990D01*
X1002469Y365074D01*
X1002335Y365154D01*
X1002199Y365231D01*
X1002062Y365304D01*
X1001922Y365374D01*
X1001781Y365441D01*
X1001638Y365504D01*
X1001494Y365563D01*
X1001348Y365619D01*
X1001201Y365671D01*
X1001052Y365719D01*
X1000903Y365763D01*
X1000752Y365804D01*
X1000600Y365841D01*
X1000448Y365874D01*
X1000295Y365903D01*
X1000141Y365929D01*
X999986Y365950D01*
X999831Y365968D01*
X999676Y365981D01*
X999520Y365991D01*
X999364Y365997D01*
X999208Y365999D01*
X996103Y365999D01*
X996103Y353581D01*
X986790Y375085D02*
X1005417Y375085D01*
X1005417Y382846D01*
X1005415Y382981D01*
X1005409Y383117D01*
X1005399Y383252D01*
X1005386Y383387D01*
X1005368Y383521D01*
X1005346Y383655D01*
X1005321Y383788D01*
X1005291Y383920D01*
X1005258Y384051D01*
X1005221Y384182D01*
X1005181Y384311D01*
X1005136Y384439D01*
X1005088Y384565D01*
X1005036Y384691D01*
X1004981Y384814D01*
X1004922Y384936D01*
X1004859Y385056D01*
X1004793Y385175D01*
X1004724Y385291D01*
X1004651Y385405D01*
X1004575Y385517D01*
X1004495Y385627D01*
X1004413Y385734D01*
X1004327Y385839D01*
X1004239Y385942D01*
X1004147Y386042D01*
X1004053Y386139D01*
X1003956Y386233D01*
X1003856Y386325D01*
X1003753Y386413D01*
X1003648Y386499D01*
X1003541Y386581D01*
X1003431Y386661D01*
X1003319Y386737D01*
X1003205Y386810D01*
X1003089Y386879D01*
X1002970Y386945D01*
X1002850Y387008D01*
X1002728Y387067D01*
X1002605Y387122D01*
X1002479Y387174D01*
X1002353Y387222D01*
X1002225Y387267D01*
X1002096Y387307D01*
X1001965Y387344D01*
X1001834Y387377D01*
X1001702Y387407D01*
X1001569Y387432D01*
X1001435Y387454D01*
X1001301Y387472D01*
X1001166Y387485D01*
X1001031Y387495D01*
X1000895Y387501D01*
X1000760Y387503D01*
X986790Y387503D01*
X1005417Y394917D02*
X1005417Y404230D01*
X1014730Y398021D02*
X991447Y398021D01*
X991312Y398023D01*
X991176Y398029D01*
X991041Y398039D01*
X990906Y398052D01*
X990772Y398070D01*
X990638Y398092D01*
X990505Y398117D01*
X990373Y398147D01*
X990242Y398180D01*
X990111Y398217D01*
X989982Y398257D01*
X989854Y398302D01*
X989728Y398350D01*
X989602Y398402D01*
X989479Y398457D01*
X989357Y398516D01*
X989237Y398579D01*
X989119Y398645D01*
X989002Y398714D01*
X988888Y398787D01*
X988776Y398863D01*
X988666Y398943D01*
X988559Y399025D01*
X988454Y399111D01*
X988351Y399199D01*
X988251Y399291D01*
X988154Y399385D01*
X988060Y399482D01*
X987968Y399582D01*
X987880Y399685D01*
X987794Y399790D01*
X987712Y399897D01*
X987632Y400007D01*
X987556Y400119D01*
X987483Y400233D01*
X987414Y400350D01*
X987348Y400468D01*
X987285Y400588D01*
X987226Y400710D01*
X987171Y400833D01*
X987119Y400959D01*
X987071Y401085D01*
X987026Y401213D01*
X986986Y401342D01*
X986949Y401473D01*
X986916Y401604D01*
X986886Y401736D01*
X986861Y401869D01*
X986839Y402003D01*
X986821Y402137D01*
X986808Y402272D01*
X986798Y402407D01*
X986792Y402543D01*
X986790Y402678D01*
X986790Y404230D01*
X986790Y412355D02*
X1005417Y412355D01*
X1013178Y411579D02*
X1014730Y411579D01*
X1014730Y413131D01*
X1013178Y413131D01*
X1013178Y411579D01*
X1014730Y434858D02*
X986790Y434858D01*
X986790Y450381D02*
X1014730Y434858D01*
X1014730Y450381D02*
X986790Y450381D01*
X986790Y460141D02*
X1005417Y460141D01*
X1013178Y459365D02*
X1014730Y459365D01*
X1014730Y460917D01*
X1013178Y460917D01*
X1013178Y459365D01*
X986790Y473729D02*
X986790Y479937D01*
X986790Y473729D02*
X986792Y473594D01*
X986798Y473458D01*
X986808Y473323D01*
X986821Y473188D01*
X986839Y473054D01*
X986861Y472920D01*
X986886Y472787D01*
X986916Y472655D01*
X986949Y472524D01*
X986986Y472393D01*
X987026Y472264D01*
X987071Y472136D01*
X987119Y472010D01*
X987171Y471884D01*
X987226Y471761D01*
X987285Y471639D01*
X987348Y471519D01*
X987414Y471401D01*
X987483Y471284D01*
X987556Y471170D01*
X987632Y471058D01*
X987712Y470948D01*
X987794Y470841D01*
X987880Y470736D01*
X987968Y470633D01*
X988060Y470533D01*
X988154Y470436D01*
X988251Y470342D01*
X988351Y470250D01*
X988454Y470162D01*
X988559Y470076D01*
X988666Y469994D01*
X988776Y469914D01*
X988888Y469838D01*
X989002Y469765D01*
X989119Y469696D01*
X989237Y469630D01*
X989357Y469567D01*
X989479Y469508D01*
X989602Y469453D01*
X989728Y469401D01*
X989854Y469353D01*
X989982Y469308D01*
X990111Y469268D01*
X990242Y469231D01*
X990373Y469198D01*
X990505Y469168D01*
X990638Y469143D01*
X990772Y469121D01*
X990906Y469103D01*
X991041Y469090D01*
X991176Y469080D01*
X991312Y469074D01*
X991447Y469072D01*
X1000760Y469072D01*
X1000895Y469074D01*
X1001031Y469080D01*
X1001166Y469090D01*
X1001301Y469103D01*
X1001435Y469121D01*
X1001569Y469143D01*
X1001702Y469168D01*
X1001834Y469198D01*
X1001965Y469231D01*
X1002096Y469268D01*
X1002225Y469308D01*
X1002353Y469353D01*
X1002479Y469401D01*
X1002605Y469453D01*
X1002728Y469508D01*
X1002850Y469567D01*
X1002970Y469630D01*
X1003089Y469696D01*
X1003205Y469765D01*
X1003319Y469838D01*
X1003431Y469914D01*
X1003541Y469994D01*
X1003648Y470076D01*
X1003753Y470162D01*
X1003856Y470250D01*
X1003956Y470342D01*
X1004053Y470436D01*
X1004147Y470533D01*
X1004239Y470633D01*
X1004327Y470736D01*
X1004413Y470841D01*
X1004495Y470948D01*
X1004575Y471058D01*
X1004651Y471170D01*
X1004724Y471284D01*
X1004793Y471401D01*
X1004859Y471519D01*
X1004922Y471639D01*
X1004981Y471761D01*
X1005036Y471884D01*
X1005088Y472010D01*
X1005136Y472136D01*
X1005181Y472264D01*
X1005221Y472393D01*
X1005258Y472524D01*
X1005291Y472655D01*
X1005321Y472787D01*
X1005346Y472920D01*
X1005368Y473054D01*
X1005386Y473188D01*
X1005399Y473323D01*
X1005409Y473458D01*
X1005415Y473594D01*
X1005417Y473729D01*
X1005417Y479937D01*
X999208Y487383D02*
X992999Y487383D01*
X999208Y487383D02*
X999364Y487385D01*
X999520Y487391D01*
X999676Y487401D01*
X999831Y487414D01*
X999986Y487432D01*
X1000141Y487453D01*
X1000295Y487479D01*
X1000448Y487508D01*
X1000600Y487541D01*
X1000752Y487578D01*
X1000903Y487619D01*
X1001052Y487663D01*
X1001201Y487711D01*
X1001348Y487763D01*
X1001494Y487819D01*
X1001638Y487878D01*
X1001781Y487941D01*
X1001922Y488008D01*
X1002062Y488078D01*
X1002199Y488151D01*
X1002335Y488228D01*
X1002469Y488308D01*
X1002601Y488392D01*
X1002730Y488479D01*
X1002858Y488569D01*
X1002983Y488662D01*
X1003105Y488759D01*
X1003226Y488858D01*
X1003343Y488960D01*
X1003458Y489066D01*
X1003571Y489174D01*
X1003680Y489285D01*
X1003787Y489399D01*
X1003891Y489515D01*
X1003992Y489634D01*
X1004090Y489756D01*
X1004185Y489880D01*
X1004277Y490006D01*
X1004365Y490134D01*
X1004450Y490265D01*
X1004532Y490398D01*
X1004611Y490533D01*
X1004686Y490669D01*
X1004758Y490808D01*
X1004826Y490948D01*
X1004891Y491090D01*
X1004952Y491234D01*
X1005009Y491379D01*
X1005063Y491526D01*
X1005113Y491673D01*
X1005159Y491822D01*
X1005202Y491972D01*
X1005241Y492124D01*
X1005276Y492276D01*
X1005307Y492429D01*
X1005334Y492582D01*
X1005358Y492736D01*
X1005377Y492891D01*
X1005393Y493047D01*
X1005405Y493202D01*
X1005413Y493358D01*
X1005417Y493514D01*
X1005417Y493670D01*
X1005413Y493826D01*
X1005405Y493982D01*
X1005393Y494137D01*
X1005377Y494293D01*
X1005358Y494448D01*
X1005334Y494602D01*
X1005307Y494755D01*
X1005276Y494908D01*
X1005241Y495060D01*
X1005202Y495212D01*
X1005159Y495362D01*
X1005113Y495511D01*
X1005063Y495658D01*
X1005009Y495805D01*
X1004952Y495950D01*
X1004891Y496094D01*
X1004826Y496236D01*
X1004758Y496376D01*
X1004686Y496515D01*
X1004611Y496651D01*
X1004532Y496786D01*
X1004450Y496919D01*
X1004365Y497050D01*
X1004277Y497178D01*
X1004185Y497304D01*
X1004090Y497428D01*
X1003992Y497550D01*
X1003891Y497669D01*
X1003787Y497785D01*
X1003680Y497899D01*
X1003571Y498010D01*
X1003458Y498118D01*
X1003343Y498224D01*
X1003226Y498326D01*
X1003105Y498425D01*
X1002983Y498522D01*
X1002858Y498615D01*
X1002730Y498705D01*
X1002601Y498792D01*
X1002469Y498876D01*
X1002335Y498956D01*
X1002199Y499033D01*
X1002062Y499106D01*
X1001922Y499176D01*
X1001781Y499243D01*
X1001638Y499306D01*
X1001494Y499365D01*
X1001348Y499421D01*
X1001201Y499473D01*
X1001052Y499521D01*
X1000903Y499565D01*
X1000752Y499606D01*
X1000600Y499643D01*
X1000448Y499676D01*
X1000295Y499705D01*
X1000141Y499731D01*
X999986Y499752D01*
X999831Y499770D01*
X999676Y499783D01*
X999520Y499793D01*
X999364Y499799D01*
X999208Y499801D01*
X992999Y499801D01*
X992843Y499799D01*
X992687Y499793D01*
X992531Y499783D01*
X992376Y499770D01*
X992221Y499752D01*
X992066Y499731D01*
X991912Y499705D01*
X991759Y499676D01*
X991607Y499643D01*
X991455Y499606D01*
X991304Y499565D01*
X991155Y499521D01*
X991006Y499473D01*
X990859Y499421D01*
X990713Y499365D01*
X990569Y499306D01*
X990426Y499243D01*
X990285Y499176D01*
X990145Y499106D01*
X990008Y499033D01*
X989872Y498956D01*
X989738Y498876D01*
X989606Y498792D01*
X989477Y498705D01*
X989349Y498615D01*
X989224Y498522D01*
X989102Y498425D01*
X988981Y498326D01*
X988864Y498224D01*
X988749Y498118D01*
X988636Y498010D01*
X988527Y497899D01*
X988420Y497785D01*
X988316Y497669D01*
X988215Y497550D01*
X988117Y497428D01*
X988022Y497304D01*
X987930Y497178D01*
X987842Y497050D01*
X987757Y496919D01*
X987675Y496786D01*
X987596Y496651D01*
X987521Y496515D01*
X987449Y496376D01*
X987381Y496236D01*
X987316Y496094D01*
X987255Y495950D01*
X987198Y495805D01*
X987144Y495658D01*
X987094Y495511D01*
X987048Y495362D01*
X987005Y495212D01*
X986966Y495060D01*
X986931Y494908D01*
X986900Y494755D01*
X986873Y494602D01*
X986849Y494448D01*
X986830Y494293D01*
X986814Y494137D01*
X986802Y493982D01*
X986794Y493826D01*
X986790Y493670D01*
X986790Y493514D01*
X986794Y493358D01*
X986802Y493202D01*
X986814Y493047D01*
X986830Y492891D01*
X986849Y492736D01*
X986873Y492582D01*
X986900Y492429D01*
X986931Y492276D01*
X986966Y492124D01*
X987005Y491972D01*
X987048Y491822D01*
X987094Y491673D01*
X987144Y491526D01*
X987198Y491379D01*
X987255Y491234D01*
X987316Y491090D01*
X987381Y490948D01*
X987449Y490808D01*
X987521Y490669D01*
X987596Y490533D01*
X987675Y490398D01*
X987757Y490265D01*
X987842Y490134D01*
X987930Y490006D01*
X988022Y489880D01*
X988117Y489756D01*
X988215Y489634D01*
X988316Y489515D01*
X988420Y489399D01*
X988527Y489285D01*
X988636Y489174D01*
X988749Y489066D01*
X988864Y488960D01*
X988981Y488858D01*
X989102Y488759D01*
X989224Y488662D01*
X989349Y488569D01*
X989477Y488479D01*
X989606Y488392D01*
X989738Y488308D01*
X989872Y488228D01*
X990008Y488151D01*
X990145Y488078D01*
X990285Y488008D01*
X990426Y487941D01*
X990569Y487878D01*
X990713Y487819D01*
X990859Y487763D01*
X991006Y487711D01*
X991155Y487663D01*
X991304Y487619D01*
X991455Y487578D01*
X991607Y487541D01*
X991759Y487508D01*
X991912Y487479D01*
X992066Y487453D01*
X992221Y487432D01*
X992376Y487414D01*
X992531Y487401D01*
X992687Y487391D01*
X992843Y487385D01*
X992999Y487383D01*
X991447Y508805D02*
X1014730Y508805D01*
X991447Y508805D02*
X991312Y508807D01*
X991176Y508813D01*
X991041Y508823D01*
X990906Y508836D01*
X990772Y508854D01*
X990638Y508876D01*
X990505Y508901D01*
X990373Y508931D01*
X990242Y508964D01*
X990111Y509001D01*
X989982Y509041D01*
X989854Y509086D01*
X989728Y509134D01*
X989602Y509186D01*
X989479Y509241D01*
X989357Y509300D01*
X989237Y509363D01*
X989119Y509429D01*
X989002Y509498D01*
X988888Y509571D01*
X988776Y509647D01*
X988666Y509727D01*
X988559Y509809D01*
X988454Y509895D01*
X988351Y509983D01*
X988251Y510075D01*
X988154Y510169D01*
X988060Y510266D01*
X987968Y510366D01*
X987880Y510469D01*
X987794Y510574D01*
X987712Y510681D01*
X987632Y510791D01*
X987556Y510903D01*
X987483Y511017D01*
X987414Y511134D01*
X987348Y511252D01*
X987285Y511372D01*
X987226Y511494D01*
X987171Y511617D01*
X987119Y511743D01*
X987071Y511869D01*
X987026Y511997D01*
X986986Y512126D01*
X986949Y512257D01*
X986916Y512388D01*
X986886Y512520D01*
X986861Y512653D01*
X986839Y512787D01*
X986821Y512921D01*
X986808Y513056D01*
X986798Y513191D01*
X986792Y513327D01*
X986790Y513462D01*
X997656Y526243D02*
X997656Y533228D01*
X997656Y526243D02*
X997654Y526097D01*
X997648Y525951D01*
X997638Y525806D01*
X997625Y525661D01*
X997607Y525516D01*
X997586Y525371D01*
X997560Y525228D01*
X997531Y525085D01*
X997498Y524943D01*
X997461Y524802D01*
X997421Y524662D01*
X997376Y524523D01*
X997328Y524385D01*
X997277Y524248D01*
X997221Y524113D01*
X997162Y523980D01*
X997100Y523848D01*
X997034Y523718D01*
X996964Y523590D01*
X996891Y523464D01*
X996815Y523339D01*
X996735Y523217D01*
X996652Y523097D01*
X996566Y522979D01*
X996477Y522864D01*
X996385Y522751D01*
X996290Y522640D01*
X996191Y522532D01*
X996090Y522427D01*
X995987Y522325D01*
X995880Y522225D01*
X995771Y522128D01*
X995659Y522035D01*
X995545Y521944D01*
X995428Y521856D01*
X995309Y521772D01*
X995188Y521690D01*
X995065Y521613D01*
X994940Y521538D01*
X994812Y521467D01*
X994683Y521399D01*
X994552Y521335D01*
X994419Y521274D01*
X994285Y521217D01*
X994150Y521163D01*
X994012Y521113D01*
X993874Y521067D01*
X993735Y521025D01*
X993594Y520986D01*
X993452Y520951D01*
X993310Y520920D01*
X993166Y520893D01*
X993022Y520869D01*
X992878Y520850D01*
X992733Y520834D01*
X992587Y520822D01*
X992442Y520814D01*
X992296Y520810D01*
X992150Y520810D01*
X992004Y520814D01*
X991859Y520822D01*
X991713Y520834D01*
X991568Y520850D01*
X991424Y520869D01*
X991280Y520893D01*
X991136Y520920D01*
X990994Y520951D01*
X990852Y520986D01*
X990711Y521025D01*
X990572Y521067D01*
X990434Y521113D01*
X990296Y521163D01*
X990161Y521217D01*
X990027Y521274D01*
X989894Y521335D01*
X989763Y521399D01*
X989634Y521467D01*
X989507Y521538D01*
X989381Y521613D01*
X989258Y521690D01*
X989137Y521772D01*
X989018Y521856D01*
X988901Y521944D01*
X988787Y522035D01*
X988675Y522128D01*
X988566Y522225D01*
X988459Y522325D01*
X988356Y522427D01*
X988255Y522532D01*
X988156Y522640D01*
X988061Y522751D01*
X987969Y522864D01*
X987880Y522979D01*
X987794Y523097D01*
X987711Y523217D01*
X987631Y523339D01*
X987555Y523464D01*
X987482Y523590D01*
X987412Y523718D01*
X987346Y523848D01*
X987284Y523980D01*
X987225Y524113D01*
X987169Y524248D01*
X987118Y524385D01*
X987070Y524523D01*
X987025Y524662D01*
X986985Y524802D01*
X986948Y524943D01*
X986915Y525085D01*
X986886Y525228D01*
X986860Y525371D01*
X986839Y525516D01*
X986821Y525661D01*
X986808Y525806D01*
X986798Y525951D01*
X986792Y526097D01*
X986790Y526243D01*
X986790Y533228D01*
X1000760Y533228D01*
X1000760Y533229D02*
X1000895Y533227D01*
X1001031Y533221D01*
X1001166Y533211D01*
X1001301Y533198D01*
X1001435Y533180D01*
X1001569Y533158D01*
X1001702Y533133D01*
X1001834Y533103D01*
X1001965Y533070D01*
X1002096Y533033D01*
X1002225Y532993D01*
X1002353Y532948D01*
X1002479Y532900D01*
X1002605Y532848D01*
X1002728Y532793D01*
X1002850Y532734D01*
X1002970Y532671D01*
X1003089Y532605D01*
X1003205Y532536D01*
X1003319Y532463D01*
X1003431Y532387D01*
X1003541Y532307D01*
X1003648Y532225D01*
X1003753Y532139D01*
X1003856Y532051D01*
X1003956Y531959D01*
X1004053Y531865D01*
X1004147Y531768D01*
X1004239Y531668D01*
X1004327Y531565D01*
X1004413Y531460D01*
X1004495Y531353D01*
X1004575Y531243D01*
X1004651Y531131D01*
X1004724Y531017D01*
X1004793Y530901D01*
X1004859Y530782D01*
X1004922Y530662D01*
X1004981Y530540D01*
X1005036Y530417D01*
X1005088Y530291D01*
X1005136Y530165D01*
X1005181Y530037D01*
X1005221Y529908D01*
X1005258Y529777D01*
X1005291Y529646D01*
X1005321Y529514D01*
X1005346Y529381D01*
X1005368Y529247D01*
X1005386Y529113D01*
X1005399Y528978D01*
X1005409Y528843D01*
X1005415Y528707D01*
X1005417Y528572D01*
X1005417Y522363D01*
X997656Y544666D02*
X994551Y552427D01*
X997655Y544665D02*
X997703Y544549D01*
X997755Y544435D01*
X997811Y544323D01*
X997870Y544212D01*
X997932Y544103D01*
X997998Y543996D01*
X998067Y543891D01*
X998140Y543789D01*
X998215Y543689D01*
X998294Y543591D01*
X998375Y543495D01*
X998460Y543403D01*
X998547Y543312D01*
X998637Y543225D01*
X998730Y543141D01*
X998826Y543059D01*
X998924Y542981D01*
X999024Y542905D01*
X999127Y542833D01*
X999231Y542764D01*
X999338Y542698D01*
X999447Y542636D01*
X999558Y542577D01*
X999671Y542522D01*
X999785Y542470D01*
X999901Y542421D01*
X1000018Y542377D01*
X1000137Y542336D01*
X1000257Y542298D01*
X1000378Y542265D01*
X1000500Y542235D01*
X1000622Y542209D01*
X1000746Y542187D01*
X1000870Y542169D01*
X1000995Y542155D01*
X1001120Y542144D01*
X1001245Y542138D01*
X1001371Y542135D01*
X1001496Y542136D01*
X1001622Y542142D01*
X1001747Y542151D01*
X1001872Y542164D01*
X1001996Y542181D01*
X1002120Y542201D01*
X1002243Y542226D01*
X1002365Y542254D01*
X1002486Y542287D01*
X1002607Y542323D01*
X1002726Y542362D01*
X1002843Y542406D01*
X1002960Y542453D01*
X1003075Y542504D01*
X1003188Y542558D01*
X1003299Y542616D01*
X1003409Y542677D01*
X1003516Y542741D01*
X1003622Y542809D01*
X1003725Y542880D01*
X1003826Y542955D01*
X1003925Y543032D01*
X1004022Y543113D01*
X1004115Y543196D01*
X1004206Y543282D01*
X1004295Y543372D01*
X1004380Y543463D01*
X1004463Y543558D01*
X1004542Y543655D01*
X1004619Y543754D01*
X1004692Y543856D01*
X1004763Y543960D01*
X1004830Y544066D01*
X1004893Y544175D01*
X1004953Y544285D01*
X1005010Y544397D01*
X1005063Y544510D01*
X1005113Y544626D01*
X1005159Y544742D01*
X1005201Y544861D01*
X1005240Y544980D01*
X1005275Y545100D01*
X1005306Y545222D01*
X1005334Y545345D01*
X1005357Y545468D01*
X1005377Y545592D01*
X1005392Y545716D01*
X1005404Y545841D01*
X1005412Y545967D01*
X1005416Y546092D01*
X1005417Y546218D01*
X1005406Y546642D01*
X1005385Y547065D01*
X1005353Y547488D01*
X1005312Y547909D01*
X1005260Y548330D01*
X1005198Y548749D01*
X1005126Y549167D01*
X1005044Y549583D01*
X1004952Y549997D01*
X1004850Y550408D01*
X1004738Y550817D01*
X1004617Y551223D01*
X1004486Y551626D01*
X1004345Y552026D01*
X1004194Y552422D01*
X1004034Y552815D01*
X1003865Y553203D01*
X994551Y552427D02*
X994503Y552543D01*
X994451Y552657D01*
X994395Y552769D01*
X994336Y552880D01*
X994274Y552989D01*
X994208Y553096D01*
X994139Y553201D01*
X994066Y553303D01*
X993991Y553403D01*
X993912Y553501D01*
X993831Y553597D01*
X993746Y553689D01*
X993659Y553780D01*
X993569Y553867D01*
X993476Y553951D01*
X993380Y554033D01*
X993282Y554111D01*
X993182Y554187D01*
X993079Y554259D01*
X992975Y554328D01*
X992868Y554394D01*
X992759Y554456D01*
X992648Y554515D01*
X992535Y554570D01*
X992421Y554622D01*
X992305Y554671D01*
X992188Y554715D01*
X992069Y554756D01*
X991949Y554794D01*
X991828Y554827D01*
X991706Y554857D01*
X991584Y554883D01*
X991460Y554905D01*
X991336Y554923D01*
X991211Y554937D01*
X991086Y554948D01*
X990961Y554954D01*
X990835Y554957D01*
X990710Y554956D01*
X990584Y554950D01*
X990459Y554941D01*
X990334Y554928D01*
X990210Y554911D01*
X990086Y554891D01*
X989963Y554866D01*
X989841Y554838D01*
X989720Y554805D01*
X989599Y554769D01*
X989480Y554730D01*
X989363Y554686D01*
X989246Y554639D01*
X989131Y554588D01*
X989018Y554534D01*
X988907Y554476D01*
X988797Y554415D01*
X988690Y554351D01*
X988584Y554283D01*
X988481Y554212D01*
X988380Y554137D01*
X988281Y554060D01*
X988184Y553979D01*
X988091Y553896D01*
X988000Y553810D01*
X987911Y553720D01*
X987826Y553629D01*
X987743Y553534D01*
X987664Y553437D01*
X987587Y553338D01*
X987514Y553236D01*
X987443Y553132D01*
X987376Y553026D01*
X987313Y552917D01*
X987253Y552807D01*
X987196Y552695D01*
X987143Y552582D01*
X987093Y552466D01*
X987047Y552350D01*
X987005Y552231D01*
X986966Y552112D01*
X986931Y551992D01*
X986900Y551870D01*
X986872Y551747D01*
X986849Y551624D01*
X986829Y551500D01*
X986814Y551376D01*
X986802Y551251D01*
X986794Y551125D01*
X986790Y551000D01*
X986789Y550875D01*
X986790Y550874D02*
X986806Y550252D01*
X986837Y549630D01*
X986883Y549009D01*
X986943Y548389D01*
X987018Y547771D01*
X987107Y547155D01*
X987212Y546541D01*
X987330Y545930D01*
X987463Y545322D01*
X987611Y544717D01*
X987772Y544115D01*
X987948Y543518D01*
X988138Y542925D01*
X988342Y542337D01*
X986790Y575828D02*
X986790Y585142D01*
X986792Y585299D01*
X986798Y585456D01*
X986808Y585613D01*
X986822Y585770D01*
X986840Y585926D01*
X986862Y586082D01*
X986887Y586237D01*
X986917Y586392D01*
X986951Y586546D01*
X986988Y586698D01*
X987030Y586850D01*
X987075Y587001D01*
X987124Y587150D01*
X987176Y587298D01*
X987233Y587445D01*
X987293Y587591D01*
X987357Y587734D01*
X987425Y587876D01*
X987496Y588017D01*
X987570Y588155D01*
X987648Y588292D01*
X987730Y588426D01*
X987815Y588559D01*
X987903Y588689D01*
X987994Y588817D01*
X988089Y588943D01*
X988187Y589066D01*
X988288Y589186D01*
X988392Y589304D01*
X988499Y589420D01*
X988609Y589532D01*
X988721Y589642D01*
X988837Y589749D01*
X988955Y589853D01*
X989075Y589954D01*
X989198Y590052D01*
X989324Y590147D01*
X989452Y590238D01*
X989582Y590326D01*
X989715Y590411D01*
X989849Y590493D01*
X989986Y590571D01*
X990124Y590645D01*
X990265Y590716D01*
X990407Y590784D01*
X990550Y590848D01*
X990696Y590908D01*
X990843Y590964D01*
X990991Y591017D01*
X991140Y591066D01*
X991291Y591111D01*
X991443Y591153D01*
X991595Y591190D01*
X991749Y591224D01*
X991904Y591254D01*
X992059Y591279D01*
X992215Y591301D01*
X992371Y591319D01*
X992528Y591333D01*
X992684Y591343D01*
X992842Y591349D01*
X992999Y591351D01*
X996103Y591351D01*
X996258Y591349D01*
X996412Y591343D01*
X996567Y591334D01*
X996721Y591320D01*
X996875Y591303D01*
X997028Y591282D01*
X997181Y591257D01*
X997333Y591228D01*
X997485Y591195D01*
X997635Y591159D01*
X997785Y591119D01*
X997933Y591075D01*
X998080Y591028D01*
X998227Y590977D01*
X998371Y590922D01*
X998515Y590863D01*
X998657Y590802D01*
X998797Y590736D01*
X998936Y590667D01*
X999072Y590595D01*
X999208Y590519D01*
X999341Y590440D01*
X999472Y590358D01*
X999601Y590272D01*
X999727Y590183D01*
X999852Y590091D01*
X999974Y589996D01*
X1000094Y589898D01*
X1000211Y589797D01*
X1000326Y589694D01*
X1000438Y589587D01*
X1000548Y589477D01*
X1000655Y589365D01*
X1000758Y589250D01*
X1000859Y589133D01*
X1000957Y589013D01*
X1001052Y588891D01*
X1001144Y588766D01*
X1001233Y588640D01*
X1001319Y588511D01*
X1001401Y588380D01*
X1001480Y588247D01*
X1001556Y588111D01*
X1001628Y587975D01*
X1001697Y587836D01*
X1001763Y587696D01*
X1001824Y587554D01*
X1001883Y587410D01*
X1001938Y587266D01*
X1001989Y587119D01*
X1002036Y586972D01*
X1002080Y586824D01*
X1002120Y586674D01*
X1002156Y586524D01*
X1002189Y586372D01*
X1002218Y586220D01*
X1002243Y586067D01*
X1002264Y585914D01*
X1002281Y585760D01*
X1002295Y585606D01*
X1002304Y585451D01*
X1002310Y585297D01*
X1002312Y585142D01*
X1002312Y575828D01*
X1014730Y575828D01*
X1014730Y591351D01*
X1010849Y599620D02*
X1006193Y599620D01*
X1010849Y599619D02*
X1010972Y599621D01*
X1011095Y599627D01*
X1011218Y599637D01*
X1011340Y599650D01*
X1011462Y599668D01*
X1011583Y599689D01*
X1011704Y599714D01*
X1011824Y599743D01*
X1011942Y599776D01*
X1012060Y599813D01*
X1012176Y599853D01*
X1012291Y599897D01*
X1012405Y599945D01*
X1012517Y599996D01*
X1012627Y600050D01*
X1012736Y600109D01*
X1012843Y600170D01*
X1012947Y600235D01*
X1013050Y600303D01*
X1013150Y600375D01*
X1013248Y600449D01*
X1013344Y600527D01*
X1013437Y600608D01*
X1013527Y600691D01*
X1013615Y600778D01*
X1013700Y600867D01*
X1013782Y600958D01*
X1013861Y601053D01*
X1013937Y601150D01*
X1014010Y601249D01*
X1014080Y601350D01*
X1014147Y601454D01*
X1014210Y601560D01*
X1014270Y601667D01*
X1014326Y601777D01*
X1014379Y601888D01*
X1014429Y602001D01*
X1014474Y602115D01*
X1014517Y602231D01*
X1014555Y602348D01*
X1014590Y602466D01*
X1014621Y602585D01*
X1014648Y602705D01*
X1014671Y602826D01*
X1014690Y602948D01*
X1014706Y603070D01*
X1014718Y603192D01*
X1014726Y603315D01*
X1014730Y603438D01*
X1014730Y603562D01*
X1014726Y603685D01*
X1014718Y603808D01*
X1014706Y603930D01*
X1014690Y604052D01*
X1014671Y604174D01*
X1014648Y604295D01*
X1014621Y604415D01*
X1014590Y604534D01*
X1014555Y604652D01*
X1014517Y604769D01*
X1014474Y604885D01*
X1014429Y604999D01*
X1014379Y605112D01*
X1014326Y605223D01*
X1014270Y605333D01*
X1014210Y605441D01*
X1014147Y605546D01*
X1014080Y605650D01*
X1014010Y605751D01*
X1013937Y605850D01*
X1013861Y605947D01*
X1013782Y606042D01*
X1013700Y606133D01*
X1013615Y606222D01*
X1013527Y606309D01*
X1013437Y606392D01*
X1013344Y606473D01*
X1013248Y606551D01*
X1013150Y606625D01*
X1013050Y606697D01*
X1012947Y606765D01*
X1012843Y606830D01*
X1012736Y606891D01*
X1012627Y606950D01*
X1012517Y607004D01*
X1012405Y607055D01*
X1012291Y607103D01*
X1012176Y607147D01*
X1012060Y607187D01*
X1011942Y607224D01*
X1011824Y607257D01*
X1011704Y607286D01*
X1011583Y607311D01*
X1011462Y607332D01*
X1011340Y607350D01*
X1011218Y607363D01*
X1011095Y607373D01*
X1010972Y607379D01*
X1010849Y607381D01*
X1006193Y607381D01*
X1006070Y607379D01*
X1005947Y607373D01*
X1005824Y607363D01*
X1005702Y607350D01*
X1005580Y607332D01*
X1005459Y607311D01*
X1005338Y607286D01*
X1005218Y607257D01*
X1005100Y607224D01*
X1004982Y607187D01*
X1004866Y607147D01*
X1004751Y607103D01*
X1004637Y607055D01*
X1004525Y607004D01*
X1004415Y606950D01*
X1004306Y606891D01*
X1004199Y606830D01*
X1004095Y606765D01*
X1003992Y606697D01*
X1003892Y606625D01*
X1003794Y606551D01*
X1003698Y606473D01*
X1003605Y606392D01*
X1003515Y606309D01*
X1003427Y606222D01*
X1003342Y606133D01*
X1003260Y606042D01*
X1003181Y605947D01*
X1003105Y605850D01*
X1003032Y605751D01*
X1002962Y605650D01*
X1002895Y605546D01*
X1002832Y605441D01*
X1002772Y605333D01*
X1002716Y605223D01*
X1002663Y605112D01*
X1002613Y604999D01*
X1002568Y604885D01*
X1002525Y604769D01*
X1002487Y604652D01*
X1002452Y604534D01*
X1002421Y604415D01*
X1002394Y604295D01*
X1002371Y604174D01*
X1002352Y604052D01*
X1002336Y603930D01*
X1002324Y603808D01*
X1002316Y603685D01*
X1002312Y603562D01*
X1002312Y603438D01*
X1002316Y603315D01*
X1002324Y603192D01*
X1002336Y603070D01*
X1002352Y602948D01*
X1002371Y602826D01*
X1002394Y602705D01*
X1002421Y602585D01*
X1002452Y602466D01*
X1002487Y602348D01*
X1002525Y602231D01*
X1002568Y602115D01*
X1002613Y602001D01*
X1002663Y601888D01*
X1002716Y601777D01*
X1002772Y601667D01*
X1002832Y601560D01*
X1002895Y601454D01*
X1002962Y601350D01*
X1003032Y601249D01*
X1003105Y601150D01*
X1003181Y601053D01*
X1003260Y600958D01*
X1003342Y600867D01*
X1003427Y600778D01*
X1003515Y600691D01*
X1003605Y600608D01*
X1003698Y600527D01*
X1003794Y600449D01*
X1003892Y600375D01*
X1003992Y600303D01*
X1004095Y600235D01*
X1004199Y600170D01*
X1004306Y600109D01*
X1004415Y600050D01*
X1004525Y599996D01*
X1004637Y599945D01*
X1004751Y599897D01*
X1004866Y599853D01*
X1004982Y599813D01*
X1005100Y599776D01*
X1005218Y599743D01*
X1005338Y599714D01*
X1005459Y599689D01*
X1005580Y599668D01*
X1005702Y599650D01*
X1005824Y599637D01*
X1005947Y599627D01*
X1006070Y599621D01*
X1006193Y599619D01*
X996103Y599620D02*
X996103Y607381D01*
X986790Y628393D02*
X986790Y636155D01*
X986792Y636344D01*
X986799Y636533D01*
X986811Y636722D01*
X986827Y636910D01*
X986847Y637098D01*
X986873Y637285D01*
X986902Y637472D01*
X986937Y637658D01*
X986976Y637842D01*
X987019Y638026D01*
X987067Y638209D01*
X987119Y638391D01*
X987176Y638571D01*
X987237Y638750D01*
X987302Y638927D01*
X987372Y639103D01*
X987446Y639277D01*
X987524Y639449D01*
X987606Y639619D01*
X987693Y639787D01*
X987783Y639953D01*
X987878Y640117D01*
X987976Y640278D01*
X988078Y640437D01*
X988185Y640594D01*
X988295Y640747D01*
X988408Y640898D01*
X988526Y641046D01*
X988646Y641192D01*
X988771Y641334D01*
X988899Y641473D01*
X989030Y641609D01*
X989164Y641742D01*
X989302Y641872D01*
X989443Y641998D01*
X989586Y642120D01*
X989733Y642240D01*
X989883Y642355D01*
X990035Y642467D01*
X990190Y642575D01*
X990348Y642679D01*
X990508Y642780D01*
X990671Y642876D01*
X990835Y642969D01*
X991002Y643057D01*
X991171Y643142D01*
X991343Y643222D01*
X991516Y643298D01*
X991690Y643370D01*
X991867Y643437D01*
X992045Y643500D01*
X992225Y643559D01*
X992406Y643614D01*
X992588Y643664D01*
X992771Y643709D01*
X992956Y643750D01*
X993141Y643787D01*
X993328Y643819D01*
X993515Y643846D01*
X993702Y643869D01*
X993890Y643888D01*
X994079Y643902D01*
X994268Y643911D01*
X994456Y643915D01*
X994646Y643915D01*
X994834Y643911D01*
X995023Y643902D01*
X995212Y643888D01*
X995400Y643869D01*
X995587Y643846D01*
X995774Y643819D01*
X995961Y643787D01*
X996146Y643750D01*
X996331Y643709D01*
X996514Y643664D01*
X996696Y643614D01*
X996877Y643559D01*
X997057Y643500D01*
X997235Y643437D01*
X997412Y643370D01*
X997586Y643298D01*
X997759Y643222D01*
X997931Y643142D01*
X998100Y643057D01*
X998267Y642969D01*
X998432Y642876D01*
X998594Y642780D01*
X998754Y642679D01*
X998912Y642575D01*
X999067Y642467D01*
X999219Y642355D01*
X999369Y642240D01*
X999516Y642120D01*
X999659Y641998D01*
X999800Y641872D01*
X999938Y641742D01*
X1000072Y641609D01*
X1000203Y641473D01*
X1000331Y641334D01*
X1000456Y641192D01*
X1000576Y641046D01*
X1000694Y640898D01*
X1000807Y640747D01*
X1000917Y640594D01*
X1001024Y640437D01*
X1001126Y640278D01*
X1001224Y640117D01*
X1001319Y639953D01*
X1001409Y639787D01*
X1001496Y639619D01*
X1001578Y639449D01*
X1001656Y639277D01*
X1001730Y639103D01*
X1001800Y638927D01*
X1001865Y638750D01*
X1001926Y638571D01*
X1001983Y638391D01*
X1002035Y638209D01*
X1002083Y638026D01*
X1002126Y637842D01*
X1002165Y637658D01*
X1002200Y637472D01*
X1002229Y637285D01*
X1002255Y637098D01*
X1002275Y636910D01*
X1002291Y636722D01*
X1002303Y636533D01*
X1002310Y636344D01*
X1002312Y636155D01*
X1014730Y637707D02*
X1014730Y628393D01*
X1014730Y637707D02*
X1014728Y637863D01*
X1014722Y638019D01*
X1014712Y638175D01*
X1014699Y638330D01*
X1014681Y638485D01*
X1014660Y638640D01*
X1014634Y638794D01*
X1014605Y638947D01*
X1014572Y639099D01*
X1014535Y639251D01*
X1014494Y639402D01*
X1014450Y639551D01*
X1014402Y639700D01*
X1014350Y639847D01*
X1014294Y639993D01*
X1014235Y640137D01*
X1014172Y640280D01*
X1014105Y640421D01*
X1014035Y640561D01*
X1013962Y640698D01*
X1013885Y640834D01*
X1013805Y640968D01*
X1013721Y641100D01*
X1013634Y641229D01*
X1013544Y641357D01*
X1013451Y641482D01*
X1013354Y641604D01*
X1013255Y641725D01*
X1013153Y641842D01*
X1013047Y641957D01*
X1012939Y642070D01*
X1012828Y642179D01*
X1012714Y642286D01*
X1012598Y642390D01*
X1012479Y642491D01*
X1012357Y642589D01*
X1012233Y642684D01*
X1012107Y642776D01*
X1011979Y642864D01*
X1011848Y642949D01*
X1011715Y643031D01*
X1011580Y643110D01*
X1011444Y643185D01*
X1011305Y643257D01*
X1011165Y643325D01*
X1011023Y643390D01*
X1010879Y643451D01*
X1010734Y643508D01*
X1010587Y643562D01*
X1010440Y643612D01*
X1010291Y643658D01*
X1010141Y643701D01*
X1009989Y643740D01*
X1009837Y643775D01*
X1009684Y643806D01*
X1009531Y643833D01*
X1009377Y643857D01*
X1009222Y643876D01*
X1009066Y643892D01*
X1008911Y643904D01*
X1008755Y643912D01*
X1008599Y643916D01*
X1008443Y643916D01*
X1008287Y643912D01*
X1008131Y643904D01*
X1007976Y643892D01*
X1007820Y643876D01*
X1007665Y643857D01*
X1007511Y643833D01*
X1007358Y643806D01*
X1007205Y643775D01*
X1007053Y643740D01*
X1006901Y643701D01*
X1006751Y643658D01*
X1006602Y643612D01*
X1006455Y643562D01*
X1006308Y643508D01*
X1006163Y643451D01*
X1006019Y643390D01*
X1005877Y643325D01*
X1005737Y643257D01*
X1005598Y643185D01*
X1005462Y643110D01*
X1005327Y643031D01*
X1005194Y642949D01*
X1005063Y642864D01*
X1004935Y642776D01*
X1004809Y642684D01*
X1004685Y642589D01*
X1004563Y642491D01*
X1004444Y642390D01*
X1004328Y642286D01*
X1004214Y642179D01*
X1004103Y642070D01*
X1003995Y641957D01*
X1003889Y641842D01*
X1003787Y641725D01*
X1003688Y641604D01*
X1003591Y641482D01*
X1003498Y641357D01*
X1003408Y641229D01*
X1003321Y641100D01*
X1003237Y640968D01*
X1003157Y640834D01*
X1003080Y640698D01*
X1003007Y640561D01*
X1002937Y640421D01*
X1002870Y640280D01*
X1002807Y640137D01*
X1002748Y639993D01*
X1002692Y639847D01*
X1002640Y639700D01*
X1002592Y639551D01*
X1002548Y639402D01*
X1002507Y639251D01*
X1002470Y639099D01*
X1002437Y638947D01*
X1002408Y638794D01*
X1002382Y638640D01*
X1002361Y638485D01*
X1002343Y638330D01*
X1002330Y638175D01*
X1002320Y638019D01*
X1002314Y637863D01*
X1002312Y637707D01*
X1002312Y631498D01*
X1008521Y654473D02*
X1008521Y659130D01*
X1008521Y654473D02*
X1008519Y654362D01*
X1008513Y654252D01*
X1008503Y654141D01*
X1008489Y654031D01*
X1008472Y653922D01*
X1008450Y653813D01*
X1008425Y653705D01*
X1008395Y653599D01*
X1008362Y653493D01*
X1008325Y653388D01*
X1008285Y653285D01*
X1008240Y653184D01*
X1008193Y653084D01*
X1008141Y652985D01*
X1008086Y652889D01*
X1008028Y652795D01*
X1007967Y652703D01*
X1007902Y652613D01*
X1007834Y652525D01*
X1007763Y652440D01*
X1007689Y652358D01*
X1007612Y652278D01*
X1007532Y652201D01*
X1007450Y652127D01*
X1007365Y652056D01*
X1007277Y651988D01*
X1007187Y651923D01*
X1007095Y651862D01*
X1007001Y651804D01*
X1006905Y651749D01*
X1006806Y651697D01*
X1006706Y651650D01*
X1006605Y651605D01*
X1006502Y651565D01*
X1006397Y651528D01*
X1006291Y651495D01*
X1006185Y651465D01*
X1006077Y651440D01*
X1005968Y651418D01*
X1005859Y651401D01*
X1005749Y651387D01*
X1005638Y651377D01*
X1005528Y651371D01*
X1005417Y651369D01*
X1005306Y651371D01*
X1005196Y651377D01*
X1005085Y651387D01*
X1004975Y651401D01*
X1004866Y651418D01*
X1004757Y651440D01*
X1004649Y651465D01*
X1004543Y651495D01*
X1004437Y651528D01*
X1004332Y651565D01*
X1004229Y651605D01*
X1004128Y651650D01*
X1004028Y651697D01*
X1003929Y651749D01*
X1003833Y651804D01*
X1003739Y651862D01*
X1003647Y651923D01*
X1003557Y651988D01*
X1003469Y652056D01*
X1003384Y652127D01*
X1003302Y652201D01*
X1003222Y652278D01*
X1003145Y652358D01*
X1003071Y652440D01*
X1003000Y652525D01*
X1002932Y652613D01*
X1002867Y652703D01*
X1002806Y652795D01*
X1002748Y652889D01*
X1002693Y652985D01*
X1002641Y653084D01*
X1002594Y653184D01*
X1002549Y653285D01*
X1002509Y653388D01*
X1002472Y653493D01*
X1002439Y653599D01*
X1002409Y653705D01*
X1002384Y653813D01*
X1002362Y653922D01*
X1002345Y654031D01*
X1002331Y654141D01*
X1002321Y654252D01*
X1002315Y654362D01*
X1002313Y654473D01*
X1002312Y654473D02*
X1002312Y659130D01*
X1011626Y659130D01*
X1011737Y659128D01*
X1011847Y659122D01*
X1011958Y659112D01*
X1012068Y659098D01*
X1012177Y659081D01*
X1012286Y659059D01*
X1012394Y659034D01*
X1012500Y659004D01*
X1012606Y658971D01*
X1012711Y658934D01*
X1012814Y658894D01*
X1012915Y658850D01*
X1013015Y658802D01*
X1013114Y658750D01*
X1013210Y658695D01*
X1013304Y658637D01*
X1013396Y658576D01*
X1013486Y658511D01*
X1013574Y658443D01*
X1013659Y658372D01*
X1013741Y658298D01*
X1013821Y658221D01*
X1013898Y658141D01*
X1013972Y658059D01*
X1014043Y657974D01*
X1014111Y657886D01*
X1014176Y657796D01*
X1014237Y657704D01*
X1014295Y657610D01*
X1014350Y657514D01*
X1014402Y657415D01*
X1014449Y657315D01*
X1014494Y657214D01*
X1014534Y657111D01*
X1014571Y657006D01*
X1014604Y656901D01*
X1014634Y656794D01*
X1014659Y656686D01*
X1014681Y656577D01*
X1014698Y656468D01*
X1014712Y656358D01*
X1014722Y656247D01*
X1014728Y656137D01*
X1014730Y656026D01*
X1014730Y652145D01*
X996103Y651369D02*
X996103Y659130D01*
D11*
X177800Y603504D02*
X177800Y590296D01*
X203200Y590296D02*
X203200Y603504D01*
X330200Y603504D02*
X330200Y590296D01*
X355600Y590296D02*
X355600Y603504D01*
X228600Y603504D02*
X228600Y590296D01*
X254000Y590296D02*
X254000Y603504D01*
X304800Y603504D02*
X304800Y590296D01*
X279400Y590296D02*
X279400Y603504D01*
X355600Y666496D02*
X355600Y679704D01*
X330200Y679704D02*
X330200Y666496D01*
X304800Y666496D02*
X304800Y679704D01*
X279400Y679704D02*
X279400Y666496D01*
X254000Y666496D02*
X254000Y679704D01*
X228600Y679704D02*
X228600Y666496D01*
X203200Y666496D02*
X203200Y679704D01*
X177800Y679704D02*
X177800Y666496D01*
X736600Y603504D02*
X736600Y590296D01*
X762000Y590296D02*
X762000Y603504D01*
X889000Y603504D02*
X889000Y590296D01*
X914400Y590296D02*
X914400Y603504D01*
X787400Y603504D02*
X787400Y590296D01*
X812800Y590296D02*
X812800Y603504D01*
X863600Y603504D02*
X863600Y590296D01*
X838200Y590296D02*
X838200Y603504D01*
X914400Y666496D02*
X914400Y679704D01*
X889000Y679704D02*
X889000Y666496D01*
X863600Y666496D02*
X863600Y679704D01*
X838200Y679704D02*
X838200Y666496D01*
X812800Y666496D02*
X812800Y679704D01*
X787400Y679704D02*
X787400Y666496D01*
X762000Y666496D02*
X762000Y679704D01*
X736600Y679704D02*
X736600Y666496D01*
X590804Y368300D02*
X577596Y368300D01*
X577596Y393700D02*
X590804Y393700D01*
X590804Y520700D02*
X577596Y520700D01*
X577596Y546100D02*
X590804Y546100D01*
X590804Y419100D02*
X577596Y419100D01*
X577596Y444500D02*
X590804Y444500D01*
X590804Y495300D02*
X577596Y495300D01*
X577596Y469900D02*
X590804Y469900D01*
X514604Y546100D02*
X501396Y546100D01*
X501396Y520700D02*
X514604Y520700D01*
X514604Y495300D02*
X501396Y495300D01*
X501396Y469900D02*
X514604Y469900D01*
X514604Y444500D02*
X501396Y444500D01*
X501396Y419100D02*
X514604Y419100D01*
X514604Y393700D02*
X501396Y393700D01*
X501396Y368300D02*
X514604Y368300D01*
X146304Y368300D02*
X133096Y368300D01*
X133096Y342900D02*
X146304Y342900D01*
X209296Y342900D02*
X222504Y342900D01*
X222504Y368300D02*
X209296Y368300D01*
X146304Y317500D02*
X133096Y317500D01*
X133096Y292100D02*
X146304Y292100D01*
X209296Y317500D02*
X222504Y317500D01*
X222504Y292100D02*
X209296Y292100D01*
D12*
X139700Y444500D03*
X165100Y444500D03*
D13*
X342900Y241300D03*
X368300Y241300D03*
X393700Y241300D03*
X787400Y114300D03*
X812800Y114300D03*
X152400Y889000D03*
X177800Y889000D03*
X203200Y889000D03*
X228600Y889000D03*
X254000Y889000D03*
X279400Y889000D03*
X304800Y889000D03*
X330200Y889000D03*
X355600Y889000D03*
X381000Y889000D03*
X711200Y889000D03*
X736600Y889000D03*
X762000Y889000D03*
X787400Y889000D03*
X812800Y889000D03*
X838200Y889000D03*
X863600Y889000D03*
X889000Y889000D03*
X914400Y889000D03*
X939800Y889000D03*
X838200Y749300D03*
X838200Y825500D03*
X889000Y749300D03*
X889000Y825500D03*
X914400Y749300D03*
X914400Y825500D03*
X177800Y736600D03*
X177800Y812800D03*
X203200Y736600D03*
X203200Y812800D03*
X228600Y736600D03*
X228600Y812800D03*
X254000Y736600D03*
X254000Y812800D03*
X279400Y736600D03*
X279400Y812800D03*
D14*
X203200Y203200D03*
X152400Y203200D03*
X177800Y177800D03*
D13*
X330200Y736600D03*
X330200Y812800D03*
X355600Y736600D03*
X355600Y812800D03*
X342900Y342900D03*
X266700Y342900D03*
X723900Y292100D03*
X723900Y368300D03*
X876300Y342900D03*
X952500Y342900D03*
X736600Y749300D03*
X736600Y825500D03*
X762000Y749300D03*
X762000Y825500D03*
X787400Y749300D03*
X787400Y825500D03*
X812800Y749300D03*
X812800Y825500D03*
X881888Y263906D03*
X946912Y263906D03*
X881888Y218694D03*
X946912Y218694D03*
X584200Y952500D03*
X558800Y952500D03*
X533400Y952500D03*
X508000Y952500D03*
D15*
X444500Y101600D03*
D16*
X494500Y101600D03*
X544500Y101600D03*
D15*
X596900Y101600D03*
D16*
X646900Y101600D03*
X696900Y101600D03*
D17*
X114300Y368300D02*
X88900Y342900D01*
X114300Y368300D02*
X139700Y368300D01*
X88900Y165100D02*
X165100Y88900D01*
X88900Y165100D02*
X88900Y342900D01*
X139700Y368300D02*
X139700Y444500D01*
X139700Y508000D01*
X330200Y508000D02*
X355600Y533400D01*
X355600Y596900D01*
X304800Y508000D02*
X139700Y508000D01*
X304800Y508000D02*
X330200Y508000D01*
X304800Y520700D02*
X279400Y546100D01*
X304800Y520700D02*
X304800Y508000D01*
X279400Y546100D02*
X279400Y596900D01*
X952500Y355600D02*
X952500Y342900D01*
X952500Y355600D02*
X952500Y571500D01*
X952500Y876300D01*
X939800Y889000D01*
X939800Y901700D01*
X927100Y914400D01*
X723900Y914400D01*
X711200Y901700D01*
X711200Y889000D01*
X723900Y914400D02*
X651000Y987300D01*
X517400Y987300D02*
X508000Y977900D01*
X508000Y952500D01*
X517400Y987300D02*
X651000Y987300D01*
X428500Y987300D02*
X381000Y939800D01*
X381000Y889000D01*
X428500Y987300D02*
X517400Y987300D01*
X165100Y939800D02*
X152400Y927100D01*
X152400Y889000D01*
X165100Y939800D02*
X381000Y939800D01*
X914400Y596900D02*
X927100Y596900D01*
X952500Y571500D01*
X914400Y596900D02*
X914400Y609600D01*
X901700Y622300D01*
X850900Y622300D01*
X838200Y609600D01*
X838200Y596900D01*
X939800Y368300D02*
X723900Y368300D01*
X939800Y368300D02*
X952500Y355600D01*
X444500Y101600D02*
X431800Y88900D01*
X165100Y88900D01*
X482600Y546100D02*
X508000Y546100D01*
X584200Y546100D02*
X609600Y546100D01*
D18*
X482600Y546100D03*
X609600Y546100D03*
D17*
X381000Y596900D02*
X355600Y596900D01*
D18*
X381000Y596900D03*
D17*
X881888Y218694D02*
X881888Y94488D01*
X838200Y50800D02*
X736600Y50800D01*
X838200Y50800D02*
X881888Y94488D01*
X632200Y256800D02*
X609600Y279400D01*
X482600Y279400D01*
X431800Y330200D01*
X419100Y342900D01*
X342900Y342900D01*
X393700Y368300D02*
X419100Y342900D01*
X393700Y368300D02*
X241300Y368300D01*
X215900Y368300D01*
X419100Y317500D02*
X431800Y330200D01*
X419100Y317500D02*
X342900Y317500D01*
X279400Y254000D01*
X152400Y254000D01*
X139700Y266700D01*
X139700Y292100D01*
X228600Y596900D02*
X254000Y596900D01*
X254000Y558800D01*
D19*
X254000Y558800D03*
X254000Y406400D03*
D17*
X254000Y381000D01*
X241300Y368300D01*
X228600Y596900D02*
X228600Y619760D01*
X213360Y635000D01*
X190500Y635000D01*
X177800Y647700D01*
X177800Y673100D01*
X632200Y256800D02*
X632460Y257060D01*
X800100Y596900D02*
X812800Y596900D01*
X800100Y596900D02*
X787400Y596900D01*
X800100Y596900D02*
X800100Y571500D01*
X787400Y596900D02*
X787400Y622300D01*
X774700Y635000D01*
X749300Y635000D01*
X736600Y647700D01*
X736600Y673100D01*
X596900Y939800D02*
X584200Y952500D01*
X596900Y939800D02*
X596900Y749300D01*
X635000Y711200D01*
X711200Y673100D02*
X736600Y673100D01*
X711200Y673100D02*
X673100Y711200D01*
X635000Y711200D01*
X696900Y101600D02*
X696900Y90500D01*
X736600Y50800D01*
X709600Y114300D02*
X787400Y114300D01*
X709600Y114300D02*
X696900Y101600D01*
X696900Y166700D01*
X673100Y190500D02*
X647700Y190500D01*
X632200Y206000D01*
X632200Y256800D01*
X673100Y190500D02*
X696900Y166700D01*
X508000Y304800D02*
X508000Y368300D01*
X508000Y304800D02*
X482600Y279400D01*
X881888Y218694D02*
X891794Y218694D01*
X914400Y241300D01*
X914400Y304800D01*
D20*
X914400Y304800D03*
D18*
X800100Y571500D03*
D17*
X266700Y342900D02*
X215900Y342900D01*
D19*
X292100Y215900D03*
D17*
X279400Y203200D01*
X203200Y203200D01*
X177800Y431800D02*
X165100Y444500D01*
X177800Y355600D02*
X165100Y342900D01*
X139700Y342900D01*
X177800Y355600D02*
X177800Y431800D01*
X177800Y330200D02*
X190500Y317500D01*
X215900Y317500D01*
X177800Y330200D02*
X177800Y355600D01*
X177800Y177800D02*
X190500Y165100D01*
X254000Y165100D01*
D19*
X254000Y165100D03*
X254000Y292100D03*
D17*
X254000Y304800D01*
X241300Y317500D01*
X215900Y317500D01*
X723900Y292100D02*
X812800Y203200D01*
X812800Y114300D01*
D20*
X368300Y215900D03*
D17*
X368300Y241300D01*
D18*
X596900Y304800D03*
D17*
X584200Y317500D01*
X584200Y368300D01*
X863600Y330200D02*
X876300Y342900D01*
X863600Y330200D02*
X863600Y304800D01*
X863600Y279400D01*
X879094Y263906D01*
X881888Y263906D01*
X558800Y533400D02*
X558800Y952500D01*
X812800Y304800D02*
X863600Y304800D01*
D19*
X812800Y304800D03*
X812800Y520700D03*
D17*
X571500Y520700D02*
X558800Y533400D01*
X571500Y520700D02*
X584200Y520700D01*
X812800Y520700D01*
D20*
X546100Y165100D03*
D17*
X544500Y163500D02*
X544500Y101600D01*
X544500Y163500D02*
X546100Y165100D01*
X508000Y393700D02*
X482600Y393700D01*
X469900Y381000D01*
X469900Y342900D01*
D18*
X469900Y342900D03*
D17*
X533400Y381000D02*
X533400Y952500D01*
D19*
X533400Y304800D03*
D17*
X533400Y381000D01*
D19*
X546100Y241300D03*
D17*
X549500Y237900D01*
X546100Y241300D02*
X596900Y190500D01*
X596900Y101600D01*
X533400Y381000D02*
X546100Y393700D01*
X584200Y393700D01*
X177800Y812800D02*
X177800Y889000D01*
X203200Y889000D02*
X203200Y812800D01*
X228600Y812800D02*
X228600Y889000D01*
X254000Y889000D02*
X254000Y812800D01*
X279400Y812800D02*
X279400Y889000D01*
X330200Y889000D02*
X330200Y812800D01*
X355600Y812800D02*
X355600Y889000D01*
X736600Y889000D02*
X736600Y825500D01*
X762000Y825500D02*
X762000Y889000D01*
X787400Y889000D02*
X787400Y825500D01*
X812800Y825500D02*
X812800Y889000D01*
X838200Y889000D02*
X838200Y825500D01*
X889000Y825500D02*
X889000Y889000D01*
X914400Y889000D02*
X914400Y825500D01*
D19*
X228600Y707390D03*
D17*
X228600Y673100D01*
X203200Y673100D02*
X203200Y736600D01*
D19*
X355600Y711200D03*
D17*
X355600Y673100D01*
X279400Y711200D02*
X254000Y736600D01*
X279400Y711200D02*
X279400Y698246D01*
D19*
X279400Y698246D03*
X330200Y698246D03*
D17*
X330200Y673100D01*
X292100Y736600D02*
X279400Y736600D01*
X292100Y736600D02*
X304800Y723900D01*
X304800Y673100D01*
D19*
X254000Y635000D03*
D17*
X254000Y673100D01*
X355600Y736600D02*
X381000Y736600D01*
X393700Y723900D01*
X393700Y660400D02*
X381000Y647700D01*
X292100Y647700D01*
X279400Y660400D01*
X279400Y673100D01*
X393700Y660400D02*
X393700Y723900D01*
X762000Y749300D02*
X762000Y673100D01*
X787400Y673100D02*
X787400Y715010D01*
D18*
X787400Y715010D03*
D19*
X812800Y635000D03*
D17*
X812800Y673100D01*
X914400Y749300D02*
X935990Y727710D01*
X935990Y656590D02*
X927100Y647700D01*
X850900Y647700D01*
X838200Y660400D01*
X838200Y673100D01*
X935990Y656590D02*
X935990Y727710D01*
X850900Y749300D02*
X838200Y749300D01*
X850900Y749300D02*
X863600Y736600D01*
X863600Y673100D01*
X838200Y723900D02*
X812800Y749300D01*
X838200Y723900D02*
X838200Y706120D01*
D19*
X838200Y706120D03*
X889000Y706120D03*
D17*
X889000Y673100D01*
D19*
X914400Y711200D03*
D17*
X914400Y673100D01*
X825500Y419100D02*
X584200Y419100D01*
X825500Y419100D02*
X889000Y482600D01*
X889000Y596900D01*
X609600Y495300D02*
X584200Y495300D01*
X508000Y520700D02*
X482600Y520700D01*
D18*
X482600Y520700D03*
X609600Y495300D03*
D17*
X838200Y495300D01*
X863600Y520700D01*
X863600Y596900D01*
X762000Y469900D02*
X584200Y469900D01*
X762000Y558800D02*
X762000Y596900D01*
D18*
X762000Y469900D03*
X762000Y558800D03*
D17*
X736600Y571500D02*
X736600Y596900D01*
X736600Y444500D02*
X584200Y444500D01*
D18*
X736600Y444500D03*
X736600Y571500D03*
D17*
X177800Y558800D02*
X177800Y596900D01*
D18*
X177800Y558800D03*
D17*
X177800Y482600D02*
X190500Y469900D01*
X508000Y469900D01*
D18*
X177800Y482600D03*
D17*
X203200Y571500D02*
X203200Y596900D01*
D18*
X203200Y571500D03*
D17*
X203200Y444500D02*
X508000Y444500D01*
D18*
X203200Y444500D03*
D20*
X495300Y165100D03*
D17*
X495300Y102400D01*
X494500Y101600D01*
X508000Y419100D02*
X444500Y419100D01*
D18*
X444500Y419100D03*
D17*
X304800Y558800D02*
X304800Y596900D01*
D18*
X304800Y558800D03*
D17*
X444500Y495300D02*
X508000Y495300D01*
D18*
X444500Y495300D03*
D17*
X330200Y571500D02*
X330200Y596900D01*
D18*
X330200Y571500D03*
D17*
X393700Y241300D02*
X393700Y139700D01*
D19*
X393700Y139700D03*
X393700Y50800D03*
D17*
X393700Y38100D01*
X406400Y25400D01*
X584200Y25400D01*
X646900Y88100D02*
X646900Y101600D01*
X646900Y88100D02*
X584200Y25400D01*
X342900Y139700D02*
X342900Y241300D01*
X342900Y139700D02*
X330200Y127000D01*
X177800Y127000D01*
X114300Y190500D01*
X114300Y303530D01*
X128270Y317500D01*
X139700Y317500D01*
M02*
