M48
;GenerationSoftware,Autodesk,EAGLE,9.6.2*%
;CreationDate,2021-03-10T16:10:19Z*%
FMAT,2
ICI,OFF
METRIC,TZ,000.000
T3C0.800
T2C0.813
T1C1.016
%
G90
M71
T1
X5080Y2540
X7620Y2540
X10160Y2540
X12700Y2540
X15240Y2540
X17780Y2540
X20320Y2540
X22860Y2540
X25400Y2540
X27940Y2540
T2
X11430Y10160
X13970Y10160
X16510Y10160
X19050Y10160
X21590Y10160
X21590Y25400
X19050Y25400
X16510Y25400
X13970Y25400
X11430Y25400
T3
X20320Y15240
X13970Y19812
M30