M48
;GenerationSoftware,Autodesk,EAGLE,9.6.2*%
;CreationDate,2021-02-19T02:03:46Z*%
FMAT,2
ICI,OFF
METRIC,TZ,000.000
T5C0.800
T4C0.813
T3C0.900
T2C1.016
T1C1.300
%
G90
M71
T1
X90090Y10160
X95090Y10160
X69850Y10160
X74850Y10160
X79850Y10160
X85090Y10160
T2
X96520Y88900
X63500Y88900
X58420Y88900
X60960Y88900
X119380Y88900
X116840Y88900
X114300Y88900
X111760Y88900
X55880Y88900
X53340Y88900
X50800Y88900
X45720Y88900
X109220Y88900
X40640Y88900
X64770Y24130
X62230Y24130
X59690Y24130
X48260Y88900
X81280Y95250
X113589Y26391
X120091Y26391
X113589Y21869
X120091Y21869
X83820Y95250
X78740Y95250
X76200Y95250
X106680Y88900
X104140Y88900
X101600Y88900
X99060Y88900
X43180Y88900
T3
X59690Y34290
X60960Y81280
X60960Y73660
X58420Y81280
X58420Y73660
X53340Y81280
X53340Y73660
X50800Y73660
X48260Y81280
X97790Y29210
X97790Y36830
X113030Y34290
X99060Y74930
X99060Y82550
X101600Y74930
X101600Y82550
X104140Y74930
X48260Y73660
X106680Y74930
X106680Y82550
X45720Y81280
X45720Y73660
X43180Y81280
X116840Y82550
X116840Y74930
X104140Y82550
X114300Y82550
X114300Y74930
X109220Y82550
X109220Y74930
X43180Y73660
X50800Y81280
X52070Y34290
X120650Y34290
T4
X111760Y67310
X109220Y67310
X106680Y67310
X104140Y67310
X101600Y67310
X99060Y67310
X83820Y36830
X83820Y39370
X83820Y52070
X83820Y54610
X83820Y41910
X83820Y44450
X83820Y49530
X83820Y46990
X76200Y54610
X76200Y52070
X76200Y49530
X76200Y46990
X111760Y59690
X76200Y41910
X76200Y39370
X76200Y36830
X39370Y36830
X39370Y34290
X46990Y34290
X46990Y36830
X39370Y31750
X39370Y29210
X46990Y31750
X46990Y29210
X39370Y44450
X41910Y44450
X104140Y11430
X106680Y11430
X76200Y44450
X45720Y20320
X40640Y20320
X43180Y17780
X43180Y59690
X45720Y59690
X58420Y59690
X60960Y59690
X48260Y59690
X50800Y59690
X55880Y59690
X53340Y59690
X60960Y67310
X58420Y67310
X55880Y67310
X53340Y67310
X50800Y67310
X48260Y67310
X45720Y67310
X43180Y67310
X99060Y59690
X101600Y59690
X114300Y59690
X116840Y59690
X104140Y59690
X106680Y59690
X109220Y59690
X116840Y67310
X114300Y67310
T5
X72390Y34290
X80010Y16510
X106680Y52070
X106680Y30480
X85090Y30480
X62230Y21590
X50800Y29210
X50800Y16510
X54610Y21590
X105410Y57150
X64770Y5080
X64770Y13970
X69850Y49530
X116840Y30480
X50800Y40640
X50800Y55880
X63500Y59690
X86360Y54610
X73660Y54610
X55880Y55880
X69850Y41910
X58420Y57150
X50800Y63500
X74930Y16510
X45720Y44450
X45720Y57150
X43180Y48260
X43180Y55880
X99060Y57150
X99060Y44450
X101600Y55880
X101600Y46990
X86360Y49530
X73660Y52070
X116840Y71120
X114300Y70612
X109220Y70612
X106680Y63500
X104140Y71501
X58420Y69825
X53340Y69825
X60960Y71120
X48260Y70739
X80010Y24130
X78740Y30480
M30