M48
;GenerationSoftware,Autodesk,EAGLE,9.5.2*%
;CreationDate,2020-08-24T21:14:35Z*%
FMAT,2
ICI,OFF
METRIC,TZ,000.000
T5C0.800
T4C0.813
T3C0.900
T2C1.016
T1C1.200
%
G90
M71
T1
X88620Y8890
X85120Y8890
X74620Y8890
X71120Y8890
X81620Y8890
X78120Y8890
T2
X116840Y88900
X114300Y88900
X111760Y88900
X109220Y88900
X106680Y88900
X104140Y88900
X101600Y88900
X76200Y95250
X119380Y88900
X99060Y88900
X96520Y88900
X63500Y88900
X60960Y88900
X58420Y88900
X55880Y88900
X53340Y88900
X50800Y88900
X48260Y88900
X43180Y88900
X40640Y88900
X64770Y24130
X62230Y24130
X59690Y24130
X45720Y88900
X113589Y26391
X120091Y26391
X113589Y21869
X120091Y21869
X83820Y95250
X81280Y95250
X78740Y95250
T3
X59690Y34290
X60960Y81280
X58420Y81280
X58420Y73660
X53340Y81280
X53340Y73660
X50800Y81280
X48260Y81280
X48260Y73660
X45720Y81280
X45720Y73660
X43180Y81280
X43180Y73660
X116840Y82550
X97790Y29210
X97790Y36830
X113030Y34290
X120650Y34290
X99060Y74930
X99060Y82550
X101600Y74930
X101600Y82550
X104140Y74930
X104140Y82550
X106680Y74930
X106680Y82550
X116840Y74930
X114300Y82550
X114300Y74930
X109220Y82550
X109220Y74930
X50800Y73660
X52070Y34290
X60960Y73660
T4
X106680Y59690
X111760Y59690
X109220Y59690
X116840Y67310
X114300Y67310
X111760Y67310
X109220Y67310
X106680Y67310
X104140Y67310
X101600Y67310
X99060Y67310
X76200Y54610
X76200Y52070
X76200Y39370
X76200Y36830
X76200Y49530
X76200Y46990
X76200Y41910
X76200Y44450
X83820Y36830
X83820Y39370
X116840Y59690
X83820Y44450
X83820Y46990
X83820Y49530
X83820Y52070
X83820Y54610
X39370Y36830
X39370Y34290
X46990Y34290
X46990Y36830
X39370Y31750
X39370Y29210
X46990Y31750
X46990Y29210
X39370Y45720
X41910Y45720
X95250Y8890
X97790Y8890
X83820Y41910
X45720Y20320
X40640Y20320
X43180Y17780
X43180Y59690
X45720Y59690
X58420Y59690
X60960Y59690
X48260Y59690
X50800Y59690
X55880Y59690
X53340Y59690
X60960Y67310
X58420Y67310
X55880Y67310
X53340Y67310
X50800Y67310
X48260Y67310
X45720Y67310
X43180Y67310
X99060Y59690
X101600Y59690
X114300Y59690
X104140Y59690
T5
X93980Y73660
X104140Y71501
X99060Y71501
X40640Y63500
X58420Y69825
X53340Y69825
X60960Y71120
X50800Y71120
X48260Y70739
X43180Y70739
X81280Y26670
X78740Y53340
X106680Y52070
X106680Y30480
X77470Y24130
X72390Y39370
X64770Y29210
X67310Y58420
X50800Y29210
X50800Y16510
X54610Y21590
X64770Y5080
X64770Y13970
X104140Y44450
X54610Y31750
X87630Y54610
X50800Y63500
X88646Y33147
X50800Y46990
X50800Y55880
X101600Y56642
X74930Y16510
X101600Y46990
X99060Y56642
X99060Y44450
X43180Y53340
X63500Y46990
X45720Y55880
X63500Y44450
X69850Y39370
X92710Y39370
X60960Y49530
X55880Y55880
X58420Y55880
X63500Y55880
X116840Y71120
X106680Y72390
X114300Y70612
X109220Y70612
X106680Y63500
M30